STARTFONT 2.1
FONT -x12y12pxMaruMinyaHangul-Regular-R-Regular--12-12-75-75-c-80-iso10646-1
SIZE 12 75 75
FONTBOUNDINGBOX 16 12 -4 0
STARTPROPERTIES 10
FAMILY_NAME "x12y12pxMaruMinyaHangul"
WEIGHT_NAME "Regular"
FONT_VERSION "2026-03-01"
COPYRIGHT "Copyright (c) 2026 The x12y12pxMaruMinya Project Authors; Copyright (c) 2026 quiple"
FOUNDRY "The x12y12pxMaruMinya Project Authors; quiple"
FONT_ASCENT 12
FONT_DESCENT 0
POINT_SIZE 12
X_HEIGHT 8
CAP_HEIGHT 10
ENDPROPERTIES
CHARS 19106
STARTCHAR U+0020
ENCODING 32
SWIDTH 375 0
DWIDTH 6 0
BBX 0 0 0 0
BITMAP
ENDCHAR
STARTCHAR U+0021
ENCODING 33
SWIDTH 375 0
DWIDTH 6 0
BBX 1 9 2 1
BITMAP
80
80
80
80
80
00
00
80
80
ENDCHAR
STARTCHAR U+0022
ENCODING 34
SWIDTH 375 0
DWIDTH 6 0
BBX 3 3 1 7
BITMAP
A0
A0
A0
ENDCHAR
STARTCHAR U+0023
ENCODING 35
SWIDTH 375 0
DWIDTH 6 0
BBX 5 9 0 1
BITMAP
50
50
F8
50
50
50
F8
50
50
ENDCHAR
STARTCHAR U+0024
ENCODING 36
SWIDTH 375 0
DWIDTH 6 0
BBX 5 9 0 1
BITMAP
20
78
A0
A0
70
28
28
F0
20
ENDCHAR
STARTCHAR U+0025
ENCODING 37
SWIDTH 375 0
DWIDTH 6 0
BBX 5 9 0 1
BITMAP
48
A8
B0
50
20
50
68
A8
90
ENDCHAR
STARTCHAR U+0026
ENCODING 38
SWIDTH 375 0
DWIDTH 6 0
BBX 5 9 0 1
BITMAP
60
90
90
A0
48
A8
90
90
68
ENDCHAR
STARTCHAR U+0027
ENCODING 39
SWIDTH 375 0
DWIDTH 6 0
BBX 1 3 2 7
BITMAP
80
80
80
ENDCHAR
STARTCHAR U+0028
ENCODING 40
SWIDTH 375 0
DWIDTH 6 0
BBX 3 11 1 0
BITMAP
20
40
40
80
80
80
80
80
40
40
20
ENDCHAR
STARTCHAR U+0029
ENCODING 41
SWIDTH 375 0
DWIDTH 6 0
BBX 3 11 1 0
BITMAP
80
40
40
20
20
20
20
20
40
40
80
ENDCHAR
STARTCHAR U+002A
ENCODING 42
SWIDTH 375 0
DWIDTH 6 0
BBX 5 5 0 5
BITMAP
20
A8
70
A8
20
ENDCHAR
STARTCHAR U+002B
ENCODING 43
SWIDTH 375 0
DWIDTH 6 0
BBX 5 5 0 3
BITMAP
20
20
F8
20
20
ENDCHAR
STARTCHAR U+002C
ENCODING 44
SWIDTH 375 0
DWIDTH 6 0
BBX 2 2 1 0
BITMAP
40
80
ENDCHAR
STARTCHAR U+002D
ENCODING 45
SWIDTH 375 0
DWIDTH 6 0
BBX 5 1 0 5
BITMAP
F8
ENDCHAR
STARTCHAR U+002E
ENCODING 46
SWIDTH 375 0
DWIDTH 6 0
BBX 1 1 2 1
BITMAP
80
ENDCHAR
STARTCHAR U+002F
ENCODING 47
SWIDTH 375 0
DWIDTH 6 0
BBX 5 10 0 0
BITMAP
08
08
10
10
20
20
40
40
80
80
ENDCHAR
STARTCHAR U+0030
ENCODING 48
SWIDTH 375 0
DWIDTH 6 0
BBX 5 9 0 1
BITMAP
70
88
88
88
88
88
88
88
70
ENDCHAR
STARTCHAR U+0031
ENCODING 49
SWIDTH 375 0
DWIDTH 6 0
BBX 3 9 0 1
BITMAP
20
E0
20
20
20
20
20
20
20
ENDCHAR
STARTCHAR U+0032
ENCODING 50
SWIDTH 375 0
DWIDTH 6 0
BBX 5 9 0 1
BITMAP
70
88
88
08
10
20
40
80
F8
ENDCHAR
STARTCHAR U+0033
ENCODING 51
SWIDTH 375 0
DWIDTH 6 0
BBX 5 9 0 1
BITMAP
70
88
08
08
30
08
08
88
70
ENDCHAR
STARTCHAR U+0034
ENCODING 52
SWIDTH 375 0
DWIDTH 6 0
BBX 5 9 0 1
BITMAP
18
28
28
48
48
88
F8
08
08
ENDCHAR
STARTCHAR U+0035
ENCODING 53
SWIDTH 375 0
DWIDTH 6 0
BBX 5 9 0 1
BITMAP
F8
80
80
F0
88
08
08
88
70
ENDCHAR
STARTCHAR U+0036
ENCODING 54
SWIDTH 375 0
DWIDTH 6 0
BBX 5 9 0 1
BITMAP
70
88
80
F0
88
88
88
88
70
ENDCHAR
STARTCHAR U+0037
ENCODING 55
SWIDTH 375 0
DWIDTH 6 0
BBX 5 9 0 1
BITMAP
F0
08
08
10
10
20
20
40
40
ENDCHAR
STARTCHAR U+0038
ENCODING 56
SWIDTH 375 0
DWIDTH 6 0
BBX 5 9 0 1
BITMAP
70
88
88
88
70
88
88
88
70
ENDCHAR
STARTCHAR U+0039
ENCODING 57
SWIDTH 375 0
DWIDTH 6 0
BBX 5 9 0 1
BITMAP
70
88
88
88
88
78
08
10
60
ENDCHAR
STARTCHAR U+003A
ENCODING 58
SWIDTH 375 0
DWIDTH 6 0
BBX 1 7 2 1
BITMAP
80
00
00
00
00
00
80
ENDCHAR
STARTCHAR U+003B
ENCODING 59
SWIDTH 375 0
DWIDTH 6 0
BBX 2 8 1 0
BITMAP
40
00
00
00
00
00
40
80
ENDCHAR
STARTCHAR U+003C
ENCODING 60
SWIDTH 375 0
DWIDTH 6 0
BBX 4 8 1 1
BITMAP
10
20
40
80
80
40
20
10
ENDCHAR
STARTCHAR U+003D
ENCODING 61
SWIDTH 375 0
DWIDTH 6 0
BBX 5 4 0 3
BITMAP
F8
00
00
F8
ENDCHAR
STARTCHAR U+003E
ENCODING 62
SWIDTH 375 0
DWIDTH 6 0
BBX 4 8 0 1
BITMAP
80
40
20
10
10
20
40
80
ENDCHAR
STARTCHAR U+003F
ENCODING 63
SWIDTH 375 0
DWIDTH 6 0
BBX 5 9 0 1
BITMAP
F0
08
08
10
20
20
00
20
20
ENDCHAR
STARTCHAR U+0040
ENCODING 64
SWIDTH 375 0
DWIDTH 6 0
BBX 5 8 0 1
BITMAP
70
88
B8
C8
C8
B0
88
70
ENDCHAR
STARTCHAR U+0041
ENCODING 65
SWIDTH 375 0
DWIDTH 6 0
BBX 5 9 0 1
BITMAP
70
88
88
88
88
F8
88
88
88
ENDCHAR
STARTCHAR U+0042
ENCODING 66
SWIDTH 375 0
DWIDTH 6 0
BBX 5 9 0 1
BITMAP
F0
88
88
88
F0
88
88
88
F0
ENDCHAR
STARTCHAR U+0043
ENCODING 67
SWIDTH 375 0
DWIDTH 6 0
BBX 5 9 0 1
BITMAP
70
88
88
80
80
80
88
88
70
ENDCHAR
STARTCHAR U+0044
ENCODING 68
SWIDTH 375 0
DWIDTH 6 0
BBX 5 9 0 1
BITMAP
F0
88
88
88
88
88
88
88
F0
ENDCHAR
STARTCHAR U+0045
ENCODING 69
SWIDTH 375 0
DWIDTH 6 0
BBX 5 9 0 1
BITMAP
78
80
80
80
F8
80
80
80
78
ENDCHAR
STARTCHAR U+0046
ENCODING 70
SWIDTH 375 0
DWIDTH 6 0
BBX 5 9 0 1
BITMAP
78
80
80
80
F8
80
80
80
80
ENDCHAR
STARTCHAR U+0047
ENCODING 71
SWIDTH 375 0
DWIDTH 6 0
BBX 5 9 0 1
BITMAP
78
80
80
80
B8
88
88
88
78
ENDCHAR
STARTCHAR U+0048
ENCODING 72
SWIDTH 375 0
DWIDTH 6 0
BBX 5 9 0 1
BITMAP
88
88
88
88
F8
88
88
88
88
ENDCHAR
STARTCHAR U+0049
ENCODING 73
SWIDTH 375 0
DWIDTH 6 0
BBX 5 9 0 1
BITMAP
F8
20
20
20
20
20
20
20
F8
ENDCHAR
STARTCHAR U+004A
ENCODING 74
SWIDTH 375 0
DWIDTH 6 0
BBX 5 9 0 1
BITMAP
08
08
08
08
08
88
88
88
70
ENDCHAR
STARTCHAR U+004B
ENCODING 75
SWIDTH 375 0
DWIDTH 6 0
BBX 5 9 0 1
BITMAP
88
88
90
A0
C0
A0
90
88
88
ENDCHAR
STARTCHAR U+004C
ENCODING 76
SWIDTH 375 0
DWIDTH 6 0
BBX 5 9 0 1
BITMAP
80
80
80
80
80
80
80
80
78
ENDCHAR
STARTCHAR U+004D
ENCODING 77
SWIDTH 375 0
DWIDTH 6 0
BBX 5 9 0 1
BITMAP
88
88
D8
A8
88
88
88
88
88
ENDCHAR
STARTCHAR U+004E
ENCODING 78
SWIDTH 375 0
DWIDTH 6 0
BBX 5 9 0 1
BITMAP
88
88
C8
A8
98
88
88
88
88
ENDCHAR
STARTCHAR U+004F
ENCODING 79
SWIDTH 375 0
DWIDTH 6 0
BBX 5 9 0 1
BITMAP
70
88
88
88
88
88
88
88
70
ENDCHAR
STARTCHAR U+0050
ENCODING 80
SWIDTH 375 0
DWIDTH 6 0
BBX 5 9 0 1
BITMAP
F0
88
88
88
88
F0
80
80
80
ENDCHAR
STARTCHAR U+0051
ENCODING 81
SWIDTH 375 0
DWIDTH 6 0
BBX 5 9 0 1
BITMAP
70
88
88
88
88
E8
90
90
68
ENDCHAR
STARTCHAR U+0052
ENCODING 82
SWIDTH 375 0
DWIDTH 6 0
BBX 5 9 0 1
BITMAP
F0
88
88
88
90
E0
90
88
88
ENDCHAR
STARTCHAR U+0053
ENCODING 83
SWIDTH 375 0
DWIDTH 6 0
BBX 5 9 0 1
BITMAP
78
80
80
80
70
08
08
08
F0
ENDCHAR
STARTCHAR U+0054
ENCODING 84
SWIDTH 375 0
DWIDTH 6 0
BBX 5 9 0 1
BITMAP
F8
20
20
20
20
20
20
20
20
ENDCHAR
STARTCHAR U+0055
ENCODING 85
SWIDTH 375 0
DWIDTH 6 0
BBX 5 9 0 1
BITMAP
88
88
88
88
88
88
88
88
70
ENDCHAR
STARTCHAR U+0056
ENCODING 86
SWIDTH 375 0
DWIDTH 6 0
BBX 5 9 0 1
BITMAP
88
88
88
88
50
50
50
20
20
ENDCHAR
STARTCHAR U+0057
ENCODING 87
SWIDTH 375 0
DWIDTH 6 0
BBX 5 9 0 1
BITMAP
88
88
A8
A8
A8
A8
50
50
50
ENDCHAR
STARTCHAR U+0058
ENCODING 88
SWIDTH 375 0
DWIDTH 6 0
BBX 5 9 0 1
BITMAP
88
88
50
50
20
50
50
88
88
ENDCHAR
STARTCHAR U+0059
ENCODING 89
SWIDTH 375 0
DWIDTH 6 0
BBX 5 9 0 1
BITMAP
88
88
88
50
50
20
20
20
20
ENDCHAR
STARTCHAR U+005A
ENCODING 90
SWIDTH 375 0
DWIDTH 6 0
BBX 5 9 0 1
BITMAP
F8
08
10
20
40
40
80
80
F8
ENDCHAR
STARTCHAR U+005B
ENCODING 91
SWIDTH 375 0
DWIDTH 6 0
BBX 3 11 1 0
BITMAP
E0
80
80
80
80
80
80
80
80
80
E0
ENDCHAR
STARTCHAR U+005C
ENCODING 92
SWIDTH 375 0
DWIDTH 6 0
BBX 5 10 0 0
BITMAP
80
80
40
40
20
20
10
10
08
08
ENDCHAR
STARTCHAR U+005D
ENCODING 93
SWIDTH 375 0
DWIDTH 6 0
BBX 3 11 1 0
BITMAP
E0
20
20
20
20
20
20
20
20
20
E0
ENDCHAR
STARTCHAR U+005E
ENCODING 94
SWIDTH 375 0
DWIDTH 6 0
BBX 5 3 0 8
BITMAP
20
50
88
ENDCHAR
STARTCHAR U+005F
ENCODING 95
SWIDTH 375 0
DWIDTH 6 0
BBX 5 1 0 0
BITMAP
F8
ENDCHAR
STARTCHAR U+0060
ENCODING 96
SWIDTH 375 0
DWIDTH 6 0
BBX 2 2 1 10
BITMAP
80
40
ENDCHAR
STARTCHAR U+0061
ENCODING 97
SWIDTH 375 0
DWIDTH 6 0
BBX 5 7 0 1
BITMAP
70
08
78
88
88
88
78
ENDCHAR
STARTCHAR U+0062
ENCODING 98
SWIDTH 375 0
DWIDTH 6 0
BBX 5 9 0 1
BITMAP
80
80
F0
88
88
88
88
88
F0
ENDCHAR
STARTCHAR U+0063
ENCODING 99
SWIDTH 375 0
DWIDTH 6 0
BBX 5 7 0 1
BITMAP
70
88
80
80
80
88
70
ENDCHAR
STARTCHAR U+0064
ENCODING 100
SWIDTH 375 0
DWIDTH 6 0
BBX 5 9 0 1
BITMAP
08
08
78
88
88
88
88
88
78
ENDCHAR
STARTCHAR U+0065
ENCODING 101
SWIDTH 375 0
DWIDTH 6 0
BBX 5 7 0 1
BITMAP
70
88
88
F0
80
88
70
ENDCHAR
STARTCHAR U+0066
ENCODING 102
SWIDTH 375 0
DWIDTH 6 0
BBX 5 9 0 1
BITMAP
38
40
40
F8
40
40
40
40
40
ENDCHAR
STARTCHAR U+0067
ENCODING 103
SWIDTH 375 0
DWIDTH 6 0
BBX 5 8 0 0
BITMAP
78
88
88
88
88
78
08
70
ENDCHAR
STARTCHAR U+0068
ENCODING 104
SWIDTH 375 0
DWIDTH 6 0
BBX 5 9 0 1
BITMAP
80
80
B0
C8
88
88
88
88
88
ENDCHAR
STARTCHAR U+0069
ENCODING 105
SWIDTH 375 0
DWIDTH 6 0
BBX 5 9 0 1
BITMAP
60
00
C0
20
20
20
20
20
F8
ENDCHAR
STARTCHAR U+006A
ENCODING 106
SWIDTH 375 0
DWIDTH 6 0
BBX 5 10 0 0
BITMAP
18
00
70
08
08
08
08
08
88
70
ENDCHAR
STARTCHAR U+006B
ENCODING 107
SWIDTH 375 0
DWIDTH 6 0
BBX 5 9 0 1
BITMAP
80
80
98
A0
C0
A0
90
88
88
ENDCHAR
STARTCHAR U+006C
ENCODING 108
SWIDTH 375 0
DWIDTH 6 0
BBX 5 9 0 1
BITMAP
C0
20
20
20
20
20
20
20
F8
ENDCHAR
STARTCHAR U+006D
ENCODING 109
SWIDTH 375 0
DWIDTH 6 0
BBX 5 7 0 1
BITMAP
D0
A8
A8
A8
A8
A8
A8
ENDCHAR
STARTCHAR U+006E
ENCODING 110
SWIDTH 375 0
DWIDTH 6 0
BBX 5 7 0 1
BITMAP
B0
C8
88
88
88
88
88
ENDCHAR
STARTCHAR U+006F
ENCODING 111
SWIDTH 375 0
DWIDTH 6 0
BBX 5 7 0 1
BITMAP
70
88
88
88
88
88
70
ENDCHAR
STARTCHAR U+0070
ENCODING 112
SWIDTH 375 0
DWIDTH 6 0
BBX 5 8 0 0
BITMAP
F0
88
88
88
88
F0
80
80
ENDCHAR
STARTCHAR U+0071
ENCODING 113
SWIDTH 375 0
DWIDTH 6 0
BBX 5 8 0 0
BITMAP
78
88
88
88
88
78
08
08
ENDCHAR
STARTCHAR U+0072
ENCODING 114
SWIDTH 375 0
DWIDTH 6 0
BBX 5 7 0 1
BITMAP
B8
C0
80
80
80
80
80
ENDCHAR
STARTCHAR U+0073
ENCODING 115
SWIDTH 375 0
DWIDTH 6 0
BBX 5 7 0 1
BITMAP
78
80
80
70
08
08
F0
ENDCHAR
STARTCHAR U+0074
ENCODING 116
SWIDTH 375 0
DWIDTH 6 0
BBX 5 9 0 1
BITMAP
40
40
F8
40
40
40
40
40
38
ENDCHAR
STARTCHAR U+0075
ENCODING 117
SWIDTH 375 0
DWIDTH 6 0
BBX 5 7 0 1
BITMAP
88
88
88
88
88
98
68
ENDCHAR
STARTCHAR U+0076
ENCODING 118
SWIDTH 375 0
DWIDTH 6 0
BBX 5 7 0 1
BITMAP
88
88
88
88
50
50
20
ENDCHAR
STARTCHAR U+0077
ENCODING 119
SWIDTH 375 0
DWIDTH 6 0
BBX 5 7 0 1
BITMAP
88
88
A8
A8
A8
50
50
ENDCHAR
STARTCHAR U+0078
ENCODING 120
SWIDTH 375 0
DWIDTH 6 0
BBX 5 7 0 1
BITMAP
88
88
50
20
50
88
88
ENDCHAR
STARTCHAR U+0079
ENCODING 121
SWIDTH 375 0
DWIDTH 6 0
BBX 5 8 0 0
BITMAP
88
88
88
88
78
08
08
F0
ENDCHAR
STARTCHAR U+007A
ENCODING 122
SWIDTH 375 0
DWIDTH 6 0
BBX 5 7 0 1
BITMAP
F8
08
10
20
40
80
F8
ENDCHAR
STARTCHAR U+007B
ENCODING 123
SWIDTH 375 0
DWIDTH 6 0
BBX 4 11 0 0
BITMAP
30
40
40
40
40
80
40
40
40
40
30
ENDCHAR
STARTCHAR U+007C
ENCODING 124
SWIDTH 375 0
DWIDTH 6 0
BBX 1 12 2 0
BITMAP
80
80
80
80
80
80
80
80
80
80
80
80
ENDCHAR
STARTCHAR U+007D
ENCODING 125
SWIDTH 375 0
DWIDTH 6 0
BBX 4 11 1 0
BITMAP
C0
20
20
20
20
10
20
20
20
20
C0
ENDCHAR
STARTCHAR U+007E
ENCODING 126
SWIDTH 375 0
DWIDTH 6 0
BBX 5 2 0 5
BITMAP
68
90
ENDCHAR
STARTCHAR U+00A0
ENCODING 160
SWIDTH 375 0
DWIDTH 6 0
BBX 0 0 0 0
BITMAP
ENDCHAR
STARTCHAR U+00A1
ENCODING 161
SWIDTH 375 0
DWIDTH 6 0
BBX 1 9 2 0
BITMAP
80
80
00
00
80
80
80
80
80
ENDCHAR
STARTCHAR U+00A2
ENCODING 162
SWIDTH 375 0
DWIDTH 6 0
BBX 5 8 0 1
BITMAP
20
70
A8
A0
A0
A8
70
20
ENDCHAR
STARTCHAR U+00A3
ENCODING 163
SWIDTH 375 0
DWIDTH 6 0
BBX 5 9 0 1
BITMAP
30
48
40
40
F0
40
40
80
F8
ENDCHAR
STARTCHAR U+00A4
ENCODING 164
SWIDTH 375 0
DWIDTH 6 0
BBX 5 7 0 2
BITMAP
88
70
88
88
88
70
88
ENDCHAR
STARTCHAR U+00A5
ENCODING 165
SWIDTH 375 0
DWIDTH 6 0
BBX 5 9 0 1
BITMAP
88
50
20
F8
20
F8
20
20
20
ENDCHAR
STARTCHAR U+00A6
ENCODING 166
SWIDTH 375 0
DWIDTH 6 0
BBX 1 11 2 0
BITMAP
80
80
80
80
80
00
80
80
80
80
80
ENDCHAR
STARTCHAR U+00A7
ENCODING 167
SWIDTH 375 0
DWIDTH 6 0
BBX 5 10 0 0
BITMAP
70
88
80
70
88
88
70
08
88
70
ENDCHAR
STARTCHAR U+00A8
ENCODING 168
SWIDTH 375 0
DWIDTH 6 0
BBX 3 1 1 11
BITMAP
A0
ENDCHAR
STARTCHAR U+00A9
ENCODING 169
SWIDTH 750 0
DWIDTH 12 0
BBX 9 9 1 1
BITMAP
3E00
4100
9C80
A280
A080
A280
9C80
4100
3E00
ENDCHAR
STARTCHAR U+00AA
ENCODING 170
SWIDTH 375 0
DWIDTH 6 0
BBX 5 6 0 4
BITMAP
70
08
78
88
88
78
ENDCHAR
STARTCHAR U+00AB
ENCODING 171
SWIDTH 375 0
DWIDTH 6 0
BBX 5 5 0 3
BITMAP
28
50
A0
50
28
ENDCHAR
STARTCHAR U+00AC
ENCODING 172
SWIDTH 375 0
DWIDTH 6 0
BBX 5 3 0 3
BITMAP
F8
08
08
ENDCHAR
STARTCHAR U+00AD
ENCODING 173
SWIDTH 375 0
DWIDTH 6 0
BBX 5 1 0 5
BITMAP
F8
ENDCHAR
STARTCHAR U+00AE
ENCODING 174
SWIDTH 750 0
DWIDTH 12 0
BBX 9 9 1 1
BITMAP
3E00
4100
BC80
A280
BC80
A480
A280
4100
3E00
ENDCHAR
STARTCHAR U+00AF
ENCODING 175
SWIDTH 375 0
DWIDTH 6 0
BBX 3 1 1 10
BITMAP
E0
ENDCHAR
STARTCHAR U+00B0
ENCODING 176
SWIDTH 375 0
DWIDTH 6 0
BBX 4 4 1 6
BITMAP
60
90
90
60
ENDCHAR
STARTCHAR U+00B1
ENCODING 177
SWIDTH 375 0
DWIDTH 6 0
BBX 5 7 0 1
BITMAP
20
20
F8
20
20
00
F8
ENDCHAR
STARTCHAR U+00B2
ENCODING 178
SWIDTH 375 0
DWIDTH 6 0
BBX 4 5 1 5
BITMAP
60
90
20
40
F0
ENDCHAR
STARTCHAR U+00B3
ENCODING 179
SWIDTH 375 0
DWIDTH 6 0
BBX 4 5 1 5
BITMAP
E0
10
60
10
E0
ENDCHAR
STARTCHAR U+00B4
ENCODING 180
SWIDTH 375 0
DWIDTH 6 0
BBX 2 2 2 10
BITMAP
40
80
ENDCHAR
STARTCHAR U+00B5
ENCODING 181
SWIDTH 375 0
DWIDTH 6 0
BBX 5 8 0 0
BITMAP
88
88
88
88
88
98
E8
80
ENDCHAR
STARTCHAR U+00B6
ENCODING 182
SWIDTH 375 0
DWIDTH 6 0
BBX 5 10 0 0
BITMAP
78
E8
E8
E8
68
28
28
28
28
28
ENDCHAR
STARTCHAR U+00B7
ENCODING 183
SWIDTH 375 0
DWIDTH 6 0
BBX 1 1 2 5
BITMAP
80
ENDCHAR
STARTCHAR U+00B8
ENCODING 184
SWIDTH 375 0
DWIDTH 6 0
BBX 4 4 1 0
BITMAP
40
60
10
E0
ENDCHAR
STARTCHAR U+00B9
ENCODING 185
SWIDTH 375 0
DWIDTH 6 0
BBX 2 5 2 5
BITMAP
40
C0
40
40
40
ENDCHAR
STARTCHAR U+00BA
ENCODING 186
SWIDTH 375 0
DWIDTH 6 0
BBX 4 5 1 5
BITMAP
60
90
90
90
60
ENDCHAR
STARTCHAR U+00BB
ENCODING 187
SWIDTH 375 0
DWIDTH 6 0
BBX 5 5 0 3
BITMAP
A0
50
28
50
A0
ENDCHAR
STARTCHAR U+00BC
ENCODING 188
SWIDTH 750 0
DWIDTH 12 0
BBX 10 9 1 1
BITMAP
4080
C100
4200
4400
4980
1280
2480
47C0
8080
ENDCHAR
STARTCHAR U+00BD
ENCODING 189
SWIDTH 750 0
DWIDTH 12 0
BBX 9 9 1 1
BITMAP
4080
C100
4200
4400
4B00
1480
2100
4200
8780
ENDCHAR
STARTCHAR U+00BE
ENCODING 190
SWIDTH 750 0
DWIDTH 12 0
BBX 10 9 1 1
BITMAP
E080
1100
6200
1400
E980
1280
2480
47C0
8080
ENDCHAR
STARTCHAR U+00BF
ENCODING 191
SWIDTH 375 0
DWIDTH 6 0
BBX 5 9 0 0
BITMAP
20
20
00
20
20
40
80
80
78
ENDCHAR
STARTCHAR U+00C0
ENCODING 192
SWIDTH 375 0
DWIDTH 6 0
BBX 5 11 0 1
BITMAP
40
20
00
70
88
88
88
F8
88
88
88
ENDCHAR
STARTCHAR U+00C1
ENCODING 193
SWIDTH 375 0
DWIDTH 6 0
BBX 5 11 0 1
BITMAP
10
20
00
70
88
88
88
F8
88
88
88
ENDCHAR
STARTCHAR U+00C2
ENCODING 194
SWIDTH 375 0
DWIDTH 6 0
BBX 5 11 0 1
BITMAP
20
50
00
70
88
88
88
F8
88
88
88
ENDCHAR
STARTCHAR U+00C3
ENCODING 195
SWIDTH 375 0
DWIDTH 6 0
BBX 5 11 0 1
BITMAP
68
90
00
70
88
88
88
F8
88
88
88
ENDCHAR
STARTCHAR U+00C4
ENCODING 196
SWIDTH 375 0
DWIDTH 6 0
BBX 5 11 0 1
BITMAP
50
00
70
88
88
88
F8
88
88
88
88
ENDCHAR
STARTCHAR U+00C5
ENCODING 197
SWIDTH 375 0
DWIDTH 6 0
BBX 5 11 0 1
BITMAP
20
50
70
88
88
88
F8
88
88
88
88
ENDCHAR
STARTCHAR U+00C6
ENCODING 198
SWIDTH 500 0
DWIDTH 8 0
BBX 7 9 0 1
BITMAP
7E
90
90
90
9E
F0
90
90
9E
ENDCHAR
STARTCHAR U+00C7
ENCODING 199
SWIDTH 375 0
DWIDTH 6 0
BBX 5 10 0 0
BITMAP
70
88
88
80
80
88
88
70
10
60
ENDCHAR
STARTCHAR U+00C8
ENCODING 200
SWIDTH 375 0
DWIDTH 6 0
BBX 5 11 0 1
BITMAP
40
20
00
78
80
80
F8
80
80
80
78
ENDCHAR
STARTCHAR U+00C9
ENCODING 201
SWIDTH 375 0
DWIDTH 6 0
BBX 5 11 0 1
BITMAP
10
20
00
78
80
80
F8
80
80
80
78
ENDCHAR
STARTCHAR U+00CA
ENCODING 202
SWIDTH 375 0
DWIDTH 6 0
BBX 5 11 0 1
BITMAP
20
50
00
78
80
80
F8
80
80
80
78
ENDCHAR
STARTCHAR U+00CB
ENCODING 203
SWIDTH 375 0
DWIDTH 6 0
BBX 5 11 0 1
BITMAP
50
00
78
80
80
80
F8
80
80
80
78
ENDCHAR
STARTCHAR U+00CC
ENCODING 204
SWIDTH 375 0
DWIDTH 6 0
BBX 5 11 0 1
BITMAP
40
20
00
F8
20
20
20
20
20
20
F8
ENDCHAR
STARTCHAR U+00CD
ENCODING 205
SWIDTH 375 0
DWIDTH 6 0
BBX 5 11 0 1
BITMAP
10
20
00
F8
20
20
20
20
20
20
F8
ENDCHAR
STARTCHAR U+00CE
ENCODING 206
SWIDTH 375 0
DWIDTH 6 0
BBX 5 11 0 1
BITMAP
20
50
00
F8
20
20
20
20
20
20
F8
ENDCHAR
STARTCHAR U+00CF
ENCODING 207
SWIDTH 375 0
DWIDTH 6 0
BBX 5 11 0 1
BITMAP
50
00
F8
20
20
20
20
20
20
20
F8
ENDCHAR
STARTCHAR U+00D0
ENCODING 208
SWIDTH 375 0
DWIDTH 6 0
BBX 5 9 0 1
BITMAP
70
48
48
48
E8
48
48
48
70
ENDCHAR
STARTCHAR U+00D1
ENCODING 209
SWIDTH 375 0
DWIDTH 6 0
BBX 5 11 0 1
BITMAP
68
90
00
88
88
C8
A8
98
88
88
88
ENDCHAR
STARTCHAR U+00D2
ENCODING 210
SWIDTH 375 0
DWIDTH 6 0
BBX 5 11 0 1
BITMAP
40
20
00
70
88
88
88
88
88
88
70
ENDCHAR
STARTCHAR U+00D3
ENCODING 211
SWIDTH 375 0
DWIDTH 6 0
BBX 5 11 0 1
BITMAP
10
20
00
70
88
88
88
88
88
88
70
ENDCHAR
STARTCHAR U+00D4
ENCODING 212
SWIDTH 375 0
DWIDTH 6 0
BBX 5 11 0 1
BITMAP
20
50
00
70
88
88
88
88
88
88
70
ENDCHAR
STARTCHAR U+00D5
ENCODING 213
SWIDTH 375 0
DWIDTH 6 0
BBX 5 11 0 1
BITMAP
68
90
00
70
88
88
88
88
88
88
70
ENDCHAR
STARTCHAR U+00D6
ENCODING 214
SWIDTH 375 0
DWIDTH 6 0
BBX 5 11 0 1
BITMAP
50
00
70
88
88
88
88
88
88
88
70
ENDCHAR
STARTCHAR U+00D7
ENCODING 215
SWIDTH 750 0
DWIDTH 12 0
BBX 7 7 2 2
BITMAP
82
44
28
10
28
44
82
ENDCHAR
STARTCHAR U+00D8
ENCODING 216
SWIDTH 375 0
DWIDTH 6 0
BBX 5 9 0 1
BITMAP
70
88
88
98
A8
C8
88
88
70
ENDCHAR
STARTCHAR U+00D9
ENCODING 217
SWIDTH 375 0
DWIDTH 6 0
BBX 5 11 0 1
BITMAP
40
20
88
88
88
88
88
88
88
88
70
ENDCHAR
STARTCHAR U+00DA
ENCODING 218
SWIDTH 375 0
DWIDTH 6 0
BBX 5 11 0 1
BITMAP
10
20
88
88
88
88
88
88
88
88
70
ENDCHAR
STARTCHAR U+00DB
ENCODING 219
SWIDTH 375 0
DWIDTH 6 0
BBX 5 11 0 1
BITMAP
68
90
00
88
88
88
88
88
88
88
70
ENDCHAR
STARTCHAR U+00DC
ENCODING 220
SWIDTH 375 0
DWIDTH 6 0
BBX 5 11 0 1
BITMAP
50
00
88
88
88
88
88
88
88
88
70
ENDCHAR
STARTCHAR U+00DD
ENCODING 221
SWIDTH 375 0
DWIDTH 6 0
BBX 5 11 0 1
BITMAP
10
20
88
88
88
50
50
20
20
20
20
ENDCHAR
STARTCHAR U+00DE
ENCODING 222
SWIDTH 375 0
DWIDTH 6 0
BBX 5 9 0 1
BITMAP
80
F0
88
88
88
88
88
F0
80
ENDCHAR
STARTCHAR U+00DF
ENCODING 223
SWIDTH 375 0
DWIDTH 6 0
BBX 5 9 0 1
BITMAP
70
88
88
90
90
88
88
88
B0
ENDCHAR
STARTCHAR U+00E0
ENCODING 224
SWIDTH 375 0
DWIDTH 6 0
BBX 5 10 0 1
BITMAP
40
20
00
70
08
78
88
88
88
78
ENDCHAR
STARTCHAR U+00E1
ENCODING 225
SWIDTH 375 0
DWIDTH 6 0
BBX 5 10 0 1
BITMAP
10
20
00
70
08
78
88
88
88
78
ENDCHAR
STARTCHAR U+00E2
ENCODING 226
SWIDTH 375 0
DWIDTH 6 0
BBX 5 10 0 1
BITMAP
20
50
00
70
08
78
88
88
88
78
ENDCHAR
STARTCHAR U+00E3
ENCODING 227
SWIDTH 375 0
DWIDTH 6 0
BBX 5 10 0 1
BITMAP
68
90
00
70
08
78
88
88
88
78
ENDCHAR
STARTCHAR U+00E4
ENCODING 228
SWIDTH 375 0
DWIDTH 6 0
BBX 5 9 0 1
BITMAP
50
00
70
08
78
88
88
88
78
ENDCHAR
STARTCHAR U+00E5
ENCODING 229
SWIDTH 375 0
DWIDTH 6 0
BBX 5 11 0 1
BITMAP
20
50
20
00
70
08
78
88
88
88
78
ENDCHAR
STARTCHAR U+00E6
ENCODING 230
SWIDTH 500 0
DWIDTH 8 0
BBX 7 7 0 1
BITMAP
6C
92
12
7C
90
92
6C
ENDCHAR
STARTCHAR U+00E7
ENCODING 231
SWIDTH 375 0
DWIDTH 6 0
BBX 5 8 0 0
BITMAP
70
88
80
80
88
70
10
60
ENDCHAR
STARTCHAR U+00E8
ENCODING 232
SWIDTH 375 0
DWIDTH 6 0
BBX 5 10 0 1
BITMAP
40
20
00
70
88
88
F0
80
88
70
ENDCHAR
STARTCHAR U+00E9
ENCODING 233
SWIDTH 375 0
DWIDTH 6 0
BBX 5 10 0 1
BITMAP
10
20
00
70
88
88
F0
80
88
70
ENDCHAR
STARTCHAR U+00EA
ENCODING 234
SWIDTH 375 0
DWIDTH 6 0
BBX 5 10 0 1
BITMAP
20
50
00
70
88
88
F0
80
88
70
ENDCHAR
STARTCHAR U+00EB
ENCODING 235
SWIDTH 375 0
DWIDTH 6 0
BBX 5 9 0 1
BITMAP
50
00
70
88
88
F0
80
88
70
ENDCHAR
STARTCHAR U+00EC
ENCODING 236
SWIDTH 375 0
DWIDTH 6 0
BBX 5 10 0 1
BITMAP
40
20
00
C0
20
20
20
20
20
F8
ENDCHAR
STARTCHAR U+00ED
ENCODING 237
SWIDTH 375 0
DWIDTH 6 0
BBX 5 10 0 1
BITMAP
10
20
00
C0
20
20
20
20
20
F8
ENDCHAR
STARTCHAR U+00EE
ENCODING 238
SWIDTH 375 0
DWIDTH 6 0
BBX 5 10 0 1
BITMAP
20
50
00
C0
20
20
20
20
20
F8
ENDCHAR
STARTCHAR U+00EF
ENCODING 239
SWIDTH 375 0
DWIDTH 6 0
BBX 5 9 0 1
BITMAP
50
00
C0
20
20
20
20
20
F8
ENDCHAR
STARTCHAR U+00F0
ENCODING 240
SWIDTH 375 0
DWIDTH 6 0
BBX 5 9 0 1
BITMAP
68
10
68
08
78
88
88
88
70
ENDCHAR
STARTCHAR U+00F1
ENCODING 241
SWIDTH 375 0
DWIDTH 6 0
BBX 5 9 0 1
BITMAP
50
00
B0
C8
88
88
88
88
88
ENDCHAR
STARTCHAR U+00F2
ENCODING 242
SWIDTH 375 0
DWIDTH 6 0
BBX 5 10 0 1
BITMAP
40
20
00
70
88
88
88
88
88
70
ENDCHAR
STARTCHAR U+00F3
ENCODING 243
SWIDTH 375 0
DWIDTH 6 0
BBX 5 10 0 1
BITMAP
10
20
00
70
88
88
88
88
88
70
ENDCHAR
STARTCHAR U+00F4
ENCODING 244
SWIDTH 375 0
DWIDTH 6 0
BBX 5 10 0 1
BITMAP
20
50
00
70
88
88
88
88
88
70
ENDCHAR
STARTCHAR U+00F5
ENCODING 245
SWIDTH 375 0
DWIDTH 6 0
BBX 5 10 0 1
BITMAP
68
90
00
70
88
88
88
88
88
70
ENDCHAR
STARTCHAR U+00F6
ENCODING 246
SWIDTH 375 0
DWIDTH 6 0
BBX 5 9 0 1
BITMAP
50
00
70
88
88
88
88
88
70
ENDCHAR
STARTCHAR U+00F7
ENCODING 247
SWIDTH 750 0
DWIDTH 12 0
BBX 7 7 2 2
BITMAP
10
00
00
FE
00
00
10
ENDCHAR
STARTCHAR U+00F8
ENCODING 248
SWIDTH 375 0
DWIDTH 6 0
BBX 5 7 0 1
BITMAP
70
88
98
A8
C8
88
70
ENDCHAR
STARTCHAR U+00F9
ENCODING 249
SWIDTH 375 0
DWIDTH 6 0
BBX 5 10 0 1
BITMAP
40
20
00
88
88
88
88
88
98
68
ENDCHAR
STARTCHAR U+00FA
ENCODING 250
SWIDTH 375 0
DWIDTH 6 0
BBX 5 10 0 1
BITMAP
10
20
00
88
88
88
88
88
98
68
ENDCHAR
STARTCHAR U+00FB
ENCODING 251
SWIDTH 375 0
DWIDTH 6 0
BBX 5 10 0 1
BITMAP
20
50
00
88
88
88
88
88
98
68
ENDCHAR
STARTCHAR U+00FC
ENCODING 252
SWIDTH 375 0
DWIDTH 6 0
BBX 5 9 0 1
BITMAP
50
00
88
88
88
88
88
98
68
ENDCHAR
STARTCHAR U+00FD
ENCODING 253
SWIDTH 375 0
DWIDTH 6 0
BBX 5 11 0 0
BITMAP
10
20
00
88
88
88
88
78
08
08
F0
ENDCHAR
STARTCHAR U+00FE
ENCODING 254
SWIDTH 375 0
DWIDTH 6 0
BBX 5 10 0 0
BITMAP
80
80
B0
C8
88
88
88
C8
B0
80
ENDCHAR
STARTCHAR U+00FF
ENCODING 255
SWIDTH 375 0
DWIDTH 6 0
BBX 5 10 0 0
BITMAP
50
00
88
88
88
88
78
08
08
F0
ENDCHAR
STARTCHAR U+0111
ENCODING 273
SWIDTH 375 0
DWIDTH 6 0
BBX 5 9 0 1
BITMAP
10
78
10
70
90
90
90
90
70
ENDCHAR
STARTCHAR U+0126
ENCODING 294
SWIDTH 375 0
DWIDTH 6 0
BBX 6 9 0 1
BITMAP
48
48
FC
48
78
48
48
48
48
ENDCHAR
STARTCHAR U+0127
ENCODING 295
SWIDTH 375 0
DWIDTH 6 0
BBX 5 9 0 1
BITMAP
40
F0
40
70
48
48
48
48
48
ENDCHAR
STARTCHAR U+0131
ENCODING 305
SWIDTH 375 0
DWIDTH 6 0
BBX 5 7 0 1
BITMAP
C0
20
20
20
20
20
F8
ENDCHAR
STARTCHAR U+0132
ENCODING 306
SWIDTH 500 0
DWIDTH 8 0
BBX 7 9 0 1
BITMAP
E2
42
42
42
42
52
52
52
EC
ENDCHAR
STARTCHAR U+0133
ENCODING 307
SWIDTH 500 0
DWIDTH 8 0
BBX 7 10 0 0
BITMAP
66
00
CC
22
22
22
22
FA
02
1C
ENDCHAR
STARTCHAR U+0138
ENCODING 312
SWIDTH 375 0
DWIDTH 6 0
BBX 5 7 0 1
BITMAP
88
90
A0
C0
A0
90
88
ENDCHAR
STARTCHAR U+013F
ENCODING 319
SWIDTH 375 0
DWIDTH 6 0
BBX 5 9 0 1
BITMAP
80
80
80
80
A0
80
80
80
78
ENDCHAR
STARTCHAR U+0140
ENCODING 320
SWIDTH 375 0
DWIDTH 6 0
BBX 5 9 0 1
BITMAP
C0
20
20
20
28
20
20
20
F8
ENDCHAR
STARTCHAR U+0141
ENCODING 321
SWIDTH 375 0
DWIDTH 6 0
BBX 5 9 0 1
BITMAP
40
40
50
60
C0
40
40
40
38
ENDCHAR
STARTCHAR U+0142
ENCODING 322
SWIDTH 375 0
DWIDTH 6 0
BBX 5 9 0 1
BITMAP
C0
20
28
30
60
A0
20
20
F8
ENDCHAR
STARTCHAR U+0149
ENCODING 329
SWIDTH 375 0
DWIDTH 6 0
BBX 5 10 0 1
BITMAP
40
80
00
70
48
48
48
48
48
48
ENDCHAR
STARTCHAR U+014A
ENCODING 330
SWIDTH 375 0
DWIDTH 6 0
BBX 5 10 0 0
BITMAP
88
88
C8
A8
98
88
88
88
08
30
ENDCHAR
STARTCHAR U+014B
ENCODING 331
SWIDTH 375 0
DWIDTH 6 0
BBX 5 8 0 0
BITMAP
B0
C8
88
88
88
88
08
30
ENDCHAR
STARTCHAR U+0152
ENCODING 338
SWIDTH 500 0
DWIDTH 8 0
BBX 7 9 0 1
BITMAP
6E
90
90
90
9E
90
90
90
6E
ENDCHAR
STARTCHAR U+0153
ENCODING 339
SWIDTH 500 0
DWIDTH 8 0
BBX 7 7 0 1
BITMAP
6C
92
92
9C
90
92
6C
ENDCHAR
STARTCHAR U+0160
ENCODING 352
SWIDTH 375 0
DWIDTH 6 0
BBX 5 11 0 1
BITMAP
50
20
78
80
80
80
70
08
08
08
F0
ENDCHAR
STARTCHAR U+0161
ENCODING 353
SWIDTH 375 0
DWIDTH 6 0
BBX 5 10 0 1
BITMAP
50
20
00
78
80
80
70
08
08
F0
ENDCHAR
STARTCHAR U+0166
ENCODING 358
SWIDTH 375 0
DWIDTH 6 0
BBX 5 9 0 1
BITMAP
F8
20
20
20
70
20
20
20
20
ENDCHAR
STARTCHAR U+0167
ENCODING 359
SWIDTH 375 0
DWIDTH 6 0
BBX 5 9 0 1
BITMAP
40
40
F8
40
F8
40
40
40
38
ENDCHAR
STARTCHAR U+0178
ENCODING 376
SWIDTH 375 0
DWIDTH 6 0
BBX 5 11 0 1
BITMAP
50
00
88
88
88
50
50
20
20
20
20
ENDCHAR
STARTCHAR U+017D
ENCODING 381
SWIDTH 375 0
DWIDTH 6 0
BBX 5 11 0 1
BITMAP
50
20
F8
08
10
20
40
40
80
80
F8
ENDCHAR
STARTCHAR U+017E
ENCODING 382
SWIDTH 375 0
DWIDTH 6 0
BBX 5 10 0 1
BITMAP
50
20
00
F8
08
10
20
40
80
F8
ENDCHAR
STARTCHAR U+0192
ENCODING 402
SWIDTH 375 0
DWIDTH 6 0
BBX 5 10 0 0
BITMAP
18
20
20
F8
20
20
20
20
20
C0
ENDCHAR
STARTCHAR U+02C7
ENCODING 711
SWIDTH 375 0
DWIDTH 6 0
BBX 3 2 1 10
BITMAP
A0
40
ENDCHAR
STARTCHAR U+02D0
ENCODING 720
SWIDTH 375 0
DWIDTH 6 0
BBX 3 7 1 1
BITMAP
E0
40
00
00
00
40
E0
ENDCHAR
STARTCHAR U+02D8
ENCODING 728
SWIDTH 375 0
DWIDTH 6 0
BBX 4 2 1 10
BITMAP
90
60
ENDCHAR
STARTCHAR U+02D9
ENCODING 729
SWIDTH 375 0
DWIDTH 6 0
BBX 1 1 2 11
BITMAP
80
ENDCHAR
STARTCHAR U+02DA
ENCODING 730
SWIDTH 375 0
DWIDTH 6 0
BBX 3 3 1 9
BITMAP
40
A0
40
ENDCHAR
STARTCHAR U+02DB
ENCODING 731
SWIDTH 375 0
DWIDTH 6 0
BBX 4 3 1 0
BITMAP
60
80
70
ENDCHAR
STARTCHAR U+02DD
ENCODING 733
SWIDTH 375 0
DWIDTH 6 0
BBX 4 2 1 10
BITMAP
50
A0
ENDCHAR
STARTCHAR U+0391
ENCODING 913
SWIDTH 750 0
DWIDTH 12 0
BBX 9 9 1 1
BITMAP
0800
1400
2200
2200
4100
7F00
8080
8080
8080
ENDCHAR
STARTCHAR U+0392
ENCODING 914
SWIDTH 750 0
DWIDTH 12 0
BBX 9 9 1 1
BITMAP
FF00
8080
8080
8080
FF00
8080
8080
8080
FF00
ENDCHAR
STARTCHAR U+0393
ENCODING 915
SWIDTH 750 0
DWIDTH 12 0
BBX 9 9 1 1
BITMAP
FF80
8000
8000
8000
8000
8000
8000
8000
8000
ENDCHAR
STARTCHAR U+0394
ENCODING 916
SWIDTH 750 0
DWIDTH 12 0
BBX 9 9 1 1
BITMAP
0800
1400
1400
2200
2200
4100
4100
8080
FF80
ENDCHAR
STARTCHAR U+0395
ENCODING 917
SWIDTH 750 0
DWIDTH 12 0
BBX 9 9 1 1
BITMAP
FF80
8000
8000
8000
FF00
8000
8000
8000
FF80
ENDCHAR
STARTCHAR U+0396
ENCODING 918
SWIDTH 750 0
DWIDTH 12 0
BBX 9 9 1 1
BITMAP
FF80
0100
0200
0400
0800
1000
2000
4000
FF80
ENDCHAR
STARTCHAR U+0397
ENCODING 919
SWIDTH 750 0
DWIDTH 12 0
BBX 9 9 1 1
BITMAP
8080
8080
8080
8080
FF80
8080
8080
8080
8080
ENDCHAR
STARTCHAR U+0398
ENCODING 920
SWIDTH 750 0
DWIDTH 12 0
BBX 9 9 1 1
BITMAP
3E00
4100
8080
8080
9C80
8080
8080
4100
3E00
ENDCHAR
STARTCHAR U+0399
ENCODING 921
SWIDTH 750 0
DWIDTH 12 0
BBX 7 9 2 1
BITMAP
FE
10
10
10
10
10
10
10
FE
ENDCHAR
STARTCHAR U+039A
ENCODING 922
SWIDTH 750 0
DWIDTH 12 0
BBX 9 9 1 1
BITMAP
8180
8600
9800
A000
C000
A000
9800
8600
8180
ENDCHAR
STARTCHAR U+039B
ENCODING 923
SWIDTH 750 0
DWIDTH 12 0
BBX 9 9 1 1
BITMAP
0800
1400
2200
2200
4100
4100
8080
8080
8080
ENDCHAR
STARTCHAR U+039C
ENCODING 924
SWIDTH 750 0
DWIDTH 12 0
BBX 9 9 1 1
BITMAP
8080
C180
A280
9480
8880
8080
8080
8080
8080
ENDCHAR
STARTCHAR U+039D
ENCODING 925
SWIDTH 750 0
DWIDTH 12 0
BBX 9 9 1 1
BITMAP
8080
C080
A080
9080
8880
8480
8280
8180
8080
ENDCHAR
STARTCHAR U+039E
ENCODING 926
SWIDTH 750 0
DWIDTH 12 0
BBX 9 9 1 1
BITMAP
FF80
0000
0000
0000
7F00
0000
0000
0000
FF80
ENDCHAR
STARTCHAR U+039F
ENCODING 927
SWIDTH 750 0
DWIDTH 12 0
BBX 9 9 1 1
BITMAP
3E00
4100
8080
8080
8080
8080
8080
4100
3E00
ENDCHAR
STARTCHAR U+03A0
ENCODING 928
SWIDTH 750 0
DWIDTH 12 0
BBX 9 9 1 1
BITMAP
FF80
8080
8080
8080
8080
8080
8080
8080
8080
ENDCHAR
STARTCHAR U+03A1
ENCODING 929
SWIDTH 750 0
DWIDTH 12 0
BBX 9 9 1 1
BITMAP
FF00
8080
8080
8080
FF00
8000
8000
8000
8000
ENDCHAR
STARTCHAR U+03A3
ENCODING 931
SWIDTH 750 0
DWIDTH 12 0
BBX 9 9 1 1
BITMAP
FF80
4000
2000
1000
0800
1000
2000
4000
FF80
ENDCHAR
STARTCHAR U+03A4
ENCODING 932
SWIDTH 750 0
DWIDTH 12 0
BBX 9 9 1 1
BITMAP
FF80
0800
0800
0800
0800
0800
0800
0800
0800
ENDCHAR
STARTCHAR U+03A5
ENCODING 933
SWIDTH 750 0
DWIDTH 12 0
BBX 9 9 1 1
BITMAP
8080
4100
2200
1400
0800
0800
0800
0800
0800
ENDCHAR
STARTCHAR U+03A6
ENCODING 934
SWIDTH 750 0
DWIDTH 12 0
BBX 9 9 1 1
BITMAP
0800
3E00
4900
8880
8880
8880
4900
3E00
0800
ENDCHAR
STARTCHAR U+03A7
ENCODING 935
SWIDTH 750 0
DWIDTH 12 0
BBX 9 9 1 1
BITMAP
8080
4100
2200
1400
0800
1400
2200
4100
8080
ENDCHAR
STARTCHAR U+03A8
ENCODING 936
SWIDTH 750 0
DWIDTH 12 0
BBX 9 9 1 1
BITMAP
8880
8880
8880
8880
8880
4900
3E00
0800
0800
ENDCHAR
STARTCHAR U+03A9
ENCODING 937
SWIDTH 750 0
DWIDTH 12 0
BBX 9 9 1 1
BITMAP
3E00
4100
8080
8080
8080
8080
4100
2200
F780
ENDCHAR
STARTCHAR U+03B1
ENCODING 945
SWIDTH 750 0
DWIDTH 12 0
BBX 9 7 1 1
BITMAP
7C80
8280
8100
8100
8100
8280
7C80
ENDCHAR
STARTCHAR U+03B2
ENCODING 946
SWIDTH 750 0
DWIDTH 12 0
BBX 9 10 1 0
BITMAP
7E00
8100
8100
8100
BE00
8100
8080
8080
BF00
8000
ENDCHAR
STARTCHAR U+03B3
ENCODING 947
SWIDTH 750 0
DWIDTH 12 0
BBX 9 8 1 0
BITMAP
C080
2100
1200
1400
0800
0800
0800
0800
ENDCHAR
STARTCHAR U+03B4
ENCODING 948
SWIDTH 750 0
DWIDTH 12 0
BBX 9 9 1 1
BITMAP
3E00
4100
4000
3E00
4100
8080
8080
8080
7F00
ENDCHAR
STARTCHAR U+03B5
ENCODING 949
SWIDTH 750 0
DWIDTH 12 0
BBX 9 7 1 1
BITMAP
7F00
8080
8000
FE00
8000
8080
7F00
ENDCHAR
STARTCHAR U+03B6
ENCODING 950
SWIDTH 750 0
DWIDTH 12 0
BBX 9 10 1 0
BITMAP
FF80
0300
0C00
3000
4000
8000
8000
7F00
0080
0300
ENDCHAR
STARTCHAR U+03B7
ENCODING 951
SWIDTH 750 0
DWIDTH 12 0
BBX 9 8 1 0
BITMAP
BE00
C100
8080
8080
8080
8080
8080
0080
ENDCHAR
STARTCHAR U+03B8
ENCODING 952
SWIDTH 750 0
DWIDTH 12 0
BBX 9 9 1 1
BITMAP
3E00
4100
8080
8080
FF80
8080
8080
4100
3E00
ENDCHAR
STARTCHAR U+03B9
ENCODING 953
SWIDTH 750 0
DWIDTH 12 0
BBX 7 7 2 1
BITMAP
F0
10
10
10
10
10
0E
ENDCHAR
STARTCHAR U+03BA
ENCODING 954
SWIDTH 750 0
DWIDTH 12 0
BBX 9 7 1 1
BITMAP
8180
8600
9800
E000
9800
8600
8180
ENDCHAR
STARTCHAR U+03BB
ENCODING 955
SWIDTH 750 0
DWIDTH 12 0
BBX 9 9 1 1
BITMAP
C000
2000
1000
0800
0800
1400
2200
4100
8080
ENDCHAR
STARTCHAR U+03BC
ENCODING 956
SWIDTH 750 0
DWIDTH 12 0
BBX 9 8 1 0
BITMAP
8080
8080
8080
8080
8080
C180
BE80
8000
ENDCHAR
STARTCHAR U+03BD
ENCODING 957
SWIDTH 750 0
DWIDTH 12 0
BBX 9 7 1 1
BITMAP
C080
2080
2100
1100
1200
1400
0800
ENDCHAR
STARTCHAR U+03BE
ENCODING 958
SWIDTH 750 0
DWIDTH 12 0
BBX 9 10 1 0
BITMAP
3F80
4000
4000
7F00
8000
8000
8000
7F00
0080
0300
ENDCHAR
STARTCHAR U+03BF
ENCODING 959
SWIDTH 750 0
DWIDTH 12 0
BBX 9 7 1 1
BITMAP
7F00
8080
8080
8080
8080
8080
7F00
ENDCHAR
STARTCHAR U+03C0
ENCODING 960
SWIDTH 750 0
DWIDTH 12 0
BBX 10 7 1 1
BITMAP
FF80
4200
4200
4200
4200
4240
8180
ENDCHAR
STARTCHAR U+03C1
ENCODING 961
SWIDTH 750 0
DWIDTH 12 0
BBX 9 8 1 0
BITMAP
7F00
8080
8080
8080
8080
FF00
8000
8000
ENDCHAR
STARTCHAR U+03C3
ENCODING 963
SWIDTH 750 0
DWIDTH 12 0
BBX 10 7 1 1
BITMAP
7FC0
8100
8080
8080
8080
8080
7F00
ENDCHAR
STARTCHAR U+03C4
ENCODING 964
SWIDTH 750 0
DWIDTH 12 0
BBX 9 7 1 1
BITMAP
FF80
0800
0800
0800
0800
0800
0700
ENDCHAR
STARTCHAR U+03C5
ENCODING 965
SWIDTH 750 0
DWIDTH 12 0
BBX 9 7 1 1
BITMAP
8100
8080
8080
8080
8080
4100
3E00
ENDCHAR
STARTCHAR U+03C6
ENCODING 966
SWIDTH 750 0
DWIDTH 12 0
BBX 9 8 1 0
BITMAP
2600
4900
8880
8880
8880
4900
3E00
0800
ENDCHAR
STARTCHAR U+03C7
ENCODING 967
SWIDTH 750 0
DWIDTH 12 0
BBX 9 7 1 1
BITMAP
C180
2200
1400
0800
1400
2200
C180
ENDCHAR
STARTCHAR U+03C8
ENCODING 968
SWIDTH 750 0
DWIDTH 12 0
BBX 9 8 1 0
BITMAP
8900
8880
8880
8880
8880
4900
3E00
0800
ENDCHAR
STARTCHAR U+03C9
ENCODING 969
SWIDTH 750 0
DWIDTH 12 0
BBX 9 7 1 1
BITMAP
6300
8080
8880
8880
8880
8880
7700
ENDCHAR
STARTCHAR U+0401
ENCODING 1025
SWIDTH 750 0
DWIDTH 12 0
BBX 9 11 1 1
BITMAP
2200
0000
FF80
8000
8000
8000
FF00
8000
8000
8000
FF80
ENDCHAR
STARTCHAR U+0410
ENCODING 1040
SWIDTH 750 0
DWIDTH 12 0
BBX 9 9 1 1
BITMAP
0800
1400
2200
2200
4100
7F00
8080
8080
8080
ENDCHAR
STARTCHAR U+0411
ENCODING 1041
SWIDTH 750 0
DWIDTH 12 0
BBX 9 9 1 1
BITMAP
FF00
8000
8000
8000
FF00
8080
8080
8080
FF00
ENDCHAR
STARTCHAR U+0412
ENCODING 1042
SWIDTH 750 0
DWIDTH 12 0
BBX 9 9 1 1
BITMAP
FF00
8080
8080
8080
FF00
8080
8080
8080
FF00
ENDCHAR
STARTCHAR U+0413
ENCODING 1043
SWIDTH 750 0
DWIDTH 12 0
BBX 9 9 1 1
BITMAP
FF80
8000
8000
8000
8000
8000
8000
8000
8000
ENDCHAR
STARTCHAR U+0414
ENCODING 1044
SWIDTH 750 0
DWIDTH 12 0
BBX 9 10 1 0
BITMAP
7F00
4100
4100
4100
4100
4100
4100
8100
FF80
8080
ENDCHAR
STARTCHAR U+0415
ENCODING 1045
SWIDTH 750 0
DWIDTH 12 0
BBX 9 9 1 1
BITMAP
FF80
8000
8000
8000
FF00
8000
8000
8000
FF80
ENDCHAR
STARTCHAR U+0416
ENCODING 1046
SWIDTH 750 0
DWIDTH 12 0
BBX 9 9 1 1
BITMAP
8880
4900
4900
2A00
1C00
2A00
4900
4900
8880
ENDCHAR
STARTCHAR U+0417
ENCODING 1047
SWIDTH 750 0
DWIDTH 12 0
BBX 9 9 1 1
BITMAP
7F00
8080
8080
0100
1E00
0100
8080
8080
7F00
ENDCHAR
STARTCHAR U+0418
ENCODING 1048
SWIDTH 750 0
DWIDTH 12 0
BBX 9 9 1 1
BITMAP
8080
8180
8280
8480
8880
9080
A080
C080
8080
ENDCHAR
STARTCHAR U+0419
ENCODING 1049
SWIDTH 750 0
DWIDTH 12 0
BBX 9 11 1 1
BITMAP
2200
1C00
8080
8180
8280
8480
8880
9080
A080
C080
8080
ENDCHAR
STARTCHAR U+041A
ENCODING 1050
SWIDTH 750 0
DWIDTH 12 0
BBX 9 9 1 1
BITMAP
8180
8600
8800
9000
E000
9800
8400
8200
8180
ENDCHAR
STARTCHAR U+041B
ENCODING 1051
SWIDTH 750 0
DWIDTH 12 0
BBX 10 9 0 1
BITMAP
3FC0
2040
2040
2040
2040
2040
2040
2040
C040
ENDCHAR
STARTCHAR U+041C
ENCODING 1052
SWIDTH 750 0
DWIDTH 12 0
BBX 9 9 1 1
BITMAP
8080
C180
A280
9480
8880
8080
8080
8080
8080
ENDCHAR
STARTCHAR U+041D
ENCODING 1053
SWIDTH 750 0
DWIDTH 12 0
BBX 9 9 1 1
BITMAP
8080
8080
8080
8080
FF80
8080
8080
8080
8080
ENDCHAR
STARTCHAR U+041E
ENCODING 1054
SWIDTH 750 0
DWIDTH 12 0
BBX 9 9 1 1
BITMAP
3E00
4100
8080
8080
8080
8080
8080
4100
3E00
ENDCHAR
STARTCHAR U+041F
ENCODING 1055
SWIDTH 750 0
DWIDTH 12 0
BBX 9 9 1 1
BITMAP
FF80
8080
8080
8080
8080
8080
8080
8080
8080
ENDCHAR
STARTCHAR U+0420
ENCODING 1056
SWIDTH 750 0
DWIDTH 12 0
BBX 9 9 1 1
BITMAP
FF00
8080
8080
8080
FF00
8000
8000
8000
8000
ENDCHAR
STARTCHAR U+0421
ENCODING 1057
SWIDTH 750 0
DWIDTH 12 0
BBX 9 9 1 1
BITMAP
3E00
4100
8080
8000
8000
8000
8080
4100
3E00
ENDCHAR
STARTCHAR U+0422
ENCODING 1058
SWIDTH 750 0
DWIDTH 12 0
BBX 9 9 1 1
BITMAP
FF80
0800
0800
0800
0800
0800
0800
0800
0800
ENDCHAR
STARTCHAR U+0423
ENCODING 1059
SWIDTH 750 0
DWIDTH 12 0
BBX 9 9 1 1
BITMAP
8080
8080
4100
4100
2200
1400
0800
3000
C000
ENDCHAR
STARTCHAR U+0424
ENCODING 1060
SWIDTH 750 0
DWIDTH 12 0
BBX 9 9 1 1
BITMAP
0800
3E00
4900
8880
8880
8880
4900
3E00
0800
ENDCHAR
STARTCHAR U+0425
ENCODING 1061
SWIDTH 750 0
DWIDTH 12 0
BBX 9 9 1 1
BITMAP
8080
4100
2200
1400
0800
1400
2200
4100
8080
ENDCHAR
STARTCHAR U+0426
ENCODING 1062
SWIDTH 750 0
DWIDTH 12 0
BBX 9 10 1 0
BITMAP
8100
8100
8100
8100
8100
8100
8100
8100
FF80
0080
ENDCHAR
STARTCHAR U+0427
ENCODING 1063
SWIDTH 750 0
DWIDTH 12 0
BBX 9 9 1 1
BITMAP
8080
8080
8080
8080
4180
3E80
0080
0080
0080
ENDCHAR
STARTCHAR U+0428
ENCODING 1064
SWIDTH 750 0
DWIDTH 12 0
BBX 9 9 1 1
BITMAP
8880
8880
8880
8880
8880
8880
8880
8880
FF80
ENDCHAR
STARTCHAR U+0429
ENCODING 1065
SWIDTH 750 0
DWIDTH 12 0
BBX 10 10 1 0
BITMAP
8880
8880
8880
8880
8880
8880
8880
8880
FFC0
0040
ENDCHAR
STARTCHAR U+042A
ENCODING 1066
SWIDTH 750 0
DWIDTH 12 0
BBX 9 9 1 1
BITMAP
C000
4000
4000
7F00
4080
4080
4080
4080
7F00
ENDCHAR
STARTCHAR U+042B
ENCODING 1067
SWIDTH 750 0
DWIDTH 12 0
BBX 9 9 1 1
BITMAP
8080
8080
8080
FC80
8280
8280
8280
8280
FC80
ENDCHAR
STARTCHAR U+042C
ENCODING 1068
SWIDTH 750 0
DWIDTH 12 0
BBX 9 9 1 1
BITMAP
8000
8000
8000
FF00
8080
8080
8080
8080
FF00
ENDCHAR
STARTCHAR U+042D
ENCODING 1069
SWIDTH 750 0
DWIDTH 12 0
BBX 9 9 1 1
BITMAP
7E00
8100
0080
0080
3F80
0080
0080
8100
7E00
ENDCHAR
STARTCHAR U+042E
ENCODING 1070
SWIDTH 750 0
DWIDTH 12 0
BBX 9 9 1 1
BITMAP
8F00
9080
9080
9080
F080
9080
9080
9080
8F00
ENDCHAR
STARTCHAR U+042F
ENCODING 1071
SWIDTH 750 0
DWIDTH 12 0
BBX 9 9 1 1
BITMAP
7F80
8080
8080
8080
7F80
1080
2080
4080
8080
ENDCHAR
STARTCHAR U+0430
ENCODING 1072
SWIDTH 750 0
DWIDTH 12 0
BBX 9 7 1 1
BITMAP
7F00
0080
7F80
8080
8080
8180
7E80
ENDCHAR
STARTCHAR U+0431
ENCODING 1073
SWIDTH 750 0
DWIDTH 12 0
BBX 9 9 1 1
BITMAP
0100
7E00
8000
8000
FF00
8080
8080
8080
7F00
ENDCHAR
STARTCHAR U+0432
ENCODING 1074
SWIDTH 750 0
DWIDTH 12 0
BBX 9 7 1 1
BITMAP
FF00
8080
8080
FF00
8080
8080
FF00
ENDCHAR
STARTCHAR U+0433
ENCODING 1075
SWIDTH 750 0
DWIDTH 12 0
BBX 9 7 1 1
BITMAP
FF80
8000
8000
8000
8000
8000
8000
ENDCHAR
STARTCHAR U+0434
ENCODING 1076
SWIDTH 750 0
DWIDTH 12 0
BBX 9 8 1 0
BITMAP
7F00
4100
4100
4100
4100
8100
FF80
8080
ENDCHAR
STARTCHAR U+0435
ENCODING 1077
SWIDTH 750 0
DWIDTH 12 0
BBX 9 7 1 1
BITMAP
7F00
8080
8080
FF80
8000
8080
7F00
ENDCHAR
STARTCHAR U+0436
ENCODING 1078
SWIDTH 750 0
DWIDTH 12 0
BBX 9 7 1 1
BITMAP
8880
4900
2A00
1C00
2A00
4900
8880
ENDCHAR
STARTCHAR U+0437
ENCODING 1079
SWIDTH 750 0
DWIDTH 12 0
BBX 9 7 1 1
BITMAP
7F00
8080
0080
3F00
0080
8080
7F00
ENDCHAR
STARTCHAR U+0438
ENCODING 1080
SWIDTH 750 0
DWIDTH 12 0
BBX 9 7 1 1
BITMAP
8180
8280
8480
8880
9080
A080
C080
ENDCHAR
STARTCHAR U+0439
ENCODING 1081
SWIDTH 750 0
DWIDTH 12 0
BBX 9 10 1 1
BITMAP
2200
1C00
0000
8180
8280
8480
8880
9080
A080
C080
ENDCHAR
STARTCHAR U+043A
ENCODING 1082
SWIDTH 750 0
DWIDTH 12 0
BBX 9 7 1 1
BITMAP
8380
8C00
9000
E000
9800
8400
8380
ENDCHAR
STARTCHAR U+043B
ENCODING 1083
SWIDTH 750 0
DWIDTH 12 0
BBX 10 7 0 1
BITMAP
3FC0
2040
2040
2040
2040
2040
C040
ENDCHAR
STARTCHAR U+043C
ENCODING 1084
SWIDTH 750 0
DWIDTH 12 0
BBX 9 7 1 1
BITMAP
8080
C180
A280
9480
8880
8080
8080
ENDCHAR
STARTCHAR U+043D
ENCODING 1085
SWIDTH 750 0
DWIDTH 12 0
BBX 9 7 1 1
BITMAP
8080
8080
8080
FF80
8080
8080
8080
ENDCHAR
STARTCHAR U+043E
ENCODING 1086
SWIDTH 750 0
DWIDTH 12 0
BBX 9 7 1 1
BITMAP
7F00
8080
8080
8080
8080
8080
7F00
ENDCHAR
STARTCHAR U+043F
ENCODING 1087
SWIDTH 750 0
DWIDTH 12 0
BBX 9 7 1 1
BITMAP
FF80
8080
8080
8080
8080
8080
8080
ENDCHAR
STARTCHAR U+0440
ENCODING 1088
SWIDTH 750 0
DWIDTH 12 0
BBX 9 8 1 0
BITMAP
FF00
8080
8080
8080
8080
FF00
8000
8000
ENDCHAR
STARTCHAR U+0441
ENCODING 1089
SWIDTH 750 0
DWIDTH 12 0
BBX 9 7 1 1
BITMAP
7F00
8080
8000
8000
8000
8080
7F00
ENDCHAR
STARTCHAR U+0442
ENCODING 1090
SWIDTH 750 0
DWIDTH 12 0
BBX 9 7 1 1
BITMAP
FF80
0800
0800
0800
0800
0800
0800
ENDCHAR
STARTCHAR U+0443
ENCODING 1091
SWIDTH 750 0
DWIDTH 12 0
BBX 9 8 1 0
BITMAP
8080
8080
4100
2200
1400
0800
3000
C000
ENDCHAR
STARTCHAR U+0444
ENCODING 1092
SWIDTH 750 0
DWIDTH 12 0
BBX 9 10 1 0
BITMAP
0800
0800
7F00
8880
8880
8880
8880
8880
7F00
0800
ENDCHAR
STARTCHAR U+0445
ENCODING 1093
SWIDTH 750 0
DWIDTH 12 0
BBX 9 7 1 1
BITMAP
C180
2200
1400
0800
1400
2200
C180
ENDCHAR
STARTCHAR U+0446
ENCODING 1094
SWIDTH 750 0
DWIDTH 12 0
BBX 9 8 1 0
BITMAP
8100
8100
8100
8100
8100
8100
FF80
0080
ENDCHAR
STARTCHAR U+0447
ENCODING 1095
SWIDTH 750 0
DWIDTH 12 0
BBX 9 7 1 1
BITMAP
8080
8080
8080
4180
3E80
0080
0080
ENDCHAR
STARTCHAR U+0448
ENCODING 1096
SWIDTH 750 0
DWIDTH 12 0
BBX 9 7 1 1
BITMAP
8880
8880
8880
8880
8880
8880
FF80
ENDCHAR
STARTCHAR U+0449
ENCODING 1097
SWIDTH 750 0
DWIDTH 12 0
BBX 10 8 1 0
BITMAP
8880
8880
8880
8880
8880
8880
FFC0
0040
ENDCHAR
STARTCHAR U+044A
ENCODING 1098
SWIDTH 750 0
DWIDTH 12 0
BBX 9 7 1 1
BITMAP
C000
4000
7F00
4080
4080
4080
7F00
ENDCHAR
STARTCHAR U+044B
ENCODING 1099
SWIDTH 750 0
DWIDTH 12 0
BBX 9 7 1 1
BITMAP
8080
8080
FC80
8280
8280
8280
FC80
ENDCHAR
STARTCHAR U+044C
ENCODING 1100
SWIDTH 750 0
DWIDTH 12 0
BBX 9 7 1 1
BITMAP
8000
8000
FF00
8080
8080
8080
FF00
ENDCHAR
STARTCHAR U+044D
ENCODING 1101
SWIDTH 750 0
DWIDTH 12 0
BBX 9 7 1 1
BITMAP
7F00
8080
0080
3F80
0080
8080
7F00
ENDCHAR
STARTCHAR U+044E
ENCODING 1102
SWIDTH 750 0
DWIDTH 12 0
BBX 9 7 1 1
BITMAP
8F00
9080
9080
F080
9080
9080
8F00
ENDCHAR
STARTCHAR U+044F
ENCODING 1103
SWIDTH 750 0
DWIDTH 12 0
BBX 9 7 1 1
BITMAP
7F80
8080
8080
8080
7F80
4080
8080
ENDCHAR
STARTCHAR U+0451
ENCODING 1105
SWIDTH 750 0
DWIDTH 12 0
BBX 9 9 1 1
BITMAP
2200
0000
7F00
8080
8080
FF80
8000
8080
7F00
ENDCHAR
STARTCHAR U+2000
ENCODING 8192
SWIDTH 375 0
DWIDTH 6 0
BBX 0 0 0 0
BITMAP
ENDCHAR
STARTCHAR U+2001
ENCODING 8193
SWIDTH 750 0
DWIDTH 12 0
BBX 0 0 0 0
BITMAP
ENDCHAR
STARTCHAR U+2002
ENCODING 8194
SWIDTH 375 0
DWIDTH 6 0
BBX 0 0 0 0
BITMAP
ENDCHAR
STARTCHAR U+2003
ENCODING 8195
SWIDTH 750 0
DWIDTH 12 0
BBX 0 0 0 0
BITMAP
ENDCHAR
STARTCHAR U+2004
ENCODING 8196
SWIDTH 250 0
DWIDTH 4 0
BBX 0 0 0 0
BITMAP
ENDCHAR
STARTCHAR U+2005
ENCODING 8197
SWIDTH 187 0
DWIDTH 3 0
BBX 0 0 0 0
BITMAP
ENDCHAR
STARTCHAR U+2006
ENCODING 8198
SWIDTH 125 0
DWIDTH 2 0
BBX 0 0 0 0
BITMAP
ENDCHAR
STARTCHAR U+2007
ENCODING 8199
SWIDTH 375 0
DWIDTH 6 0
BBX 0 0 0 0
BITMAP
ENDCHAR
STARTCHAR U+2008
ENCODING 8200
SWIDTH 375 0
DWIDTH 6 0
BBX 0 0 0 0
BITMAP
ENDCHAR
STARTCHAR U+2009
ENCODING 8201
SWIDTH 125 0
DWIDTH 2 0
BBX 0 0 0 0
BITMAP
ENDCHAR
STARTCHAR U+200A
ENCODING 8202
SWIDTH 62 0
DWIDTH 1 0
BBX 0 0 0 0
BITMAP
ENDCHAR
STARTCHAR U+200B
ENCODING 8203
SWIDTH 0 0
DWIDTH 0 0
BBX 0 0 0 0
BITMAP
ENDCHAR
STARTCHAR U+200C
ENCODING 8204
SWIDTH 0 0
DWIDTH 0 0
BBX 0 0 0 0
BITMAP
ENDCHAR
STARTCHAR U+200D
ENCODING 8205
SWIDTH 0 0
DWIDTH 0 0
BBX 0 0 0 0
BITMAP
ENDCHAR
STARTCHAR U+2010
ENCODING 8208
SWIDTH 375 0
DWIDTH 6 0
BBX 3 1 1 4
BITMAP
E0
ENDCHAR
STARTCHAR U+2011
ENCODING 8209
SWIDTH 375 0
DWIDTH 6 0
BBX 3 1 1 4
BITMAP
E0
ENDCHAR
STARTCHAR U+2012
ENCODING 8210
SWIDTH 375 0
DWIDTH 6 0
BBX 5 1 0 4
BITMAP
F8
ENDCHAR
STARTCHAR U+2013
ENCODING 8211
SWIDTH 375 0
DWIDTH 6 0
BBX 5 1 0 4
BITMAP
F8
ENDCHAR
STARTCHAR U+2014
ENCODING 8212
SWIDTH 375 0
DWIDTH 6 0
BBX 5 1 0 4
BITMAP
F8
ENDCHAR
STARTCHAR U+2015
ENCODING 8213
SWIDTH 750 0
DWIDTH 12 0
BBX 12 1 0 5
BITMAP
FFF0
ENDCHAR
STARTCHAR U+2016
ENCODING 8214
SWIDTH 750 0
DWIDTH 12 0
BBX 3 12 4 0
BITMAP
A0
A0
A0
A0
A0
A0
A0
A0
A0
A0
A0
A0
ENDCHAR
STARTCHAR U+2017
ENCODING 8215
SWIDTH 750 0
DWIDTH 12 0
BBX 12 3 0 0
BITMAP
FFF0
0000
FFF0
ENDCHAR
STARTCHAR U+2018
ENCODING 8216
SWIDTH 375 0
DWIDTH 6 0
BBX 2 3 2 7
BITMAP
40
80
80
ENDCHAR
STARTCHAR U+2019
ENCODING 8217
SWIDTH 375 0
DWIDTH 6 0
BBX 2 3 1 7
BITMAP
40
40
80
ENDCHAR
STARTCHAR U+201A
ENCODING 8218
SWIDTH 375 0
DWIDTH 6 0
BBX 2 3 1 0
BITMAP
40
40
80
ENDCHAR
STARTCHAR U+201B
ENCODING 8219
SWIDTH 375 0
DWIDTH 6 0
BBX 2 3 2 7
BITMAP
80
80
40
ENDCHAR
STARTCHAR U+201C
ENCODING 8220
SWIDTH 375 0
DWIDTH 6 0
BBX 4 3 1 7
BITMAP
50
A0
A0
ENDCHAR
STARTCHAR U+201D
ENCODING 8221
SWIDTH 375 0
DWIDTH 6 0
BBX 4 3 0 7
BITMAP
50
50
A0
ENDCHAR
STARTCHAR U+201E
ENCODING 8222
SWIDTH 375 0
DWIDTH 6 0
BBX 4 3 0 0
BITMAP
50
50
A0
ENDCHAR
STARTCHAR U+201F
ENCODING 8223
SWIDTH 375 0
DWIDTH 6 0
BBX 4 3 1 7
BITMAP
A0
A0
50
ENDCHAR
STARTCHAR U+2020
ENCODING 8224
SWIDTH 750 0
DWIDTH 12 0
BBX 7 10 2 0
BITMAP
10
10
FE
10
10
10
10
10
10
10
ENDCHAR
STARTCHAR U+2021
ENCODING 8225
SWIDTH 750 0
DWIDTH 12 0
BBX 7 10 2 0
BITMAP
10
10
FE
10
10
10
10
FE
10
10
ENDCHAR
STARTCHAR U+2022
ENCODING 8226
SWIDTH 750 0
DWIDTH 12 0
BBX 4 4 4 4
BITMAP
60
F0
F0
60
ENDCHAR
STARTCHAR U+2023
ENCODING 8227
SWIDTH 750 0
DWIDTH 12 0
BBX 3 5 4 3
BITMAP
80
C0
E0
C0
80
ENDCHAR
STARTCHAR U+2024
ENCODING 8228
SWIDTH 750 0
DWIDTH 12 0
BBX 1 1 5 5
BITMAP
80
ENDCHAR
STARTCHAR U+2025
ENCODING 8229
SWIDTH 750 0
DWIDTH 12 0
BBX 7 1 2 5
BITMAP
82
ENDCHAR
STARTCHAR U+2026
ENCODING 8230
SWIDTH 750 0
DWIDTH 12 0
BBX 9 1 1 5
BITMAP
8880
ENDCHAR
STARTCHAR U+2027
ENCODING 8231
SWIDTH 375 0
DWIDTH 6 0
BBX 1 1 2 4
BITMAP
80
ENDCHAR
STARTCHAR U+2030
ENCODING 8240
SWIDTH 750 0
DWIDTH 12 0
BBX 11 9 0 1
BITMAP
6080
9100
9200
6400
0800
16C0
2920
4920
86C0
ENDCHAR
STARTCHAR U+2031
ENCODING 8241
SWIDTH 750 0
DWIDTH 12 0
BBX 12 9 0 1
BITMAP
6080
9100
9200
6400
0800
1B60
2490
6490
9B60
ENDCHAR
STARTCHAR U+2032
ENCODING 8242
SWIDTH 750 0
DWIDTH 12 0
BBX 2 2 0 8
BITMAP
40
80
ENDCHAR
STARTCHAR U+2033
ENCODING 8243
SWIDTH 750 0
DWIDTH 12 0
BBX 4 2 0 8
BITMAP
50
A0
ENDCHAR
STARTCHAR U+2034
ENCODING 8244
SWIDTH 750 0
DWIDTH 12 0
BBX 6 2 0 8
BITMAP
54
A8
ENDCHAR
STARTCHAR U+2035
ENCODING 8245
SWIDTH 750 0
DWIDTH 12 0
BBX 2 2 0 8
BITMAP
80
40
ENDCHAR
STARTCHAR U+2036
ENCODING 8246
SWIDTH 750 0
DWIDTH 12 0
BBX 4 2 0 8
BITMAP
A0
50
ENDCHAR
STARTCHAR U+2037
ENCODING 8247
SWIDTH 750 0
DWIDTH 12 0
BBX 6 2 0 8
BITMAP
A8
54
ENDCHAR
STARTCHAR U+2038
ENCODING 8248
SWIDTH 750 0
DWIDTH 12 0
BBX 5 3 3 0
BITMAP
20
50
88
ENDCHAR
STARTCHAR U+2039
ENCODING 8249
SWIDTH 750 0
DWIDTH 12 0
BBX 4 7 3 2
BITMAP
10
20
40
80
40
20
10
ENDCHAR
STARTCHAR U+203A
ENCODING 8250
SWIDTH 750 0
DWIDTH 12 0
BBX 4 7 4 2
BITMAP
80
40
20
10
20
40
80
ENDCHAR
STARTCHAR U+203B
ENCODING 8251
SWIDTH 750 0
DWIDTH 12 0
BBX 9 9 1 1
BITMAP
8880
4100
2200
1400
8880
1400
2200
4100
8880
ENDCHAR
STARTCHAR U+203C
ENCODING 8252
SWIDTH 750 0
DWIDTH 12 0
BBX 7 9 2 1
BITMAP
82
82
82
82
82
00
00
82
82
ENDCHAR
STARTCHAR U+203D
ENCODING 8253
SWIDTH 750 0
DWIDTH 12 0
BBX 7 9 2 1
BITMAP
FC
02
12
1C
10
10
00
10
10
ENDCHAR
STARTCHAR U+203E
ENCODING 8254
SWIDTH 750 0
DWIDTH 12 0
BBX 12 1 0 11
BITMAP
FFF0
ENDCHAR
STARTCHAR U+203F
ENCODING 8255
SWIDTH 750 0
DWIDTH 12 0
BBX 11 3 0 0
BITMAP
8020
60C0
1F00
ENDCHAR
STARTCHAR U+2040
ENCODING 8256
SWIDTH 750 0
DWIDTH 12 0
BBX 11 3 0 9
BITMAP
1F00
60C0
8020
ENDCHAR
STARTCHAR U+2044
ENCODING 8260
SWIDTH 750 0
DWIDTH 12 0
BBX 10 10 0 1
BITMAP
0040
0080
0100
0200
0400
0800
1000
2000
4000
8000
ENDCHAR
STARTCHAR U+2047
ENCODING 8263
SWIDTH 750 0
DWIDTH 12 0
BBX 10 9 1 1
BITMAP
E380
1040
1040
2080
4100
4100
0000
4100
4100
ENDCHAR
STARTCHAR U+2048
ENCODING 8264
SWIDTH 750 0
DWIDTH 12 0
BBX 8 9 1 1
BITMAP
F1
09
09
11
21
21
00
21
21
ENDCHAR
STARTCHAR U+2049
ENCODING 8265
SWIDTH 750 0
DWIDTH 12 0
BBX 8 9 2 1
BITMAP
9E
81
81
82
84
84
00
84
84
ENDCHAR
STARTCHAR U+2074
ENCODING 8308
SWIDTH 375 0
DWIDTH 6 0
BBX 5 5 0 5
BITMAP
30
50
90
F8
10
ENDCHAR
STARTCHAR U+207F
ENCODING 8319
SWIDTH 375 0
DWIDTH 6 0
BBX 4 5 1 5
BITMAP
E0
90
90
90
90
ENDCHAR
STARTCHAR U+2081
ENCODING 8321
SWIDTH 375 0
DWIDTH 6 0
BBX 2 5 2 0
BITMAP
40
C0
40
40
40
ENDCHAR
STARTCHAR U+2082
ENCODING 8322
SWIDTH 375 0
DWIDTH 6 0
BBX 4 5 1 0
BITMAP
60
90
20
40
F0
ENDCHAR
STARTCHAR U+2083
ENCODING 8323
SWIDTH 375 0
DWIDTH 6 0
BBX 4 5 1 0
BITMAP
E0
10
60
10
E0
ENDCHAR
STARTCHAR U+2084
ENCODING 8324
SWIDTH 375 0
DWIDTH 6 0
BBX 5 5 0 0
BITMAP
30
50
90
F8
10
ENDCHAR
STARTCHAR U+20A9
ENCODING 8361
SWIDTH 375 0
DWIDTH 6 0
BBX 5 9 0 1
BITMAP
88
A8
A8
F8
A8
A8
50
50
50
ENDCHAR
STARTCHAR U+20AC
ENCODING 8364
SWIDTH 375 0
DWIDTH 6 0
BBX 5 9 0 1
BITMAP
30
48
40
F0
40
F0
40
48
30
ENDCHAR
STARTCHAR U+2103
ENCODING 8451
SWIDTH 750 0
DWIDTH 12 0
BBX 11 9 0 1
BITMAP
63C0
9420
9420
6400
0400
0400
0420
0420
03C0
ENDCHAR
STARTCHAR U+2109
ENCODING 8457
SWIDTH 750 0
DWIDTH 12 0
BBX 11 9 0 1
BITMAP
63E0
9400
9400
6400
07E0
0400
0400
0400
0400
ENDCHAR
STARTCHAR U+210A
ENCODING 8458
SWIDTH 750 0
DWIDTH 12 0
BBX 8 9 1 0
BITMAP
1F
21
21
1E
02
7F
84
88
70
ENDCHAR
STARTCHAR U+2113
ENCODING 8467
SWIDTH 750 0
DWIDTH 12 0
BBX 9 9 1 1
BITMAP
0C00
1200
1200
1200
1400
1400
0800
1480
E300
ENDCHAR
STARTCHAR U+2116
ENCODING 8470
SWIDTH 750 0
DWIDTH 12 0
BBX 11 9 0 1
BITMAP
8400
C4C0
A520
A520
9520
9520
8CC0
8400
85E0
ENDCHAR
STARTCHAR U+2120
ENCODING 8480
SWIDTH 750 0
DWIDTH 12 0
BBX 11 5 0 5
BITMAP
7940
82A0
7220
0A20
F220
ENDCHAR
STARTCHAR U+2121
ENCODING 8481
SWIDTH 750 0
DWIDTH 12 0
BBX 11 9 0 1
BITMAP
F800
2000
2680
2880
2880
2E80
2880
2880
2660
ENDCHAR
STARTCHAR U+2122
ENCODING 8482
SWIDTH 750 0
DWIDTH 12 0
BBX 11 5 0 5
BITMAP
F940
22A0
2220
2220
2220
ENDCHAR
STARTCHAR U+2126
ENCODING 8486
SWIDTH 750 0
DWIDTH 12 0
BBX 9 9 1 1
BITMAP
3E00
4100
8080
8080
8080
8080
4100
2200
F780
ENDCHAR
STARTCHAR U+212B
ENCODING 8491
SWIDTH 750 0
DWIDTH 12 0
BBX 9 10 1 1
BITMAP
1C00
2200
1C00
2200
2200
4100
7F00
8080
8080
8080
ENDCHAR
STARTCHAR U+212E
ENCODING 8494
SWIDTH 750 0
DWIDTH 12 0
BBX 9 9 1 1
BITMAP
3E00
4100
C180
C180
FF80
C000
C000
4180
3E00
ENDCHAR
STARTCHAR U+2153
ENCODING 8531
SWIDTH 750 0
DWIDTH 12 0
BBX 10 9 1 1
BITMAP
4080
C100
4200
4400
4B80
1040
2180
4040
8380
ENDCHAR
STARTCHAR U+2154
ENCODING 8532
SWIDTH 750 0
DWIDTH 12 0
BBX 11 9 0 1
BITMAP
6040
9080
2100
4200
F5C0
0820
10C0
2020
41C0
ENDCHAR
STARTCHAR U+215B
ENCODING 8539
SWIDTH 750 0
DWIDTH 12 0
BBX 9 9 1 1
BITMAP
4080
C100
4200
4400
4B00
1480
2300
4480
8300
ENDCHAR
STARTCHAR U+215C
ENCODING 8540
SWIDTH 750 0
DWIDTH 12 0
BBX 9 9 1 1
BITMAP
E080
1100
6200
1400
EB00
1480
2300
4480
8300
ENDCHAR
STARTCHAR U+215D
ENCODING 8541
SWIDTH 750 0
DWIDTH 12 0
BBX 9 9 1 1
BITMAP
F080
8100
E200
1400
EB00
1480
2300
4480
8300
ENDCHAR
STARTCHAR U+215E
ENCODING 8542
SWIDTH 750 0
DWIDTH 12 0
BBX 9 9 1 1
BITMAP
F080
1100
2200
4400
4B00
1480
2300
4480
8300
ENDCHAR
STARTCHAR U+2160
ENCODING 8544
SWIDTH 750 0
DWIDTH 12 0
BBX 5 9 3 1
BITMAP
F8
20
20
20
20
20
20
20
F8
ENDCHAR
STARTCHAR U+2161
ENCODING 8545
SWIDTH 750 0
DWIDTH 12 0
BBX 7 9 2 1
BITMAP
EE
44
44
44
44
44
44
44
EE
ENDCHAR
STARTCHAR U+2162
ENCODING 8546
SWIDTH 750 0
DWIDTH 12 0
BBX 11 9 0 1
BITMAP
EEE0
4440
4440
4440
4440
4440
4440
4440
EEE0
ENDCHAR
STARTCHAR U+2163
ENCODING 8547
SWIDTH 750 0
DWIDTH 12 0
BBX 11 9 0 1
BITMAP
EEE0
4440
4440
4440
4280
4280
4280
4100
E100
ENDCHAR
STARTCHAR U+2164
ENCODING 8548
SWIDTH 750 0
DWIDTH 12 0
BBX 11 9 0 1
BITMAP
FBE0
2080
2080
2080
1100
1100
0A00
0A00
0400
ENDCHAR
STARTCHAR U+2165
ENCODING 8549
SWIDTH 750 0
DWIDTH 12 0
BBX 11 9 0 1
BITMAP
EEE0
4440
4440
4440
2840
2840
2840
1040
10E0
ENDCHAR
STARTCHAR U+2166
ENCODING 8550
SWIDTH 750 0
DWIDTH 12 0
BBX 11 9 0 1
BITMAP
EFE0
4540
4540
4540
2940
2940
2940
1140
13E0
ENDCHAR
STARTCHAR U+2167
ENCODING 8551
SWIDTH 750 0
DWIDTH 12 0
BBX 11 9 0 1
BITMAP
FFE0
5540
5540
5540
5540
5540
2540
2540
2FE0
ENDCHAR
STARTCHAR U+2168
ENCODING 8552
SWIDTH 750 0
DWIDTH 12 0
BBX 11 9 0 1
BITMAP
EEE0
4440
4440
4280
4100
4280
4440
4440
EEE0
ENDCHAR
STARTCHAR U+2169
ENCODING 8553
SWIDTH 750 0
DWIDTH 12 0
BBX 9 9 1 1
BITMAP
E380
4100
2200
1400
0800
1400
2200
4100
E380
ENDCHAR
STARTCHAR U+216A
ENCODING 8554
SWIDTH 750 0
DWIDTH 12 0
BBX 11 9 0 1
BITMAP
EEE0
4440
4440
2840
1040
2840
4440
4440
EEE0
ENDCHAR
STARTCHAR U+216B
ENCODING 8555
SWIDTH 750 0
DWIDTH 12 0
BBX 11 9 0 1
BITMAP
EFE0
4540
4540
2940
1140
2940
4540
4540
EFE0
ENDCHAR
STARTCHAR U+2170
ENCODING 8560
SWIDTH 750 0
DWIDTH 12 0
BBX 5 9 3 1
BITMAP
20
00
E0
20
20
20
20
20
F8
ENDCHAR
STARTCHAR U+2171
ENCODING 8561
SWIDTH 750 0
DWIDTH 12 0
BBX 7 9 2 1
BITMAP
44
00
CC
44
44
44
44
44
EE
ENDCHAR
STARTCHAR U+2172
ENCODING 8562
SWIDTH 750 0
DWIDTH 12 0
BBX 9 9 1 1
BITMAP
4900
0000
DB00
4900
4900
4900
4900
4900
FF80
ENDCHAR
STARTCHAR U+2173
ENCODING 8563
SWIDTH 750 0
DWIDTH 12 0
BBX 10 9 1 1
BITMAP
4000
0000
DDC0
4880
4880
4500
4500
4200
E200
ENDCHAR
STARTCHAR U+2174
ENCODING 8564
SWIDTH 750 0
DWIDTH 12 0
BBX 9 7 1 1
BITMAP
E380
4100
4100
2200
2200
1400
0800
ENDCHAR
STARTCHAR U+2175
ENCODING 8565
SWIDTH 750 0
DWIDTH 12 0
BBX 11 9 0 1
BITMAP
0040
0000
EEC0
4440
4440
2840
2840
1040
10E0
ENDCHAR
STARTCHAR U+2176
ENCODING 8566
SWIDTH 750 0
DWIDTH 12 0
BBX 11 9 0 1
BITMAP
0140
0000
EFC0
4540
4540
2940
2940
1140
13E0
ENDCHAR
STARTCHAR U+2177
ENCODING 8567
SWIDTH 750 0
DWIDTH 12 0
BBX 11 9 0 1
BITMAP
02A0
0000
EFE0
46A0
46A0
2AA0
2AA0
12A0
17E0
ENDCHAR
STARTCHAR U+2178
ENCODING 8568
SWIDTH 750 0
DWIDTH 12 0
BBX 10 9 1 1
BITMAP
4000
0000
DDC0
4880
4500
4200
4500
4880
FDC0
ENDCHAR
STARTCHAR U+2179
ENCODING 8569
SWIDTH 750 0
DWIDTH 12 0
BBX 9 7 1 1
BITMAP
F780
2200
1400
0800
1400
2200
F780
ENDCHAR
STARTCHAR U+217A
ENCODING 8570
SWIDTH 750 0
DWIDTH 12 0
BBX 11 9 0 1
BITMAP
0040
0000
EEC0
4440
2840
1040
2840
4440
EEE0
ENDCHAR
STARTCHAR U+217B
ENCODING 8571
SWIDTH 750 0
DWIDTH 12 0
BBX 11 9 0 1
BITMAP
0140
0000
EFC0
4540
2940
1140
2940
4540
EFE0
ENDCHAR
STARTCHAR U+2190
ENCODING 8592
SWIDTH 750 0
DWIDTH 12 0
BBX 9 5 1 3
BITMAP
2000
4000
FF80
4000
2000
ENDCHAR
STARTCHAR U+2191
ENCODING 8593
SWIDTH 750 0
DWIDTH 12 0
BBX 5 9 3 1
BITMAP
20
70
A8
20
20
20
20
20
20
ENDCHAR
STARTCHAR U+2192
ENCODING 8594
SWIDTH 750 0
DWIDTH 12 0
BBX 9 5 1 3
BITMAP
0200
0100
FF80
0100
0200
ENDCHAR
STARTCHAR U+2193
ENCODING 8595
SWIDTH 750 0
DWIDTH 12 0
BBX 5 9 3 1
BITMAP
20
20
20
20
20
20
A8
70
20
ENDCHAR
STARTCHAR U+2194
ENCODING 8596
SWIDTH 750 0
DWIDTH 12 0
BBX 11 5 0 3
BITMAP
2080
4040
FFE0
4040
2080
ENDCHAR
STARTCHAR U+2195
ENCODING 8597
SWIDTH 750 0
DWIDTH 12 0
BBX 5 11 3 0
BITMAP
20
70
A8
20
20
20
20
20
A8
70
20
ENDCHAR
STARTCHAR U+2196
ENCODING 8598
SWIDTH 750 0
DWIDTH 12 0
BBX 7 7 2 2
BITMAP
F0
C0
A0
90
08
04
02
ENDCHAR
STARTCHAR U+2197
ENCODING 8599
SWIDTH 750 0
DWIDTH 12 0
BBX 7 7 2 2
BITMAP
1E
06
0A
12
20
40
80
ENDCHAR
STARTCHAR U+2198
ENCODING 8600
SWIDTH 750 0
DWIDTH 12 0
BBX 7 7 2 2
BITMAP
80
40
20
12
0A
06
1E
ENDCHAR
STARTCHAR U+2199
ENCODING 8601
SWIDTH 750 0
DWIDTH 12 0
BBX 7 7 2 2
BITMAP
02
04
08
90
A0
C0
F0
ENDCHAR
STARTCHAR U+21C4
ENCODING 8644
SWIDTH 750 0
DWIDTH 12 0
BBX 9 9 1 1
BITMAP
0200
0100
FF80
0100
2200
4000
FF80
4000
2000
ENDCHAR
STARTCHAR U+21C5
ENCODING 8645
SWIDTH 750 0
DWIDTH 12 0
BBX 9 9 1 1
BITMAP
2200
7200
AA00
2200
2200
2200
2A80
2700
2200
ENDCHAR
STARTCHAR U+21C6
ENCODING 8646
SWIDTH 750 0
DWIDTH 12 0
BBX 9 9 1 1
BITMAP
2000
4000
FF80
4000
2200
0100
FF80
0100
0200
ENDCHAR
STARTCHAR U+21CB
ENCODING 8651
SWIDTH 750 0
DWIDTH 12 0
BBX 9 9 1 1
BITMAP
2000
4000
FF80
0000
0000
0000
FF80
0100
0200
ENDCHAR
STARTCHAR U+21CC
ENCODING 8652
SWIDTH 750 0
DWIDTH 12 0
BBX 9 9 1 1
BITMAP
0200
0100
FF80
0000
0000
0000
FF80
4000
2000
ENDCHAR
STARTCHAR U+21D0
ENCODING 8656
SWIDTH 750 0
DWIDTH 12 0
BBX 9 7 1 2
BITMAP
1000
2000
7F80
C000
7F80
2000
1000
ENDCHAR
STARTCHAR U+21D1
ENCODING 8657
SWIDTH 750 0
DWIDTH 12 0
BBX 7 9 2 1
BITMAP
10
38
6C
AA
28
28
28
28
28
ENDCHAR
STARTCHAR U+21D2
ENCODING 8658
SWIDTH 750 0
DWIDTH 12 0
BBX 9 7 1 2
BITMAP
0400
0200
FF00
0180
FF00
0200
0400
ENDCHAR
STARTCHAR U+21D3
ENCODING 8659
SWIDTH 750 0
DWIDTH 12 0
BBX 7 9 2 1
BITMAP
28
28
28
28
28
AA
6C
38
10
ENDCHAR
STARTCHAR U+21D4
ENCODING 8660
SWIDTH 750 0
DWIDTH 12 0
BBX 11 7 0 2
BITMAP
1100
2080
7FC0
C060
7FC0
2080
1100
ENDCHAR
STARTCHAR U+21D5
ENCODING 8661
SWIDTH 750 0
DWIDTH 12 0
BBX 7 11 2 0
BITMAP
10
38
6C
AA
28
28
28
AA
6C
38
10
ENDCHAR
STARTCHAR U+21D6
ENCODING 8662
SWIDTH 750 0
DWIDTH 12 0
BBX 8 8 2 1
BITMAP
F8
A0
D0
A8
94
0A
05
02
ENDCHAR
STARTCHAR U+21D7
ENCODING 8663
SWIDTH 750 0
DWIDTH 12 0
BBX 8 8 1 1
BITMAP
1F
05
0B
15
29
50
A0
40
ENDCHAR
STARTCHAR U+21D8
ENCODING 8664
SWIDTH 750 0
DWIDTH 12 0
BBX 8 8 1 2
BITMAP
40
A0
50
29
15
0B
05
1F
ENDCHAR
STARTCHAR U+21D9
ENCODING 8665
SWIDTH 750 0
DWIDTH 12 0
BBX 8 8 2 2
BITMAP
02
05
0A
94
A8
D0
A0
F8
ENDCHAR
STARTCHAR U+21E6
ENCODING 8678
SWIDTH 750 0
DWIDTH 12 0
BBX 11 11 0 0
BITMAP
0400
0C00
1400
27E0
4020
8020
4020
27E0
1400
0C00
0400
ENDCHAR
STARTCHAR U+21E7
ENCODING 8679
SWIDTH 750 0
DWIDTH 12 0
BBX 11 11 0 0
BITMAP
0400
0A00
1100
2080
4040
F1E0
1100
1100
1100
1100
1F00
ENDCHAR
STARTCHAR U+21E8
ENCODING 8680
SWIDTH 750 0
DWIDTH 12 0
BBX 11 11 0 0
BITMAP
0400
0600
0500
FC80
8040
8020
8040
FC80
0500
0600
0400
ENDCHAR
STARTCHAR U+21E9
ENCODING 8681
SWIDTH 750 0
DWIDTH 12 0
BBX 11 11 0 0
BITMAP
1F00
1100
1100
1100
1100
F1E0
4040
2080
1100
0A00
0400
ENDCHAR
STARTCHAR U+2200
ENCODING 8704
SWIDTH 750 0
DWIDTH 12 0
BBX 9 9 1 1
BITMAP
8080
8080
8080
7F00
4100
2200
2200
1400
0800
ENDCHAR
STARTCHAR U+2202
ENCODING 8706
SWIDTH 750 0
DWIDTH 12 0
BBX 7 9 2 1
BITMAP
3C
42
02
3E
42
84
84
88
70
ENDCHAR
STARTCHAR U+2203
ENCODING 8707
SWIDTH 750 0
DWIDTH 12 0
BBX 7 9 2 1
BITMAP
FE
02
02
02
FE
02
02
02
FE
ENDCHAR
STARTCHAR U+2205
ENCODING 8709
SWIDTH 750 0
DWIDTH 12 0
BBX 9 9 1 1
BITMAP
0080
1D00
2200
4500
4900
5100
2200
5C00
8000
ENDCHAR
STARTCHAR U+2206
ENCODING 8710
SWIDTH 750 0
DWIDTH 12 0
BBX 9 9 1 1
BITMAP
0800
1400
1400
2200
2200
4100
4100
8080
FF80
ENDCHAR
STARTCHAR U+2207
ENCODING 8711
SWIDTH 750 0
DWIDTH 12 0
BBX 9 9 1 1
BITMAP
FF80
8080
4100
4100
2200
2200
1400
1400
0800
ENDCHAR
STARTCHAR U+2208
ENCODING 8712
SWIDTH 750 0
DWIDTH 12 0
BBX 7 7 2 2
BITMAP
3E
40
80
FE
80
40
3E
ENDCHAR
STARTCHAR U+220B
ENCODING 8715
SWIDTH 750 0
DWIDTH 12 0
BBX 7 7 2 2
BITMAP
F8
04
02
FE
02
04
F8
ENDCHAR
STARTCHAR U+220F
ENCODING 8719
SWIDTH 750 0
DWIDTH 12 0
BBX 9 9 1 1
BITMAP
FF80
8080
8080
8080
8080
8080
8080
8080
8080
ENDCHAR
STARTCHAR U+2211
ENCODING 8721
SWIDTH 750 0
DWIDTH 12 0
BBX 8 9 2 1
BITMAP
FE
82
40
20
10
20
40
81
FE
ENDCHAR
STARTCHAR U+2212
ENCODING 8722
SWIDTH 750 0
DWIDTH 12 0
BBX 7 1 2 5
BITMAP
FE
ENDCHAR
STARTCHAR U+2217
ENCODING 8727
SWIDTH 750 0
DWIDTH 12 0
BBX 7 7 2 2
BITMAP
10
D6
7C
38
7C
D6
10
ENDCHAR
STARTCHAR U+2218
ENCODING 8728
SWIDTH 750 0
DWIDTH 12 0
BBX 4 4 4 3
BITMAP
60
90
90
60
ENDCHAR
STARTCHAR U+2219
ENCODING 8729
SWIDTH 750 0
DWIDTH 12 0
BBX 4 4 4 3
BITMAP
60
F0
F0
60
ENDCHAR
STARTCHAR U+221A
ENCODING 8730
SWIDTH 750 0
DWIDTH 12 0
BBX 11 11 1 0
BITMAP
01E0
0200
0200
0400
0400
0400
C800
2800
2800
1000
1000
ENDCHAR
STARTCHAR U+221D
ENCODING 8733
SWIDTH 750 0
DWIDTH 12 0
BBX 10 5 0 3
BITMAP
71C0
8A00
8400
8A00
71C0
ENDCHAR
STARTCHAR U+221E
ENCODING 8734
SWIDTH 750 0
DWIDTH 12 0
BBX 11 5 0 3
BITMAP
71C0
8A20
8420
8A20
71C0
ENDCHAR
STARTCHAR U+221F
ENCODING 8735
SWIDTH 750 0
DWIDTH 12 0
BBX 9 9 1 1
BITMAP
8000
8000
8000
8000
8000
8000
8000
8000
FF80
ENDCHAR
STARTCHAR U+2220
ENCODING 8736
SWIDTH 750 0
DWIDTH 12 0
BBX 9 9 1 1
BITMAP
0080
0100
0200
0400
0800
1000
2000
4000
FF80
ENDCHAR
STARTCHAR U+2225
ENCODING 8741
SWIDTH 750 0
DWIDTH 12 0
BBX 3 9 4 1
BITMAP
A0
A0
A0
A0
A0
A0
A0
A0
A0
ENDCHAR
STARTCHAR U+2226
ENCODING 8742
SWIDTH 750 0
DWIDTH 12 0
BBX 7 9 2 1
BITMAP
28
2A
2C
28
38
28
68
A8
28
ENDCHAR
STARTCHAR U+2227
ENCODING 8743
SWIDTH 750 0
DWIDTH 12 0
BBX 7 7 2 2
BITMAP
10
28
28
44
44
82
82
ENDCHAR
STARTCHAR U+2228
ENCODING 8744
SWIDTH 750 0
DWIDTH 12 0
BBX 7 7 2 2
BITMAP
82
82
44
44
28
28
10
ENDCHAR
STARTCHAR U+2229
ENCODING 8745
SWIDTH 750 0
DWIDTH 12 0
BBX 7 8 2 2
BITMAP
38
44
82
82
82
82
82
82
ENDCHAR
STARTCHAR U+222A
ENCODING 8746
SWIDTH 750 0
DWIDTH 12 0
BBX 7 8 2 2
BITMAP
82
82
82
82
82
82
44
38
ENDCHAR
STARTCHAR U+222B
ENCODING 8747
SWIDTH 750 0
DWIDTH 12 0
BBX 7 11 2 0
BITMAP
0C
12
10
10
10
10
10
10
10
90
60
ENDCHAR
STARTCHAR U+222C
ENCODING 8748
SWIDTH 750 0
DWIDTH 12 0
BBX 9 11 1 0
BITMAP
1100
2A80
2200
2200
2200
2200
2200
2200
2200
AA00
4400
ENDCHAR
STARTCHAR U+222D
ENCODING 8749
SWIDTH 750 0
DWIDTH 12 0
BBX 11 11 0 0
BITMAP
1240
2DA0
2480
2480
2480
2480
2480
2480
2480
B680
4900
ENDCHAR
STARTCHAR U+222E
ENCODING 8750
SWIDTH 750 0
DWIDTH 12 0
BBX 7 11 2 0
BITMAP
0C
12
10
38
54
54
54
38
10
90
60
ENDCHAR
STARTCHAR U+2234
ENCODING 8756
SWIDTH 750 0
DWIDTH 12 0
BBX 8 7 2 2
BITMAP
18
18
00
00
00
C3
C3
ENDCHAR
STARTCHAR U+2235
ENCODING 8757
SWIDTH 750 0
DWIDTH 12 0
BBX 8 7 2 2
BITMAP
C3
C3
00
00
00
18
18
ENDCHAR
STARTCHAR U+2236
ENCODING 8758
SWIDTH 750 0
DWIDTH 12 0
BBX 1 6 5 3
BITMAP
80
00
00
00
00
80
ENDCHAR
STARTCHAR U+223C
ENCODING 8764
SWIDTH 750 0
DWIDTH 12 0
BBX 9 3 1 4
BITMAP
7080
8880
8700
ENDCHAR
STARTCHAR U+223D
ENCODING 8765
SWIDTH 750 0
DWIDTH 12 0
BBX 11 5 0 3
BITMAP
71C0
8820
8420
8220
71C0
ENDCHAR
STARTCHAR U+2252
ENCODING 8786
SWIDTH 750 0
DWIDTH 12 0
BBX 7 7 2 2
BITMAP
80
00
FE
00
FE
00
02
ENDCHAR
STARTCHAR U+2260
ENCODING 8800
SWIDTH 750 0
DWIDTH 12 0
BBX 7 7 2 2
BITMAP
02
04
FE
10
FE
40
80
ENDCHAR
STARTCHAR U+2261
ENCODING 8801
SWIDTH 750 0
DWIDTH 12 0
BBX 7 5 2 3
BITMAP
FE
00
FE
00
FE
ENDCHAR
STARTCHAR U+2264
ENCODING 8804
SWIDTH 750 0
DWIDTH 12 0
BBX 7 7 2 2
BITMAP
0E
70
80
70
0E
00
FE
ENDCHAR
STARTCHAR U+2265
ENCODING 8805
SWIDTH 750 0
DWIDTH 12 0
BBX 7 7 2 2
BITMAP
E0
1C
02
1C
E0
00
FE
ENDCHAR
STARTCHAR U+2266
ENCODING 8806
SWIDTH 750 0
DWIDTH 12 0
BBX 7 9 2 1
BITMAP
0E
70
80
70
0E
00
FE
00
FE
ENDCHAR
STARTCHAR U+2267
ENCODING 8807
SWIDTH 750 0
DWIDTH 12 0
BBX 7 9 2 1
BITMAP
E0
1C
02
1C
E0
00
FE
00
FE
ENDCHAR
STARTCHAR U+226A
ENCODING 8810
SWIDTH 750 0
DWIDTH 12 0
BBX 8 7 1 2
BITMAP
11
22
44
88
44
22
11
ENDCHAR
STARTCHAR U+226B
ENCODING 8811
SWIDTH 750 0
DWIDTH 12 0
BBX 8 7 2 2
BITMAP
88
44
22
11
22
44
88
ENDCHAR
STARTCHAR U+2282
ENCODING 8834
SWIDTH 750 0
DWIDTH 12 0
BBX 7 7 2 2
BITMAP
3E
40
80
80
80
40
3E
ENDCHAR
STARTCHAR U+2283
ENCODING 8835
SWIDTH 750 0
DWIDTH 12 0
BBX 7 7 2 2
BITMAP
F8
04
02
02
02
04
F8
ENDCHAR
STARTCHAR U+2286
ENCODING 8838
SWIDTH 750 0
DWIDTH 12 0
BBX 7 8 2 1
BITMAP
3E
40
80
80
40
3E
00
FE
ENDCHAR
STARTCHAR U+2287
ENCODING 8839
SWIDTH 750 0
DWIDTH 12 0
BBX 7 8 2 1
BITMAP
F8
04
02
02
04
F8
00
FE
ENDCHAR
STARTCHAR U+2299
ENCODING 8857
SWIDTH 750 0
DWIDTH 12 0
BBX 9 9 1 1
BITMAP
3E00
4100
8080
9C80
9C80
9C80
8080
4100
3E00
ENDCHAR
STARTCHAR U+22A5
ENCODING 8869
SWIDTH 750 0
DWIDTH 12 0
BBX 9 9 1 1
BITMAP
0800
0800
0800
0800
0800
0800
0800
0800
FF80
ENDCHAR
STARTCHAR U+22BF
ENCODING 8895
SWIDTH 750 0
DWIDTH 12 0
BBX 9 9 1 1
BITMAP
0080
0180
0280
0480
0880
1080
2080
4080
FF80
ENDCHAR
STARTCHAR U+2312
ENCODING 8978
SWIDTH 750 0
DWIDTH 12 0
BBX 11 3 0 9
BITMAP
1F00
60C0
8020
ENDCHAR
STARTCHAR U+2318
ENCODING 8984
SWIDTH 750 0
DWIDTH 12 0
BBX 9 9 1 1
BITMAP
6300
9480
9480
7F00
1400
7F00
9480
9480
6300
ENDCHAR
STARTCHAR U+2423
ENCODING 9251
SWIDTH 375 0
DWIDTH 6 0
BBX 6 2 0 0
BITMAP
84
FC
ENDCHAR
STARTCHAR U+2460
ENCODING 9312
SWIDTH 750 0
DWIDTH 12 0
BBX 11 11 0 0
BITMAP
3F80
4040
8420
8C20
8420
8420
8420
8420
8420
4040
3F80
ENDCHAR
STARTCHAR U+2461
ENCODING 9313
SWIDTH 750 0
DWIDTH 12 0
BBX 11 11 0 0
BITMAP
3F80
4040
8E20
9120
9120
8220
8420
8820
9F20
4040
3F80
ENDCHAR
STARTCHAR U+2462
ENCODING 9314
SWIDTH 750 0
DWIDTH 12 0
BBX 11 11 0 0
BITMAP
3F80
4040
8E20
9120
8120
8620
8120
9120
8E20
4040
3F80
ENDCHAR
STARTCHAR U+2463
ENCODING 9315
SWIDTH 750 0
DWIDTH 12 0
BBX 11 11 0 0
BITMAP
3F80
4040
8220
8620
8A20
9220
9F20
8220
8220
4040
3F80
ENDCHAR
STARTCHAR U+2464
ENCODING 9316
SWIDTH 750 0
DWIDTH 12 0
BBX 11 11 0 0
BITMAP
3F80
4040
9F20
9020
9E20
8120
8120
9120
8E20
4040
3F80
ENDCHAR
STARTCHAR U+2465
ENCODING 9317
SWIDTH 750 0
DWIDTH 12 0
BBX 11 11 0 0
BITMAP
3F80
4040
8E20
9120
9020
9E20
9120
9120
8E20
4040
3F80
ENDCHAR
STARTCHAR U+2466
ENCODING 9318
SWIDTH 750 0
DWIDTH 12 0
BBX 11 11 0 0
BITMAP
3F80
4040
9E20
8120
8120
8220
8220
8420
8420
4040
3F80
ENDCHAR
STARTCHAR U+2467
ENCODING 9319
SWIDTH 750 0
DWIDTH 12 0
BBX 11 11 0 0
BITMAP
3F80
4040
8E20
9120
9120
8E20
9120
9120
8E20
4040
3F80
ENDCHAR
STARTCHAR U+2468
ENCODING 9320
SWIDTH 750 0
DWIDTH 12 0
BBX 11 11 0 0
BITMAP
3F80
4040
8E20
9120
9120
8F20
8120
9120
8E20
4040
3F80
ENDCHAR
STARTCHAR U+2469
ENCODING 9321
SWIDTH 750 0
DWIDTH 12 0
BBX 11 11 0 0
BITMAP
3F80
4040
9320
B4A0
94A0
94A0
94A0
94A0
9320
4040
3F80
ENDCHAR
STARTCHAR U+246A
ENCODING 9322
SWIDTH 750 0
DWIDTH 12 0
BBX 11 11 0 0
BITMAP
3F80
4040
9120
B320
9120
9120
9120
9120
9120
4040
3F80
ENDCHAR
STARTCHAR U+246B
ENCODING 9323
SWIDTH 750 0
DWIDTH 12 0
BBX 11 11 0 0
BITMAP
3F80
4040
9320
B4A0
90A0
9120
9220
9420
97A0
4040
3F80
ENDCHAR
STARTCHAR U+246C
ENCODING 9324
SWIDTH 750 0
DWIDTH 12 0
BBX 11 11 0 0
BITMAP
3F80
4040
9320
B4A0
90A0
9120
90A0
94A0
9320
4040
3F80
ENDCHAR
STARTCHAR U+246D
ENCODING 9325
SWIDTH 750 0
DWIDTH 12 0
BBX 11 11 0 0
BITMAP
3F80
4040
90A0
B1A0
92A0
94A0
97A0
90A0
90A0
4040
3F80
ENDCHAR
STARTCHAR U+246E
ENCODING 9326
SWIDTH 750 0
DWIDTH 12 0
BBX 11 11 0 0
BITMAP
3F80
4040
97A0
B420
9720
94A0
90A0
94A0
9320
4040
3F80
ENDCHAR
STARTCHAR U+246F
ENCODING 9327
SWIDTH 750 0
DWIDTH 12 0
BBX 11 11 0 0
BITMAP
3F80
4040
9320
B4A0
9420
9720
94A0
94A0
9320
4040
3F80
ENDCHAR
STARTCHAR U+2470
ENCODING 9328
SWIDTH 750 0
DWIDTH 12 0
BBX 11 11 0 0
BITMAP
3F80
4040
97A0
B0A0
9120
9120
9220
9220
9220
4040
3F80
ENDCHAR
STARTCHAR U+2471
ENCODING 9329
SWIDTH 750 0
DWIDTH 12 0
BBX 11 11 0 0
BITMAP
3F80
4040
9320
B4A0
94A0
9320
94A0
94A0
9320
4040
3F80
ENDCHAR
STARTCHAR U+2472
ENCODING 9330
SWIDTH 750 0
DWIDTH 12 0
BBX 11 11 0 0
BITMAP
3F80
4040
9320
B4A0
94A0
93A0
90A0
94A0
9320
4040
3F80
ENDCHAR
STARTCHAR U+2473
ENCODING 9331
SWIDTH 750 0
DWIDTH 12 0
BBX 11 11 0 0
BITMAP
3F80
4040
9120
AAA0
AAA0
8AA0
92A0
A2A0
B920
4040
3F80
ENDCHAR
STARTCHAR U+2474
ENCODING 9332
SWIDTH 750 0
DWIDTH 12 0
BBX 11 11 0 0
BITMAP
2080
4040
8420
8C20
8420
8420
8420
8420
8420
4040
2080
ENDCHAR
STARTCHAR U+2475
ENCODING 9333
SWIDTH 750 0
DWIDTH 12 0
BBX 11 11 0 0
BITMAP
2080
4040
8E20
9120
9120
8220
8420
8820
9F20
4040
2080
ENDCHAR
STARTCHAR U+2476
ENCODING 9334
SWIDTH 750 0
DWIDTH 12 0
BBX 11 11 0 0
BITMAP
2080
4040
8E20
9120
8120
8620
8120
9120
8E20
4040
2080
ENDCHAR
STARTCHAR U+2477
ENCODING 9335
SWIDTH 750 0
DWIDTH 12 0
BBX 11 11 0 0
BITMAP
2080
4040
8220
8620
8A20
9220
9F20
8220
8220
4040
2080
ENDCHAR
STARTCHAR U+2478
ENCODING 9336
SWIDTH 750 0
DWIDTH 12 0
BBX 11 11 0 0
BITMAP
2080
4040
9F20
9020
9E20
8120
8120
9120
8E20
4040
2080
ENDCHAR
STARTCHAR U+2479
ENCODING 9337
SWIDTH 750 0
DWIDTH 12 0
BBX 11 11 0 0
BITMAP
2080
4040
8E20
9120
9020
9E20
9120
9120
8E20
4040
2080
ENDCHAR
STARTCHAR U+247A
ENCODING 9338
SWIDTH 750 0
DWIDTH 12 0
BBX 11 11 0 0
BITMAP
2080
4040
9E20
8120
8120
8220
8220
8420
8420
4040
2080
ENDCHAR
STARTCHAR U+247B
ENCODING 9339
SWIDTH 750 0
DWIDTH 12 0
BBX 11 11 0 0
BITMAP
2080
4040
8E20
9120
9120
8E20
9120
9120
8E20
4040
2080
ENDCHAR
STARTCHAR U+247C
ENCODING 9340
SWIDTH 750 0
DWIDTH 12 0
BBX 11 11 0 0
BITMAP
2080
4040
8E20
9120
9120
8F20
8120
9120
8E20
4040
2080
ENDCHAR
STARTCHAR U+247D
ENCODING 9341
SWIDTH 750 0
DWIDTH 12 0
BBX 11 11 0 0
BITMAP
2080
4040
9320
B4A0
94A0
94A0
94A0
94A0
9320
4040
2080
ENDCHAR
STARTCHAR U+247E
ENCODING 9342
SWIDTH 750 0
DWIDTH 12 0
BBX 11 11 0 0
BITMAP
2080
4040
9120
B320
9120
9120
9120
9120
9120
4040
2080
ENDCHAR
STARTCHAR U+247F
ENCODING 9343
SWIDTH 750 0
DWIDTH 12 0
BBX 11 11 0 0
BITMAP
2080
4040
9320
B4A0
90A0
9120
9220
9420
97A0
4040
2080
ENDCHAR
STARTCHAR U+2480
ENCODING 9344
SWIDTH 750 0
DWIDTH 12 0
BBX 11 11 0 0
BITMAP
2080
4040
9320
B4A0
90A0
9120
90A0
94A0
9320
4040
2080
ENDCHAR
STARTCHAR U+2481
ENCODING 9345
SWIDTH 750 0
DWIDTH 12 0
BBX 11 11 0 0
BITMAP
2080
4040
90A0
B1A0
92A0
94A0
97A0
90A0
90A0
4040
2080
ENDCHAR
STARTCHAR U+2482
ENCODING 9346
SWIDTH 750 0
DWIDTH 12 0
BBX 11 11 0 0
BITMAP
2080
4040
97A0
B420
9720
94A0
90A0
94A0
9320
4040
2080
ENDCHAR
STARTCHAR U+2483
ENCODING 9347
SWIDTH 750 0
DWIDTH 12 0
BBX 11 11 0 0
BITMAP
2080
4040
9320
B4A0
9420
9720
94A0
94A0
9320
4040
2080
ENDCHAR
STARTCHAR U+2484
ENCODING 9348
SWIDTH 750 0
DWIDTH 12 0
BBX 11 11 0 0
BITMAP
2080
4040
97A0
B0A0
9120
9120
9220
9220
9220
4040
2080
ENDCHAR
STARTCHAR U+2485
ENCODING 9349
SWIDTH 750 0
DWIDTH 12 0
BBX 11 11 0 0
BITMAP
2080
4040
9320
B4A0
94A0
9320
94A0
94A0
9320
4040
2080
ENDCHAR
STARTCHAR U+2486
ENCODING 9350
SWIDTH 750 0
DWIDTH 12 0
BBX 11 11 0 0
BITMAP
2080
4040
9320
B4A0
94A0
93A0
90A0
94A0
9320
4040
2080
ENDCHAR
STARTCHAR U+2487
ENCODING 9351
SWIDTH 750 0
DWIDTH 12 0
BBX 11 11 0 0
BITMAP
2080
4040
9120
AAA0
AAA0
8AA0
92A0
A2A0
B920
4040
2080
ENDCHAR
STARTCHAR U+249C
ENCODING 9372
SWIDTH 750 0
DWIDTH 12 0
BBX 11 11 0 0
BITMAP
2080
4040
8020
8E20
8120
8F20
9120
9120
8F20
4040
2080
ENDCHAR
STARTCHAR U+249D
ENCODING 9373
SWIDTH 750 0
DWIDTH 12 0
BBX 11 11 0 0
BITMAP
2080
4040
9020
9020
9E20
9120
9120
9120
9E20
4040
2080
ENDCHAR
STARTCHAR U+249E
ENCODING 9374
SWIDTH 750 0
DWIDTH 12 0
BBX 11 11 0 0
BITMAP
2080
4040
8020
8E20
9120
9020
9020
9120
8E20
4040
2080
ENDCHAR
STARTCHAR U+249F
ENCODING 9375
SWIDTH 750 0
DWIDTH 12 0
BBX 11 11 0 0
BITMAP
2080
4040
8120
8120
8F20
9120
9120
9120
8F20
4040
2080
ENDCHAR
STARTCHAR U+24A0
ENCODING 9376
SWIDTH 750 0
DWIDTH 12 0
BBX 11 11 0 0
BITMAP
2080
4040
8020
8E20
9120
9E20
9020
9120
8E20
4040
2080
ENDCHAR
STARTCHAR U+24A1
ENCODING 9377
SWIDTH 750 0
DWIDTH 12 0
BBX 11 11 0 0
BITMAP
2080
4040
8720
8820
8820
9F20
8820
8820
8820
4040
2080
ENDCHAR
STARTCHAR U+24A2
ENCODING 9378
SWIDTH 750 0
DWIDTH 12 0
BBX 11 11 0 0
BITMAP
2080
4040
8020
8F20
9120
9120
8F20
8120
8E20
4040
2080
ENDCHAR
STARTCHAR U+24A3
ENCODING 9379
SWIDTH 750 0
DWIDTH 12 0
BBX 11 11 0 0
BITMAP
2080
4040
9020
9020
9620
9920
9120
9120
9120
4040
2080
ENDCHAR
STARTCHAR U+24A4
ENCODING 9380
SWIDTH 750 0
DWIDTH 12 0
BBX 11 11 0 0
BITMAP
2080
4040
8C20
8020
9820
8420
8420
8420
9F20
4040
2080
ENDCHAR
STARTCHAR U+24A5
ENCODING 9381
SWIDTH 750 0
DWIDTH 12 0
BBX 11 11 0 0
BITMAP
2080
4040
8320
8020
8620
8120
8120
9120
8E20
4040
2080
ENDCHAR
STARTCHAR U+24A6
ENCODING 9382
SWIDTH 750 0
DWIDTH 12 0
BBX 11 11 0 0
BITMAP
2080
4040
9020
9320
9420
9820
9420
9220
9120
4040
2080
ENDCHAR
STARTCHAR U+24A7
ENCODING 9383
SWIDTH 750 0
DWIDTH 12 0
BBX 11 11 0 0
BITMAP
2080
4040
9820
8420
8420
8420
8420
8420
9F20
4040
2080
ENDCHAR
STARTCHAR U+24A8
ENCODING 9384
SWIDTH 750 0
DWIDTH 12 0
BBX 11 11 0 0
BITMAP
2080
4040
8020
9A20
9520
9520
9520
9520
9520
4040
2080
ENDCHAR
STARTCHAR U+24A9
ENCODING 9385
SWIDTH 750 0
DWIDTH 12 0
BBX 11 11 0 0
BITMAP
2080
4040
8020
9620
9920
9120
9120
9120
9120
4040
2080
ENDCHAR
STARTCHAR U+24AA
ENCODING 9386
SWIDTH 750 0
DWIDTH 12 0
BBX 11 11 0 0
BITMAP
2080
4040
8020
8E20
9120
9120
9120
9120
8E20
4040
2080
ENDCHAR
STARTCHAR U+24AB
ENCODING 9387
SWIDTH 750 0
DWIDTH 12 0
BBX 11 11 0 0
BITMAP
2080
4040
8020
9E20
9120
9120
9E20
9020
9020
4040
2080
ENDCHAR
STARTCHAR U+24AC
ENCODING 9388
SWIDTH 750 0
DWIDTH 12 0
BBX 11 11 0 0
BITMAP
2080
4040
8020
8F20
9120
9120
8F20
8120
8120
4040
2080
ENDCHAR
STARTCHAR U+24AD
ENCODING 9389
SWIDTH 750 0
DWIDTH 12 0
BBX 11 11 0 0
BITMAP
2080
4040
8020
9720
9820
9020
9020
9020
9020
4040
2080
ENDCHAR
STARTCHAR U+24AE
ENCODING 9390
SWIDTH 750 0
DWIDTH 12 0
BBX 11 11 0 0
BITMAP
2080
4040
8020
8F20
9020
8E20
8120
8120
9E20
4040
2080
ENDCHAR
STARTCHAR U+24AF
ENCODING 9391
SWIDTH 750 0
DWIDTH 12 0
BBX 11 11 0 0
BITMAP
2080
4040
8820
8820
9F20
8820
8820
8820
8720
4040
2080
ENDCHAR
STARTCHAR U+24B0
ENCODING 9392
SWIDTH 750 0
DWIDTH 12 0
BBX 11 11 0 0
BITMAP
2080
4040
8020
9120
9120
9120
9120
9320
8D20
4040
2080
ENDCHAR
STARTCHAR U+24B1
ENCODING 9393
SWIDTH 750 0
DWIDTH 12 0
BBX 11 11 0 0
BITMAP
2080
4040
8020
9120
9120
9120
8A20
8A20
8420
4040
2080
ENDCHAR
STARTCHAR U+24B2
ENCODING 9394
SWIDTH 750 0
DWIDTH 12 0
BBX 11 11 0 0
BITMAP
2080
4040
8020
9120
9520
9520
9520
8A20
8A20
4040
2080
ENDCHAR
STARTCHAR U+24B3
ENCODING 9395
SWIDTH 750 0
DWIDTH 12 0
BBX 11 11 0 0
BITMAP
2080
4040
8020
9120
8A20
8420
8A20
9120
9120
4040
2080
ENDCHAR
STARTCHAR U+24B4
ENCODING 9396
SWIDTH 750 0
DWIDTH 12 0
BBX 11 11 0 0
BITMAP
2080
4040
8020
9120
9120
9120
8F20
8120
9E20
4040
2080
ENDCHAR
STARTCHAR U+24B5
ENCODING 9397
SWIDTH 750 0
DWIDTH 12 0
BBX 11 11 0 0
BITMAP
2080
4040
8020
9F20
8220
8420
8820
9020
9F20
4040
2080
ENDCHAR
STARTCHAR U+24D0
ENCODING 9424
SWIDTH 750 0
DWIDTH 12 0
BBX 11 11 0 0
BITMAP
3F80
4040
8020
8E20
8120
8F20
9120
9120
8F20
4040
3F80
ENDCHAR
STARTCHAR U+24D1
ENCODING 9425
SWIDTH 750 0
DWIDTH 12 0
BBX 11 11 0 0
BITMAP
3F80
4040
9020
9020
9E20
9120
9120
9120
9E20
4040
3F80
ENDCHAR
STARTCHAR U+24D2
ENCODING 9426
SWIDTH 750 0
DWIDTH 12 0
BBX 11 11 0 0
BITMAP
3F80
4040
8020
8E20
9120
9020
9020
9120
8E20
4040
3F80
ENDCHAR
STARTCHAR U+24D3
ENCODING 9427
SWIDTH 750 0
DWIDTH 12 0
BBX 11 11 0 0
BITMAP
3F80
4040
8120
8120
8F20
9120
9120
9120
8F20
4040
3F80
ENDCHAR
STARTCHAR U+24D4
ENCODING 9428
SWIDTH 750 0
DWIDTH 12 0
BBX 11 11 0 0
BITMAP
3F80
4040
8020
8E20
9120
9E20
9020
9120
8E20
4040
3F80
ENDCHAR
STARTCHAR U+24D5
ENCODING 9429
SWIDTH 750 0
DWIDTH 12 0
BBX 11 11 0 0
BITMAP
3F80
4040
8720
8820
8820
9F20
8820
8820
8820
4040
3F80
ENDCHAR
STARTCHAR U+24D6
ENCODING 9430
SWIDTH 750 0
DWIDTH 12 0
BBX 11 11 0 0
BITMAP
3F80
4040
8020
8F20
9120
9120
8F20
8120
8E20
4040
3F80
ENDCHAR
STARTCHAR U+24D7
ENCODING 9431
SWIDTH 750 0
DWIDTH 12 0
BBX 11 11 0 0
BITMAP
3F80
4040
9020
9020
9620
9920
9120
9120
9120
4040
3F80
ENDCHAR
STARTCHAR U+24D8
ENCODING 9432
SWIDTH 750 0
DWIDTH 12 0
BBX 11 11 0 0
BITMAP
3F80
4040
8C20
8020
9820
8420
8420
8420
9F20
4040
3F80
ENDCHAR
STARTCHAR U+24D9
ENCODING 9433
SWIDTH 750 0
DWIDTH 12 0
BBX 11 11 0 0
BITMAP
3F80
4040
8320
8020
8620
8120
8120
9120
8E20
4040
3F80
ENDCHAR
STARTCHAR U+24DA
ENCODING 9434
SWIDTH 750 0
DWIDTH 12 0
BBX 11 11 0 0
BITMAP
3F80
4040
9020
9320
9420
9820
9420
9220
9120
4040
3F80
ENDCHAR
STARTCHAR U+24DB
ENCODING 9435
SWIDTH 750 0
DWIDTH 12 0
BBX 11 11 0 0
BITMAP
3F80
4040
9820
8420
8420
8420
8420
8420
9F20
4040
3F80
ENDCHAR
STARTCHAR U+24DC
ENCODING 9436
SWIDTH 750 0
DWIDTH 12 0
BBX 11 11 0 0
BITMAP
3F80
4040
8020
9A20
9520
9520
9520
9520
9520
4040
3F80
ENDCHAR
STARTCHAR U+24DD
ENCODING 9437
SWIDTH 750 0
DWIDTH 12 0
BBX 11 11 0 0
BITMAP
3F80
4040
8020
9620
9920
9120
9120
9120
9120
4040
3F80
ENDCHAR
STARTCHAR U+24DE
ENCODING 9438
SWIDTH 750 0
DWIDTH 12 0
BBX 11 11 0 0
BITMAP
3F80
4040
8020
8E20
9120
9120
9120
9120
8E20
4040
3F80
ENDCHAR
STARTCHAR U+24DF
ENCODING 9439
SWIDTH 750 0
DWIDTH 12 0
BBX 11 11 0 0
BITMAP
3F80
4040
8020
9E20
9120
9120
9E20
9020
9020
4040
3F80
ENDCHAR
STARTCHAR U+24E0
ENCODING 9440
SWIDTH 750 0
DWIDTH 12 0
BBX 11 11 0 0
BITMAP
3F80
4040
8020
8F20
9120
9120
8F20
8120
8120
4040
3F80
ENDCHAR
STARTCHAR U+24E1
ENCODING 9441
SWIDTH 750 0
DWIDTH 12 0
BBX 11 11 0 0
BITMAP
3F80
4040
8020
9720
9820
9020
9020
9020
9020
4040
3F80
ENDCHAR
STARTCHAR U+24E2
ENCODING 9442
SWIDTH 750 0
DWIDTH 12 0
BBX 11 11 0 0
BITMAP
3F80
4040
8020
8F20
9020
8E20
8120
8120
9E20
4040
3F80
ENDCHAR
STARTCHAR U+24E3
ENCODING 9443
SWIDTH 750 0
DWIDTH 12 0
BBX 11 11 0 0
BITMAP
3F80
4040
8820
8820
9F20
8820
8820
8820
8720
4040
3F80
ENDCHAR
STARTCHAR U+24E4
ENCODING 9444
SWIDTH 750 0
DWIDTH 12 0
BBX 11 11 0 0
BITMAP
3F80
4040
8020
9120
9120
9120
9120
9320
8D20
4040
3F80
ENDCHAR
STARTCHAR U+24E5
ENCODING 9445
SWIDTH 750 0
DWIDTH 12 0
BBX 11 11 0 0
BITMAP
3F80
4040
8020
9120
9120
9120
8A20
8A20
8420
4040
3F80
ENDCHAR
STARTCHAR U+24E6
ENCODING 9446
SWIDTH 750 0
DWIDTH 12 0
BBX 11 11 0 0
BITMAP
3F80
4040
8020
9120
9520
9520
9520
8A20
8A20
4040
3F80
ENDCHAR
STARTCHAR U+24E7
ENCODING 9447
SWIDTH 750 0
DWIDTH 12 0
BBX 11 11 0 0
BITMAP
3F80
4040
8020
9120
8A20
8420
8A20
9120
9120
4040
3F80
ENDCHAR
STARTCHAR U+24E8
ENCODING 9448
SWIDTH 750 0
DWIDTH 12 0
BBX 11 11 0 0
BITMAP
3F80
4040
8020
9120
9120
9120
8F20
8120
9E20
4040
3F80
ENDCHAR
STARTCHAR U+24E9
ENCODING 9449
SWIDTH 750 0
DWIDTH 12 0
BBX 11 11 0 0
BITMAP
3F80
4040
8020
9F20
8220
8420
8820
9020
9F20
4040
3F80
ENDCHAR
STARTCHAR U+24EA
ENCODING 9450
SWIDTH 750 0
DWIDTH 12 0
BBX 11 11 0 0
BITMAP
3F80
4040
8E20
9120
9120
9120
9120
9120
8E20
4040
3F80
ENDCHAR
STARTCHAR U+24EB
ENCODING 9451
SWIDTH 750 0
DWIDTH 12 0
BBX 11 11 0 0
BITMAP
3F80
7FC0
EEE0
CCE0
EEE0
EEE0
EEE0
EEE0
EEE0
7FC0
3F80
ENDCHAR
STARTCHAR U+24EC
ENCODING 9452
SWIDTH 750 0
DWIDTH 12 0
BBX 11 11 0 0
BITMAP
3F80
7FC0
ECE0
CB60
EF60
EEE0
EDE0
EBE0
E860
7FC0
3F80
ENDCHAR
STARTCHAR U+24ED
ENCODING 9453
SWIDTH 750 0
DWIDTH 12 0
BBX 11 11 0 0
BITMAP
3F80
7FC0
ECE0
CB60
EF60
EEE0
EF60
EB60
ECE0
7FC0
3F80
ENDCHAR
STARTCHAR U+24EE
ENCODING 9454
SWIDTH 750 0
DWIDTH 12 0
BBX 11 11 0 0
BITMAP
3F80
7FC0
EF60
CE60
ED60
EB60
E860
EF60
EF60
7FC0
3F80
ENDCHAR
STARTCHAR U+24EF
ENCODING 9455
SWIDTH 750 0
DWIDTH 12 0
BBX 11 11 0 0
BITMAP
3F80
7FC0
E860
CBE0
E8E0
EB60
EF60
EB60
ECE0
7FC0
3F80
ENDCHAR
STARTCHAR U+24F0
ENCODING 9456
SWIDTH 750 0
DWIDTH 12 0
BBX 11 11 0 0
BITMAP
3F80
7FC0
ECE0
CB60
EBE0
E8E0
EB60
EB60
ECE0
7FC0
3F80
ENDCHAR
STARTCHAR U+24F1
ENCODING 9457
SWIDTH 750 0
DWIDTH 12 0
BBX 11 11 0 0
BITMAP
3F80
7FC0
E860
CF60
EEE0
EEE0
EDE0
EDE0
EDE0
7FC0
3F80
ENDCHAR
STARTCHAR U+24F2
ENCODING 9458
SWIDTH 750 0
DWIDTH 12 0
BBX 11 11 0 0
BITMAP
3F80
7FC0
ECE0
CB60
EB60
ECE0
EB60
EB60
ECE0
7FC0
3F80
ENDCHAR
STARTCHAR U+24F3
ENCODING 9459
SWIDTH 750 0
DWIDTH 12 0
BBX 11 11 0 0
BITMAP
3F80
7FC0
ECE0
CB60
EB60
EC60
EF60
EB60
ECE0
7FC0
3F80
ENDCHAR
STARTCHAR U+24F4
ENCODING 9460
SWIDTH 750 0
DWIDTH 12 0
BBX 11 11 0 0
BITMAP
3F80
7FC0
EEE0
D560
D560
F560
ED60
DD60
C6E0
7FC0
3F80
ENDCHAR
STARTCHAR U+24FF
ENCODING 9471
SWIDTH 750 0
DWIDTH 12 0
BBX 11 11 0 0
BITMAP
3F80
7FC0
F1E0
EEE0
EEE0
EEE0
EEE0
EEE0
F1E0
7FC0
3F80
ENDCHAR
STARTCHAR U+2500
ENCODING 9472
SWIDTH 750 0
DWIDTH 12 0
BBX 12 1 0 5
BITMAP
FFF0
ENDCHAR
STARTCHAR U+2501
ENCODING 9473
SWIDTH 750 0
DWIDTH 12 0
BBX 12 4 0 4
BITMAP
FFF0
0000
FFF0
FFF0
ENDCHAR
STARTCHAR U+2502
ENCODING 9474
SWIDTH 750 0
DWIDTH 12 0
BBX 1 12 5 0
BITMAP
80
80
80
80
80
80
80
80
80
80
80
80
ENDCHAR
STARTCHAR U+2503
ENCODING 9475
SWIDTH 750 0
DWIDTH 12 0
BBX 4 12 4 0
BITMAP
B0
B0
B0
B0
B0
B0
B0
B0
B0
B0
B0
B0
ENDCHAR
STARTCHAR U+250C
ENCODING 9484
SWIDTH 750 0
DWIDTH 12 0
BBX 7 6 5 0
BITMAP
3E
40
80
80
80
80
ENDCHAR
STARTCHAR U+250D
ENCODING 9485
SWIDTH 750 0
DWIDTH 12 0
BBX 7 8 5 0
BITMAP
3E
40
BE
FE
C0
80
80
80
ENDCHAR
STARTCHAR U+250E
ENCODING 9486
SWIDTH 750 0
DWIDTH 12 0
BBX 8 6 4 0
BITMAP
3F
58
B0
B0
B0
B0
ENDCHAR
STARTCHAR U+250F
ENCODING 9487
SWIDTH 750 0
DWIDTH 12 0
BBX 8 8 4 0
BITMAP
3F
40
9F
BF
B8
B0
B0
B0
ENDCHAR
STARTCHAR U+2510
ENCODING 9488
SWIDTH 750 0
DWIDTH 12 0
BBX 6 6 0 0
BITMAP
F0
08
04
04
04
04
ENDCHAR
STARTCHAR U+2511
ENCODING 9489
SWIDTH 750 0
DWIDTH 12 0
BBX 6 8 0 0
BITMAP
F0
08
F4
FC
0C
04
04
04
ENDCHAR
STARTCHAR U+2512
ENCODING 9490
SWIDTH 750 0
DWIDTH 12 0
BBX 8 6 0 0
BITMAP
FC
16
0B
0B
0B
0B
ENDCHAR
STARTCHAR U+2513
ENCODING 9491
SWIDTH 750 0
DWIDTH 12 0
BBX 8 8 0 0
BITMAP
FC
06
F3
FB
1B
0B
0B
0B
ENDCHAR
STARTCHAR U+2514
ENCODING 9492
SWIDTH 750 0
DWIDTH 12 0
BBX 7 7 5 5
BITMAP
80
80
80
80
80
40
3E
ENDCHAR
STARTCHAR U+2515
ENCODING 9493
SWIDTH 750 0
DWIDTH 12 0
BBX 7 8 5 4
BITMAP
80
80
80
C0
BE
C0
7E
3E
ENDCHAR
STARTCHAR U+2516
ENCODING 9494
SWIDTH 750 0
DWIDTH 12 0
BBX 8 7 4 5
BITMAP
B0
B0
B0
B0
B0
58
3F
ENDCHAR
STARTCHAR U+2517
ENCODING 9495
SWIDTH 750 0
DWIDTH 12 0
BBX 8 8 4 4
BITMAP
B0
B0
B0
B8
9F
C0
7F
3F
ENDCHAR
STARTCHAR U+2518
ENCODING 9496
SWIDTH 750 0
DWIDTH 12 0
BBX 6 7 0 5
BITMAP
04
04
04
04
04
08
F0
ENDCHAR
STARTCHAR U+2519
ENCODING 9497
SWIDTH 750 0
DWIDTH 12 0
BBX 6 8 0 4
BITMAP
04
04
04
0C
F4
0C
F8
F0
ENDCHAR
STARTCHAR U+251A
ENCODING 9498
SWIDTH 750 0
DWIDTH 12 0
BBX 8 7 0 5
BITMAP
0B
0B
0B
0B
0B
16
FC
ENDCHAR
STARTCHAR U+251B
ENCODING 9499
SWIDTH 750 0
DWIDTH 12 0
BBX 8 8 0 4
BITMAP
0B
0B
0B
1B
F3
07
FE
FC
ENDCHAR
STARTCHAR U+251C
ENCODING 9500
SWIDTH 750 0
DWIDTH 12 0
BBX 7 12 5 0
BITMAP
80
80
80
80
80
80
FE
80
80
80
80
80
ENDCHAR
STARTCHAR U+251D
ENCODING 9501
SWIDTH 750 0
DWIDTH 12 0
BBX 7 12 5 0
BITMAP
80
80
80
80
FE
80
FE
FE
80
80
80
80
ENDCHAR
STARTCHAR U+251E
ENCODING 9502
SWIDTH 750 0
DWIDTH 12 0
BBX 8 12 4 0
BITMAP
B0
B0
B0
B0
B0
58
3F
20
40
40
40
40
ENDCHAR
STARTCHAR U+251F
ENCODING 9503
SWIDTH 750 0
DWIDTH 12 0
BBX 8 12 4 0
BITMAP
40
40
40
40
40
20
3F
58
B0
B0
B0
B0
ENDCHAR
STARTCHAR U+2520
ENCODING 9504
SWIDTH 750 0
DWIDTH 12 0
BBX 8 12 4 0
BITMAP
B0
B0
B0
B0
B0
B0
BF
B0
B0
B0
B0
B0
ENDCHAR
STARTCHAR U+2521
ENCODING 9505
SWIDTH 750 0
DWIDTH 12 0
BBX 8 12 4 0
BITMAP
B0
B0
B0
B8
9F
C0
7F
3F
40
40
40
40
ENDCHAR
STARTCHAR U+2522
ENCODING 9506
SWIDTH 750 0
DWIDTH 12 0
BBX 8 12 4 0
BITMAP
40
40
40
40
3F
40
9F
BF
B8
B0
B0
B0
ENDCHAR
STARTCHAR U+2523
ENCODING 9507
SWIDTH 750 0
DWIDTH 12 0
BBX 8 12 4 0
BITMAP
B0
B0
B0
B0
BF
80
BF
BF
B0
B0
B0
B0
ENDCHAR
STARTCHAR U+2524
ENCODING 9508
SWIDTH 750 0
DWIDTH 12 0
BBX 6 12 0 0
BITMAP
04
04
04
04
04
04
FC
04
04
04
04
04
ENDCHAR
STARTCHAR U+2525
ENCODING 9509
SWIDTH 750 0
DWIDTH 12 0
BBX 6 12 0 0
BITMAP
04
04
04
04
FC
04
FC
FC
04
04
04
04
ENDCHAR
STARTCHAR U+2526
ENCODING 9510
SWIDTH 750 0
DWIDTH 12 0
BBX 8 12 0 0
BITMAP
0B
0B
0B
0B
0B
16
FC
08
04
04
04
04
ENDCHAR
STARTCHAR U+2527
ENCODING 9511
SWIDTH 750 0
DWIDTH 12 0
BBX 8 12 0 0
BITMAP
04
04
04
04
04
08
FC
16
0B
0B
0B
0B
ENDCHAR
STARTCHAR U+2528
ENCODING 9512
SWIDTH 750 0
DWIDTH 12 0
BBX 8 12 0 0
BITMAP
0B
0B
0B
0B
0B
0B
FB
0B
0B
0B
0B
0B
ENDCHAR
STARTCHAR U+2529
ENCODING 9513
SWIDTH 750 0
DWIDTH 12 0
BBX 8 12 0 0
BITMAP
0B
0B
0B
1B
F3
07
FE
FC
04
04
04
04
ENDCHAR
STARTCHAR U+252A
ENCODING 9514
SWIDTH 750 0
DWIDTH 12 0
BBX 8 12 0 0
BITMAP
04
04
04
04
FC
06
F3
FB
1B
0B
0B
0B
ENDCHAR
STARTCHAR U+252B
ENCODING 9515
SWIDTH 750 0
DWIDTH 12 0
BBX 8 12 0 0
BITMAP
0B
0B
0B
0B
FB
03
FB
FB
0B
0B
0B
0B
ENDCHAR
STARTCHAR U+252C
ENCODING 9516
SWIDTH 750 0
DWIDTH 12 0
BBX 12 6 0 0
BITMAP
FFF0
0400
0400
0400
0400
0400
ENDCHAR
STARTCHAR U+252D
ENCODING 9517
SWIDTH 750 0
DWIDTH 12 0
BBX 12 8 0 0
BITMAP
F000
0800
F5F0
FE00
0C00
0400
0400
0400
ENDCHAR
STARTCHAR U+252E
ENCODING 9518
SWIDTH 750 0
DWIDTH 12 0
BBX 12 8 0 0
BITMAP
01F0
0200
F5F0
0FF0
0600
0400
0400
0400
ENDCHAR
STARTCHAR U+252F
ENCODING 9519
SWIDTH 750 0
DWIDTH 12 0
BBX 12 8 0 0
BITMAP
FFF0
0000
FFF0
FFF0
0400
0400
0400
0400
ENDCHAR
STARTCHAR U+2530
ENCODING 9520
SWIDTH 750 0
DWIDTH 12 0
BBX 12 6 0 0
BITMAP
FFF0
0B00
0B00
0B00
0B00
0B00
ENDCHAR
STARTCHAR U+2531
ENCODING 9521
SWIDTH 750 0
DWIDTH 12 0
BBX 12 8 0 0
BITMAP
FC00
0600
F3F0
FB00
1B00
0B00
0B00
0B00
ENDCHAR
STARTCHAR U+2532
ENCODING 9522
SWIDTH 750 0
DWIDTH 12 0
BBX 12 8 0 0
BITMAP
03F0
0400
F9F0
0BF0
0B80
0B00
0B00
0B00
ENDCHAR
STARTCHAR U+2533
ENCODING 9523
SWIDTH 750 0
DWIDTH 12 0
BBX 12 8 0 0
BITMAP
FFF0
0000
FBF0
FBF0
0B00
0B00
0B00
0B00
ENDCHAR
STARTCHAR U+2534
ENCODING 9524
SWIDTH 750 0
DWIDTH 12 0
BBX 12 7 0 5
BITMAP
0400
0400
0400
0400
0400
0400
FFF0
ENDCHAR
STARTCHAR U+2535
ENCODING 9525
SWIDTH 750 0
DWIDTH 12 0
BBX 12 8 0 4
BITMAP
0400
0400
0400
0C00
F400
0E00
F9F0
F000
ENDCHAR
STARTCHAR U+2536
ENCODING 9526
SWIDTH 750 0
DWIDTH 12 0
BBX 12 8 0 4
BITMAP
0400
0400
0400
0600
05F0
0E00
F3F0
01F0
ENDCHAR
STARTCHAR U+2537
ENCODING 9527
SWIDTH 750 0
DWIDTH 12 0
BBX 12 8 0 4
BITMAP
0400
0400
0400
0400
FFF0
0000
FFF0
FFF0
ENDCHAR
STARTCHAR U+2538
ENCODING 9528
SWIDTH 750 0
DWIDTH 12 0
BBX 12 7 0 5
BITMAP
0B00
0B00
0B00
0B00
0B00
0B00
FFF0
ENDCHAR
STARTCHAR U+2539
ENCODING 9529
SWIDTH 750 0
DWIDTH 12 0
BBX 12 8 0 4
BITMAP
0B00
0B00
0B00
1B00
F300
0700
FEF0
FC00
ENDCHAR
STARTCHAR U+253A
ENCODING 9530
SWIDTH 750 0
DWIDTH 12 0
BBX 12 8 0 4
BITMAP
0B00
0B00
0B00
0B80
09F0
0C00
F7F0
03F0
ENDCHAR
STARTCHAR U+253B
ENCODING 9531
SWIDTH 750 0
DWIDTH 12 0
BBX 12 8 0 4
BITMAP
0B00
0B00
0B00
0B00
FBF0
0000
FFF0
FFF0
ENDCHAR
STARTCHAR U+253C
ENCODING 9532
SWIDTH 750 0
DWIDTH 12 0
BBX 12 12 0 0
BITMAP
0400
0400
0400
0400
0400
0400
FFF0
0400
0400
0400
0400
0400
ENDCHAR
STARTCHAR U+253D
ENCODING 9533
SWIDTH 750 0
DWIDTH 12 0
BBX 12 12 0 0
BITMAP
0400
0400
0400
0400
FC00
0400
FFF0
FC00
0400
0400
0400
0400
ENDCHAR
STARTCHAR U+253E
ENCODING 9534
SWIDTH 750 0
DWIDTH 12 0
BBX 12 12 0 0
BITMAP
0400
0400
0400
0400
07F0
0400
FFF0
07F0
0400
0400
0400
0400
ENDCHAR
STARTCHAR U+253F
ENCODING 9535
SWIDTH 750 0
DWIDTH 12 0
BBX 12 12 0 0
BITMAP
0400
0400
0400
0400
FFF0
0000
FFF0
FFF0
0400
0400
0400
0400
ENDCHAR
STARTCHAR U+2540
ENCODING 9536
SWIDTH 750 0
DWIDTH 12 0
BBX 12 12 0 0
BITMAP
0B00
0B00
0B00
0B00
0B00
0B00
FFF0
0400
0400
0400
0400
0400
ENDCHAR
STARTCHAR U+2541
ENCODING 9537
SWIDTH 750 0
DWIDTH 12 0
BBX 12 12 0 0
BITMAP
0400
0400
0400
0400
0400
0400
FFF0
0B00
0B00
0B00
0B00
0B00
ENDCHAR
STARTCHAR U+2542
ENCODING 9538
SWIDTH 750 0
DWIDTH 12 0
BBX 12 12 0 0
BITMAP
0B00
0B00
0B00
0B00
0B00
0B00
FBF0
0B00
0B00
0B00
0B00
0B00
ENDCHAR
STARTCHAR U+2543
ENCODING 9539
SWIDTH 750 0
DWIDTH 12 0
BBX 12 12 0 0
BITMAP
0B00
0B00
0B00
1B00
F300
0700
FEF0
FC00
0400
0400
0400
0400
ENDCHAR
STARTCHAR U+2544
ENCODING 9540
SWIDTH 750 0
DWIDTH 12 0
BBX 12 12 0 0
BITMAP
0B00
0B00
0B00
0B80
09F0
0C00
F7F0
03F0
0400
0400
0400
0400
ENDCHAR
STARTCHAR U+2545
ENCODING 9541
SWIDTH 750 0
DWIDTH 12 0
BBX 12 12 0 0
BITMAP
0400
0400
0400
0400
FC00
0600
F3F0
FB00
1B00
0B00
0B00
0B00
ENDCHAR
STARTCHAR U+2546
ENCODING 9542
SWIDTH 750 0
DWIDTH 12 0
BBX 12 12 0 0
BITMAP
0400
0400
0400
0400
03F0
0400
F9F0
0BF0
0B80
0B00
0B00
0B00
ENDCHAR
STARTCHAR U+2547
ENCODING 9543
SWIDTH 750 0
DWIDTH 12 0
BBX 12 12 0 0
BITMAP
0B00
0B00
0B00
0B00
FBF0
0000
FFF0
FFF0
0400
0400
0400
0400
ENDCHAR
STARTCHAR U+2548
ENCODING 9544
SWIDTH 750 0
DWIDTH 12 0
BBX 12 12 0 0
BITMAP
0400
0400
0400
0400
FFF0
0000
FBF0
FBF0
0B00
0B00
0B00
0B00
ENDCHAR
STARTCHAR U+2549
ENCODING 9545
SWIDTH 750 0
DWIDTH 12 0
BBX 12 12 0 0
BITMAP
0B00
0B00
0B00
0B00
FB00
0300
FBF0
FB00
0B00
0B00
0B00
0B00
ENDCHAR
STARTCHAR U+254A
ENCODING 9546
SWIDTH 750 0
DWIDTH 12 0
BBX 12 12 0 0
BITMAP
0B00
0B00
0B00
0B00
0BF0
0800
FBF0
0BF0
0B00
0B00
0B00
0B00
ENDCHAR
STARTCHAR U+254B
ENCODING 9547
SWIDTH 750 0
DWIDTH 12 0
BBX 12 12 0 0
BITMAP
0B00
0B00
0B00
0B00
FBF0
0000
FBF0
FBF0
0B00
0B00
0B00
0B00
ENDCHAR
STARTCHAR U+2580
ENCODING 9600
SWIDTH 750 0
DWIDTH 12 0
BBX 12 6 0 6
BITMAP
FFF0
FFF0
FFF0
FFF0
FFF0
FFF0
ENDCHAR
STARTCHAR U+2581
ENCODING 9601
SWIDTH 750 0
DWIDTH 12 0
BBX 12 1 0 0
BITMAP
FFF0
ENDCHAR
STARTCHAR U+2582
ENCODING 9602
SWIDTH 750 0
DWIDTH 12 0
BBX 12 3 0 0
BITMAP
FFF0
FFF0
FFF0
ENDCHAR
STARTCHAR U+2583
ENCODING 9603
SWIDTH 750 0
DWIDTH 12 0
BBX 12 5 0 0
BITMAP
FFF0
FFF0
FFF0
FFF0
FFF0
ENDCHAR
STARTCHAR U+2584
ENCODING 9604
SWIDTH 750 0
DWIDTH 12 0
BBX 12 6 0 0
BITMAP
FFF0
FFF0
FFF0
FFF0
FFF0
FFF0
ENDCHAR
STARTCHAR U+2585
ENCODING 9605
SWIDTH 750 0
DWIDTH 12 0
BBX 12 8 0 0
BITMAP
FFF0
FFF0
FFF0
FFF0
FFF0
FFF0
FFF0
FFF0
ENDCHAR
STARTCHAR U+2586
ENCODING 9606
SWIDTH 750 0
DWIDTH 12 0
BBX 12 9 0 0
BITMAP
FFF0
FFF0
FFF0
FFF0
FFF0
FFF0
FFF0
FFF0
FFF0
ENDCHAR
STARTCHAR U+2587
ENCODING 9607
SWIDTH 750 0
DWIDTH 12 0
BBX 12 11 0 0
BITMAP
FFF0
FFF0
FFF0
FFF0
FFF0
FFF0
FFF0
FFF0
FFF0
FFF0
FFF0
ENDCHAR
STARTCHAR U+2588
ENCODING 9608
SWIDTH 750 0
DWIDTH 12 0
BBX 12 12 0 0
BITMAP
FFF0
FFF0
FFF0
FFF0
FFF0
FFF0
FFF0
FFF0
FFF0
FFF0
FFF0
FFF0
ENDCHAR
STARTCHAR U+2589
ENCODING 9609
SWIDTH 750 0
DWIDTH 12 0
BBX 10 12 0 0
BITMAP
FFC0
FFC0
FFC0
FFC0
FFC0
FFC0
FFC0
FFC0
FFC0
FFC0
FFC0
FFC0
ENDCHAR
STARTCHAR U+258A
ENCODING 9610
SWIDTH 750 0
DWIDTH 12 0
BBX 9 12 0 0
BITMAP
FF80
FF80
FF80
FF80
FF80
FF80
FF80
FF80
FF80
FF80
FF80
FF80
ENDCHAR
STARTCHAR U+258B
ENCODING 9611
SWIDTH 750 0
DWIDTH 12 0
BBX 7 12 0 0
BITMAP
FE
FE
FE
FE
FE
FE
FE
FE
FE
FE
FE
FE
ENDCHAR
STARTCHAR U+258C
ENCODING 9612
SWIDTH 750 0
DWIDTH 12 0
BBX 6 12 0 0
BITMAP
FC
FC
FC
FC
FC
FC
FC
FC
FC
FC
FC
FC
ENDCHAR
STARTCHAR U+258D
ENCODING 9613
SWIDTH 750 0
DWIDTH 12 0
BBX 4 12 0 0
BITMAP
F0
F0
F0
F0
F0
F0
F0
F0
F0
F0
F0
F0
ENDCHAR
STARTCHAR U+258E
ENCODING 9614
SWIDTH 750 0
DWIDTH 12 0
BBX 3 12 0 0
BITMAP
E0
E0
E0
E0
E0
E0
E0
E0
E0
E0
E0
E0
ENDCHAR
STARTCHAR U+258F
ENCODING 9615
SWIDTH 750 0
DWIDTH 12 0
BBX 1 12 0 0
BITMAP
80
80
80
80
80
80
80
80
80
80
80
80
ENDCHAR
STARTCHAR U+2590
ENCODING 9616
SWIDTH 750 0
DWIDTH 12 0
BBX 6 12 6 0
BITMAP
FC
FC
FC
FC
FC
FC
FC
FC
FC
FC
FC
FC
ENDCHAR
STARTCHAR U+2591
ENCODING 9617
SWIDTH 750 0
DWIDTH 12 0
BBX 11 12 0 0
BITMAP
8880
2220
8880
2220
8880
2220
8880
2220
8880
2220
8880
2220
ENDCHAR
STARTCHAR U+2592
ENCODING 9618
SWIDTH 750 0
DWIDTH 12 0
BBX 12 12 0 0
BITMAP
AAA0
5550
AAA0
5550
AAA0
5550
AAA0
5550
AAA0
5550
AAA0
5550
ENDCHAR
STARTCHAR U+2593
ENCODING 9619
SWIDTH 750 0
DWIDTH 12 0
BBX 12 12 0 0
BITMAP
DDD0
7770
DDD0
7770
DDD0
7770
DDD0
7770
DDD0
7770
DDD0
7770
ENDCHAR
STARTCHAR U+25A0
ENCODING 9632
SWIDTH 750 0
DWIDTH 12 0
BBX 9 9 1 1
BITMAP
FF80
FF80
FF80
FF80
FF80
FF80
FF80
FF80
FF80
ENDCHAR
STARTCHAR U+25A1
ENCODING 9633
SWIDTH 750 0
DWIDTH 12 0
BBX 9 9 1 1
BITMAP
FF80
8080
8080
8080
8080
8080
8080
8080
FF80
ENDCHAR
STARTCHAR U+25A2
ENCODING 9634
SWIDTH 750 0
DWIDTH 12 0
BBX 9 9 1 1
BITMAP
7F00
8080
8080
8080
8080
8080
8080
8080
7F00
ENDCHAR
STARTCHAR U+25A3
ENCODING 9635
SWIDTH 750 0
DWIDTH 12 0
BBX 9 9 1 1
BITMAP
FF80
8080
BE80
BE80
BE80
BE80
BE80
8080
FF80
ENDCHAR
STARTCHAR U+25A4
ENCODING 9636
SWIDTH 750 0
DWIDTH 12 0
BBX 9 9 1 1
BITMAP
FF80
8080
FF80
8080
FF80
8080
FF80
8080
FF80
ENDCHAR
STARTCHAR U+25A5
ENCODING 9637
SWIDTH 750 0
DWIDTH 12 0
BBX 9 9 1 1
BITMAP
FF80
AA80
AA80
AA80
AA80
AA80
AA80
AA80
FF80
ENDCHAR
STARTCHAR U+25A6
ENCODING 9638
SWIDTH 750 0
DWIDTH 12 0
BBX 9 9 1 1
BITMAP
FF80
AA80
FF80
AA80
FF80
AA80
FF80
AA80
FF80
ENDCHAR
STARTCHAR U+25A7
ENCODING 9639
SWIDTH 750 0
DWIDTH 12 0
BBX 9 9 1 1
BITMAP
FF80
9280
C980
A480
9280
C980
A480
9280
FF80
ENDCHAR
STARTCHAR U+25A8
ENCODING 9640
SWIDTH 750 0
DWIDTH 12 0
BBX 9 9 1 1
BITMAP
FF80
A480
C980
9280
A480
C980
9280
A480
FF80
ENDCHAR
STARTCHAR U+25A9
ENCODING 9641
SWIDTH 750 0
DWIDTH 12 0
BBX 9 9 1 1
BITMAP
FF80
AA80
D580
AA80
D580
AA80
D580
AA80
FF80
ENDCHAR
STARTCHAR U+25B2
ENCODING 9650
SWIDTH 750 0
DWIDTH 12 0
BBX 9 9 1 1
BITMAP
0800
1C00
1C00
3E00
3E00
7F00
7F00
FF80
FF80
ENDCHAR
STARTCHAR U+25B3
ENCODING 9651
SWIDTH 750 0
DWIDTH 12 0
BBX 9 9 1 1
BITMAP
0800
1400
1400
2200
2200
4100
4100
8080
FF80
ENDCHAR
STARTCHAR U+25B6
ENCODING 9654
SWIDTH 750 0
DWIDTH 12 0
BBX 9 9 1 1
BITMAP
C000
F000
FC00
FF00
FF80
FF00
FC00
F000
C000
ENDCHAR
STARTCHAR U+25B7
ENCODING 9655
SWIDTH 750 0
DWIDTH 12 0
BBX 9 9 1 1
BITMAP
C000
B000
8C00
8300
8080
8300
8C00
B000
C000
ENDCHAR
STARTCHAR U+25BC
ENCODING 9660
SWIDTH 750 0
DWIDTH 12 0
BBX 9 9 1 1
BITMAP
FF80
FF80
7F00
7F00
3E00
3E00
1C00
1C00
0800
ENDCHAR
STARTCHAR U+25BD
ENCODING 9661
SWIDTH 750 0
DWIDTH 12 0
BBX 9 9 1 1
BITMAP
FF80
8080
4100
4100
2200
2200
1400
1400
0800
ENDCHAR
STARTCHAR U+25C0
ENCODING 9664
SWIDTH 750 0
DWIDTH 12 0
BBX 9 9 1 1
BITMAP
0180
0780
1F80
7F80
FF80
7F80
1F80
0780
0180
ENDCHAR
STARTCHAR U+25C1
ENCODING 9665
SWIDTH 750 0
DWIDTH 12 0
BBX 9 9 1 1
BITMAP
0180
0680
1880
6080
8080
6080
1880
0680
0180
ENDCHAR
STARTCHAR U+25C6
ENCODING 9670
SWIDTH 750 0
DWIDTH 12 0
BBX 11 11 0 0
BITMAP
0400
0E00
1F00
3F80
7FC0
FFE0
7FC0
3F80
1F00
0E00
0400
ENDCHAR
STARTCHAR U+25C7
ENCODING 9671
SWIDTH 750 0
DWIDTH 12 0
BBX 11 11 0 0
BITMAP
0400
0A00
1100
2080
4040
8020
4040
2080
1100
0A00
0400
ENDCHAR
STARTCHAR U+25C8
ENCODING 9672
SWIDTH 750 0
DWIDTH 12 0
BBX 11 11 0 0
BITMAP
0400
0A00
1100
2480
4E40
9F20
4E40
2480
1100
0A00
0400
ENDCHAR
STARTCHAR U+25C9
ENCODING 9673
SWIDTH 750 0
DWIDTH 12 0
BBX 9 9 1 1
BITMAP
3E00
4100
9C80
BE80
BE80
BE80
9C80
4100
3E00
ENDCHAR
STARTCHAR U+25CB
ENCODING 9675
SWIDTH 750 0
DWIDTH 12 0
BBX 9 9 1 1
BITMAP
3E00
4100
8080
8080
8080
8080
8080
4100
3E00
ENDCHAR
STARTCHAR U+25CC
ENCODING 9676
SWIDTH 750 0
DWIDTH 12 0
BBX 11 11 0 0
BITMAP
0400
1100
0000
4040
0000
8020
0000
4040
0000
1100
0400
ENDCHAR
STARTCHAR U+25CE
ENCODING 9678
SWIDTH 750 0
DWIDTH 12 0
BBX 9 9 1 1
BITMAP
3E00
4100
9C80
A280
A280
A280
9C80
4100
3E00
ENDCHAR
STARTCHAR U+25CF
ENCODING 9679
SWIDTH 750 0
DWIDTH 12 0
BBX 9 9 1 1
BITMAP
3E00
7F00
FF80
FF80
FF80
FF80
FF80
7F00
3E00
ENDCHAR
STARTCHAR U+25D0
ENCODING 9680
SWIDTH 750 0
DWIDTH 12 0
BBX 9 9 1 1
BITMAP
3E00
7900
F880
F880
F880
F880
F880
7900
3E00
ENDCHAR
STARTCHAR U+25D1
ENCODING 9681
SWIDTH 750 0
DWIDTH 12 0
BBX 9 9 1 1
BITMAP
3E00
4F00
8F80
8F80
8F80
8F80
8F80
4F00
3E00
ENDCHAR
STARTCHAR U+25EF
ENCODING 9711
SWIDTH 750 0
DWIDTH 12 0
BBX 11 11 0 0
BITMAP
0E00
3180
4040
4040
8020
8020
8020
4040
4040
3180
0E00
ENDCHAR
STARTCHAR U+2600
ENCODING 9728
SWIDTH 750 0
DWIDTH 12 0
BBX 11 11 0 0
BITMAP
0400
4440
2080
0E00
1F00
DF60
1F00
0E00
2080
4440
0400
ENDCHAR
STARTCHAR U+2601
ENCODING 9729
SWIDTH 750 0
DWIDTH 12 0
BBX 11 7 0 2
BITMAP
3800
7C00
7EC0
FFE0
FFE0
FFE0
7FC0
ENDCHAR
STARTCHAR U+2602
ENCODING 9730
SWIDTH 750 0
DWIDTH 12 0
BBX 11 11 0 0
BITMAP
0400
0400
3F80
7FC0
FFE0
9120
0400
0400
0400
1400
0800
ENDCHAR
STARTCHAR U+2603
ENCODING 9731
SWIDTH 750 0
DWIDTH 12 0
BBX 7 9 2 1
BITMAP
38
7C
7C
38
7C
FE
FE
FE
7C
ENDCHAR
STARTCHAR U+2605
ENCODING 9733
SWIDTH 750 0
DWIDTH 12 0
BBX 9 9 1 1
BITMAP
0800
0800
1C00
FF80
7F00
3E00
3E00
7700
6300
ENDCHAR
STARTCHAR U+2606
ENCODING 9734
SWIDTH 750 0
DWIDTH 12 0
BBX 9 9 1 1
BITMAP
0800
0800
1400
F780
4100
2200
2A00
5500
6300
ENDCHAR
STARTCHAR U+260E
ENCODING 9742
SWIDTH 750 0
DWIDTH 12 0
BBX 11 9 0 1
BITMAP
7FC0
E0E0
D160
1F00
3180
2E80
6EC0
71C0
7FC0
ENDCHAR
STARTCHAR U+260F
ENCODING 9743
SWIDTH 750 0
DWIDTH 12 0
BBX 11 9 0 1
BITMAP
7FC0
8020
D160
1F00
2080
2E80
4E40
4040
7FC0
ENDCHAR
STARTCHAR U+2610
ENCODING 9744
SWIDTH 750 0
DWIDTH 12 0
BBX 9 9 1 1
BITMAP
7F00
8080
8080
8080
8080
8080
8080
8080
7F00
ENDCHAR
STARTCHAR U+2611
ENCODING 9745
SWIDTH 750 0
DWIDTH 12 0
BBX 9 9 1 1
BITMAP
7E80
8180
8300
8680
6C80
B880
9080
8080
7F00
ENDCHAR
STARTCHAR U+2612
ENCODING 9746
SWIDTH 750 0
DWIDTH 12 0
BBX 9 9 1 1
BITMAP
7F00
8080
A280
9480
8880
9480
A280
8080
7F00
ENDCHAR
STARTCHAR U+2613
ENCODING 9747
SWIDTH 750 0
DWIDTH 12 0
BBX 9 9 1 1
BITMAP
8080
4100
2200
1400
0800
1400
2200
4100
8080
ENDCHAR
STARTCHAR U+261C
ENCODING 9756
SWIDTH 750 0
DWIDTH 12 0
BBX 11 9 0 1
BITMAP
7FA0
8060
7C60
2060
1C60
2060
1C60
2060
1FA0
ENDCHAR
STARTCHAR U+261E
ENCODING 9758
SWIDTH 750 0
DWIDTH 12 0
BBX 11 9 0 1
BITMAP
BFC0
C020
C7C0
C080
C700
C080
C700
C080
BF00
ENDCHAR
STARTCHAR U+2620
ENCODING 9760
SWIDTH 750 0
DWIDTH 12 0
BBX 11 11 0 0
BITMAP
1F00
3F80
3F80
3F80
2480
2480
1F00
0A00
60C0
1F00
E0E0
ENDCHAR
STARTCHAR U+2640
ENCODING 9792
SWIDTH 750 0
DWIDTH 12 0
BBX 5 10 3 0
BITMAP
70
88
88
88
70
20
F8
20
20
20
ENDCHAR
STARTCHAR U+2642
ENCODING 9794
SWIDTH 750 0
DWIDTH 12 0
BBX 9 9 1 1
BITMAP
0780
0180
0280
0480
7800
8800
8800
8800
7000
ENDCHAR
STARTCHAR U+2648
ENCODING 9800
SWIDTH 750 0
DWIDTH 12 0
BBX 11 9 0 1
BITMAP
3180
4A40
8420
8420
4440
2480
0400
0400
0400
ENDCHAR
STARTCHAR U+2649
ENCODING 9801
SWIDTH 750 0
DWIDTH 12 0
BBX 9 9 1 1
BITMAP
8080
6300
1C00
2200
4100
4100
4100
2200
1C00
ENDCHAR
STARTCHAR U+264A
ENCODING 9802
SWIDTH 750 0
DWIDTH 12 0
BBX 9 9 1 1
BITMAP
8080
7F00
2200
2200
2200
2200
2200
7F00
8080
ENDCHAR
STARTCHAR U+264B
ENCODING 9803
SWIDTH 750 0
DWIDTH 12 0
BBX 9 9 1 1
BITMAP
1C00
6300
9080
9000
6300
0480
8480
6300
1C00
ENDCHAR
STARTCHAR U+264C
ENCODING 9804
SWIDTH 750 0
DWIDTH 12 0
BBX 11 9 0 1
BITMAP
0E00
1100
1100
1100
7100
9100
9100
6120
00C0
ENDCHAR
STARTCHAR U+264D
ENCODING 9805
SWIDTH 750 0
DWIDTH 12 0
BBX 11 9 0 1
BITMAP
B600
4900
49C0
4920
4920
4940
4940
4880
4B60
ENDCHAR
STARTCHAR U+264E
ENCODING 9806
SWIDTH 750 0
DWIDTH 12 0
BBX 9 9 1 1
BITMAP
1C00
2200
4100
4100
4100
2200
F780
0000
FF80
ENDCHAR
STARTCHAR U+264F
ENCODING 9807
SWIDTH 750 0
DWIDTH 12 0
BBX 12 10 0 0
BITMAP
B600
4900
4900
4900
4900
4940
4920
48F0
4820
0040
ENDCHAR
STARTCHAR U+2650
ENCODING 9808
SWIDTH 750 0
DWIDTH 12 0
BBX 9 9 1 1
BITMAP
0780
0180
2280
1480
0800
1400
2200
4000
8000
ENDCHAR
STARTCHAR U+2651
ENCODING 9809
SWIDTH 750 0
DWIDTH 12 0
BBX 10 9 1 1
BITMAP
9800
6400
4400
4400
4400
4580
4240
4240
4D80
ENDCHAR
STARTCHAR U+2652
ENCODING 9810
SWIDTH 750 0
DWIDTH 12 0
BBX 10 8 1 2
BITMAP
2480
5B40
9240
0000
0000
2480
5B40
9240
ENDCHAR
STARTCHAR U+2653
ENCODING 9811
SWIDTH 750 0
DWIDTH 12 0
BBX 9 9 1 1
BITMAP
8080
4100
2200
2200
FF80
2200
2200
4100
8080
ENDCHAR
STARTCHAR U+2660
ENCODING 9824
SWIDTH 750 0
DWIDTH 12 0
BBX 9 10 1 1
BITMAP
0800
1C00
3E00
7F00
FF80
FF80
FF80
6B00
0800
3E00
ENDCHAR
STARTCHAR U+2661
ENCODING 9825
SWIDTH 750 0
DWIDTH 12 0
BBX 9 8 1 1
BITMAP
6300
9480
8880
8080
4100
2200
1400
0800
ENDCHAR
STARTCHAR U+2662
ENCODING 9826
SWIDTH 750 0
DWIDTH 12 0
BBX 9 9 1 1
BITMAP
0800
1400
2200
4100
8080
4100
2200
1400
0800
ENDCHAR
STARTCHAR U+2663
ENCODING 9827
SWIDTH 750 0
DWIDTH 12 0
BBX 9 10 1 1
BITMAP
1C00
3E00
3E00
1C00
6B00
FF80
FF80
6B00
0800
3E00
ENDCHAR
STARTCHAR U+2664
ENCODING 9828
SWIDTH 750 0
DWIDTH 12 0
BBX 9 10 1 1
BITMAP
0800
1400
2200
4100
8080
8880
9C80
6B00
0800
3E00
ENDCHAR
STARTCHAR U+2665
ENCODING 9829
SWIDTH 750 0
DWIDTH 12 0
BBX 9 8 1 1
BITMAP
6300
F780
FF80
FF80
7F00
3E00
1C00
0800
ENDCHAR
STARTCHAR U+2666
ENCODING 9830
SWIDTH 750 0
DWIDTH 12 0
BBX 9 9 1 1
BITMAP
0800
1C00
3E00
7F00
FF80
7F00
3E00
1C00
0800
ENDCHAR
STARTCHAR U+2667
ENCODING 9831
SWIDTH 750 0
DWIDTH 12 0
BBX 9 10 1 1
BITMAP
1C00
2200
2200
6300
9480
8080
9480
6B00
0800
3E00
ENDCHAR
STARTCHAR U+2668
ENCODING 9832
SWIDTH 750 0
DWIDTH 12 0
BBX 12 10 0 1
BITMAP
1240
2480
2480
2480
1240
5260
9250
A490
4020
3FC0
ENDCHAR
STARTCHAR U+2669
ENCODING 9833
SWIDTH 750 0
DWIDTH 12 0
BBX 5 11 2 0
BITMAP
08
08
08
08
08
08
08
08
78
F0
60
ENDCHAR
STARTCHAR U+266A
ENCODING 9834
SWIDTH 750 0
DWIDTH 12 0
BBX 8 11 2 0
BITMAP
0C
0E
0B
09
09
0A
08
08
78
F0
60
ENDCHAR
STARTCHAR U+266B
ENCODING 9835
SWIDTH 750 0
DWIDTH 12 0
BBX 9 11 1 0
BITMAP
0380
1F80
1C80
1080
1080
1080
1080
1380
7780
F300
6000
ENDCHAR
STARTCHAR U+266C
ENCODING 9836
SWIDTH 750 0
DWIDTH 12 0
BBX 9 11 1 0
BITMAP
0380
1C80
1380
1C80
1080
1080
1080
1380
7780
F300
6000
ENDCHAR
STARTCHAR U+266D
ENCODING 9837
SWIDTH 750 0
DWIDTH 12 0
BBX 5 11 4 0
BITMAP
80
80
80
80
80
80
B0
D8
90
A0
C0
ENDCHAR
STARTCHAR U+266E
ENCODING 9838
SWIDTH 750 0
DWIDTH 12 0
BBX 4 11 4 0
BITMAP
80
80
80
B0
D0
90
B0
D0
10
10
10
ENDCHAR
STARTCHAR U+266F
ENCODING 9839
SWIDTH 750 0
DWIDTH 12 0
BBX 8 10 2 1
BITMAP
04
24
27
3C
E4
27
3C
E4
24
20
ENDCHAR
STARTCHAR U+2680
ENCODING 9856
SWIDTH 750 0
DWIDTH 12 0
BBX 12 12 0 0
BITMAP
7FE0
8010
8010
8010
8610
8F10
8F10
8610
8010
8010
8010
7FE0
ENDCHAR
STARTCHAR U+2681
ENCODING 9857
SWIDTH 750 0
DWIDTH 12 0
BBX 12 12 0 0
BITMAP
7FE0
8010
80D0
80D0
8010
8010
8010
8010
B010
B010
8010
7FE0
ENDCHAR
STARTCHAR U+2682
ENCODING 9858
SWIDTH 750 0
DWIDTH 12 0
BBX 12 12 0 0
BITMAP
7FE0
8010
80D0
80D0
8010
8610
8610
8010
B010
B010
8010
7FE0
ENDCHAR
STARTCHAR U+2683
ENCODING 9859
SWIDTH 750 0
DWIDTH 12 0
BBX 12 12 0 0
BITMAP
7FE0
8010
B0D0
B0D0
8010
8010
8010
8010
B0D0
B0D0
8010
7FE0
ENDCHAR
STARTCHAR U+2684
ENCODING 9860
SWIDTH 750 0
DWIDTH 12 0
BBX 12 12 0 0
BITMAP
7FE0
8010
B0D0
B0D0
8010
8610
8610
8010
B0D0
B0D0
8010
7FE0
ENDCHAR
STARTCHAR U+2685
ENCODING 9861
SWIDTH 750 0
DWIDTH 12 0
BBX 12 12 0 0
BITMAP
7FE0
8010
B0D0
B0D0
8010
B0D0
B0D0
8010
B0D0
B0D0
8010
7FE0
ENDCHAR
STARTCHAR U+2756
ENCODING 10070
SWIDTH 750 0
DWIDTH 12 0
BBX 11 11 0 0
BITMAP
0400
0E00
1F00
2E80
75C0
FBE0
75C0
2E80
1F00
0E00
0400
ENDCHAR
STARTCHAR U+2764
ENCODING 10084
SWIDTH 750 0
DWIDTH 12 0
BBX 11 9 0 1
BITMAP
71C0
FBE0
FFE0
FFE0
7FC0
3F80
1F00
0E00
0400
ENDCHAR
STARTCHAR U+2776
ENCODING 10102
SWIDTH 750 0
DWIDTH 12 0
BBX 11 11 0 0
BITMAP
3F80
7FC0
FBE0
F3E0
FBE0
FBE0
FBE0
FBE0
FBE0
7FC0
3F80
ENDCHAR
STARTCHAR U+2777
ENCODING 10103
SWIDTH 750 0
DWIDTH 12 0
BBX 11 11 0 0
BITMAP
3F80
7FC0
F1E0
EEE0
EEE0
FDE0
FBE0
F7E0
E0E0
7FC0
3F80
ENDCHAR
STARTCHAR U+2778
ENCODING 10104
SWIDTH 750 0
DWIDTH 12 0
BBX 11 11 0 0
BITMAP
3F80
7FC0
F1E0
EEE0
FEE0
F9E0
FEE0
EEE0
F1E0
7FC0
3F80
ENDCHAR
STARTCHAR U+2779
ENCODING 10105
SWIDTH 750 0
DWIDTH 12 0
BBX 11 11 0 0
BITMAP
3F80
7FC0
FDE0
F9E0
F5E0
EDE0
E0E0
FDE0
FDE0
7FC0
3F80
ENDCHAR
STARTCHAR U+277A
ENCODING 10106
SWIDTH 750 0
DWIDTH 12 0
BBX 11 11 0 0
BITMAP
3F80
7FC0
E0E0
EFE0
E1E0
FEE0
FEE0
EEE0
F1E0
7FC0
3F80
ENDCHAR
STARTCHAR U+277B
ENCODING 10107
SWIDTH 750 0
DWIDTH 12 0
BBX 11 11 0 0
BITMAP
3F80
7FC0
F1E0
EEE0
EFE0
E1E0
EEE0
EEE0
F1E0
7FC0
3F80
ENDCHAR
STARTCHAR U+277C
ENCODING 10108
SWIDTH 750 0
DWIDTH 12 0
BBX 11 11 0 0
BITMAP
3F80
7FC0
E1E0
FEE0
FEE0
FDE0
FDE0
FBE0
FBE0
7FC0
3F80
ENDCHAR
STARTCHAR U+277D
ENCODING 10109
SWIDTH 750 0
DWIDTH 12 0
BBX 11 11 0 0
BITMAP
3F80
7FC0
F1E0
EEE0
EEE0
F1E0
EEE0
EEE0
F1E0
7FC0
3F80
ENDCHAR
STARTCHAR U+277E
ENCODING 10110
SWIDTH 750 0
DWIDTH 12 0
BBX 11 11 0 0
BITMAP
3F80
7FC0
F1E0
EEE0
EEE0
F0E0
FEE0
EEE0
F1E0
7FC0
3F80
ENDCHAR
STARTCHAR U+277F
ENCODING 10111
SWIDTH 750 0
DWIDTH 12 0
BBX 11 11 0 0
BITMAP
3F80
7FC0
ECE0
CB60
EB60
EB60
EB60
EB60
ECE0
7FC0
3F80
ENDCHAR
STARTCHAR U+2934
ENCODING 10548
SWIDTH 750 0
DWIDTH 12 0
BBX 10 10 1 0
BITMAP
0100
0380
0540
0100
0100
0200
0200
0400
1800
E000
ENDCHAR
STARTCHAR U+2935
ENCODING 10549
SWIDTH 750 0
DWIDTH 12 0
BBX 10 10 1 0
BITMAP
E000
1800
0400
0200
0200
0100
0100
0540
0380
0100
ENDCHAR
STARTCHAR U+3000
ENCODING 12288
SWIDTH 750 0
DWIDTH 12 0
BBX 0 0 0 0
BITMAP
ENDCHAR
STARTCHAR U+3001
ENCODING 12289
SWIDTH 750 0
DWIDTH 12 0
BBX 2 3 1 0
BITMAP
80
40
40
ENDCHAR
STARTCHAR U+3002
ENCODING 12290
SWIDTH 750 0
DWIDTH 12 0
BBX 4 4 1 0
BITMAP
60
90
90
60
ENDCHAR
STARTCHAR U+3003
ENCODING 12291
SWIDTH 750 0
DWIDTH 12 0
BBX 6 5 2 3
BITMAP
24
24
48
48
90
ENDCHAR
STARTCHAR U+3005
ENCODING 12293
SWIDTH 750 0
DWIDTH 12 0
BBX 10 11 0 0
BITMAP
1000
1F80
1040
2040
2040
4080
8080
1900
0600
0100
00C0
ENDCHAR
STARTCHAR U+3006
ENCODING 12294
SWIDTH 750 0
DWIDTH 12 0
BBX 11 10 0 0
BITMAP
0020
0040
1880
2500
4200
4500
8880
9040
A040
C000
ENDCHAR
STARTCHAR U+3007
ENCODING 12295
SWIDTH 750 0
DWIDTH 12 0
BBX 11 11 0 0
BITMAP
1F00
2080
4040
8020
8020
8020
8020
8020
4040
2080
1F00
ENDCHAR
STARTCHAR U+3008
ENCODING 12296
SWIDTH 750 0
DWIDTH 12 0
BBX 6 11 4 0
BITMAP
04
08
10
20
40
80
40
20
10
08
04
ENDCHAR
STARTCHAR U+3009
ENCODING 12297
SWIDTH 750 0
DWIDTH 12 0
BBX 6 11 1 0
BITMAP
80
40
20
10
08
04
08
10
20
40
80
ENDCHAR
STARTCHAR U+300A
ENCODING 12298
SWIDTH 750 0
DWIDTH 12 0
BBX 9 11 1 0
BITMAP
0480
0900
1200
2400
4800
9000
4800
2400
1200
0900
0480
ENDCHAR
STARTCHAR U+300B
ENCODING 12299
SWIDTH 750 0
DWIDTH 12 0
BBX 9 11 1 0
BITMAP
9000
4800
2400
1200
0900
0480
0900
1200
2400
4800
9000
ENDCHAR
STARTCHAR U+300C
ENCODING 12300
SWIDTH 750 0
DWIDTH 12 0
BBX 4 10 6 1
BITMAP
F0
80
80
80
80
80
80
80
80
80
ENDCHAR
STARTCHAR U+300D
ENCODING 12301
SWIDTH 750 0
DWIDTH 12 0
BBX 4 10 1 0
BITMAP
10
10
10
10
10
10
10
10
10
F0
ENDCHAR
STARTCHAR U+300E
ENCODING 12302
SWIDTH 750 0
DWIDTH 12 0
BBX 5 10 5 1
BITMAP
F8
88
B8
A0
A0
A0
A0
A0
A0
E0
ENDCHAR
STARTCHAR U+300F
ENCODING 12303
SWIDTH 750 0
DWIDTH 12 0
BBX 5 10 1 0
BITMAP
38
28
28
28
28
28
28
E8
88
F8
ENDCHAR
STARTCHAR U+3010
ENCODING 12304
SWIDTH 750 0
DWIDTH 12 0
BBX 4 11 6 0
BITMAP
F0
E0
E0
C0
C0
C0
C0
C0
E0
E0
F0
ENDCHAR
STARTCHAR U+3011
ENCODING 12305
SWIDTH 750 0
DWIDTH 12 0
BBX 4 11 1 0
BITMAP
F0
70
70
30
30
30
30
30
70
70
F0
ENDCHAR
STARTCHAR U+3012
ENCODING 12306
SWIDTH 750 0
DWIDTH 12 0
BBX 9 9 1 1
BITMAP
FF80
0000
0000
FF80
0800
0800
0800
0800
0800
ENDCHAR
STARTCHAR U+3013
ENCODING 12307
SWIDTH 750 0
DWIDTH 12 0
BBX 9 7 1 2
BITMAP
FF80
FF80
0000
0000
0000
FF80
FF80
ENDCHAR
STARTCHAR U+3014
ENCODING 12308
SWIDTH 750 0
DWIDTH 12 0
BBX 5 11 5 0
BITMAP
18
60
80
80
80
80
80
80
80
60
18
ENDCHAR
STARTCHAR U+3015
ENCODING 12309
SWIDTH 750 0
DWIDTH 12 0
BBX 5 11 1 0
BITMAP
C0
30
08
08
08
08
08
08
08
30
C0
ENDCHAR
STARTCHAR U+3016
ENCODING 12310
SWIDTH 750 0
DWIDTH 12 0
BBX 5 11 5 0
BITMAP
F8
88
90
A0
A0
A0
A0
A0
90
88
F8
ENDCHAR
STARTCHAR U+3017
ENCODING 12311
SWIDTH 750 0
DWIDTH 12 0
BBX 5 11 1 0
BITMAP
F8
88
48
28
28
28
28
28
48
88
F8
ENDCHAR
STARTCHAR U+3018
ENCODING 12312
SWIDTH 750 0
DWIDTH 12 0
BBX 6 11 4 0
BITMAP
1C
64
98
A0
A0
A0
A0
A0
98
64
1C
ENDCHAR
STARTCHAR U+3019
ENCODING 12313
SWIDTH 750 0
DWIDTH 12 0
BBX 6 11 1 0
BITMAP
E0
98
64
14
14
14
14
14
64
98
E0
ENDCHAR
STARTCHAR U+301A
ENCODING 12314
SWIDTH 750 0
DWIDTH 12 0
BBX 6 11 4 0
BITMAP
FC
A0
A0
A0
A0
A0
A0
A0
A0
A0
FC
ENDCHAR
STARTCHAR U+301B
ENCODING 12315
SWIDTH 750 0
DWIDTH 12 0
BBX 6 11 1 0
BITMAP
FC
14
14
14
14
14
14
14
14
14
FC
ENDCHAR
STARTCHAR U+301C
ENCODING 12316
SWIDTH 750 0
DWIDTH 12 0
BBX 9 3 1 4
BITMAP
7000
8880
0700
ENDCHAR
STARTCHAR U+301D
ENCODING 12317
SWIDTH 750 0
DWIDTH 12 0
BBX 4 2 6 9
BITMAP
A0
50
ENDCHAR
STARTCHAR U+301E
ENCODING 12318
SWIDTH 750 0
DWIDTH 12 0
BBX 4 2 1 9
BITMAP
50
A0
ENDCHAR
STARTCHAR U+301F
ENCODING 12319
SWIDTH 750 0
DWIDTH 12 0
BBX 4 2 1 0
BITMAP
A0
50
ENDCHAR
STARTCHAR U+3030
ENCODING 12336
SWIDTH 750 0
DWIDTH 12 0
BBX 12 4 0 3
BITMAP
7800
8400
0210
01E0
ENDCHAR
STARTCHAR U+3031
ENCODING 12337
SWIDTH 750 0
DWIDTH 12 0
BBX 4 11 3 0
BITMAP
10
10
20
20
40
80
80
40
20
10
10
ENDCHAR
STARTCHAR U+3032
ENCODING 12338
SWIDTH 750 0
DWIDTH 12 0
BBX 8 11 3 0
BITMAP
10
10
2A
25
40
80
80
40
20
10
10
ENDCHAR
STARTCHAR U+3033
ENCODING 12339
SWIDTH 750 0
DWIDTH 12 0
BBX 8 11 1 0
BITMAP
02
01
01
02
04
08
10
20
40
80
80
ENDCHAR
STARTCHAR U+3034
ENCODING 12340
SWIDTH 750 0
DWIDTH 12 0
BBX 10 11 1 0
BITMAP
0200
0100
0100
0200
0400
0800
1280
2140
4000
8000
8000
ENDCHAR
STARTCHAR U+3035
ENCODING 12341
SWIDTH 750 0
DWIDTH 12 0
BBX 8 12 1 0
BITMAP
80
40
20
10
08
04
04
02
02
01
01
01
ENDCHAR
STARTCHAR U+3037
ENCODING 12343
SWIDTH 750 0
DWIDTH 12 0
BBX 11 11 0 0
BITMAP
8A20
8A20
5140
5140
2080
2080
2080
5140
5140
8A20
8A20
ENDCHAR
STARTCHAR U+303B
ENCODING 12347
SWIDTH 750 0
DWIDTH 12 0
BBX 6 10 3 1
BITMAP
80
60
18
60
80
80
60
1C
60
80
ENDCHAR
STARTCHAR U+303C
ENCODING 12348
SWIDTH 750 0
DWIDTH 12 0
BBX 11 11 0 0
BITMAP
FFE0
8060
80A0
8120
8220
8420
8820
9020
A020
C020
FFE0
ENDCHAR
STARTCHAR U+303D
ENCODING 12349
SWIDTH 750 0
DWIDTH 12 0
BBX 11 11 0 0
BITMAP
2000
5000
5200
9500
1500
0900
0100
0080
0080
0040
0020
ENDCHAR
STARTCHAR U+3041
ENCODING 12353
SWIDTH 750 0
DWIDTH 12 0
BBX 10 9 1 0
BITMAP
1000
FFC0
1000
1F00
3280
5240
9440
8880
7300
ENDCHAR
STARTCHAR U+3042
ENCODING 12354
SWIDTH 750 0
DWIDTH 12 0
BBX 11 11 0 0
BITMAP
1000
FFE0
1000
1F80
3240
5220
5220
9420
9420
8840
7180
ENDCHAR
STARTCHAR U+3043
ENCODING 12355
SWIDTH 750 0
DWIDTH 12 0
BBX 10 9 1 0
BITMAP
4000
4100
8080
8080
8040
8040
8040
4800
3000
ENDCHAR
STARTCHAR U+3044
ENCODING 12356
SWIDTH 750 0
DWIDTH 12 0
BBX 11 10 0 0
BITMAP
4080
4040
8040
8020
8020
8020
8020
8020
4800
3000
ENDCHAR
STARTCHAR U+3045
ENCODING 12357
SWIDTH 750 0
DWIDTH 12 0
BBX 10 10 1 0
BITMAP
3800
0700
0000
1F00
E080
0040
0040
0080
0300
3C00
ENDCHAR
STARTCHAR U+3046
ENCODING 12358
SWIDTH 750 0
DWIDTH 12 0
BBX 11 11 0 0
BITMAP
3C00
0380
0000
1F80
E040
0020
0020
0020
0040
0180
1E00
ENDCHAR
STARTCHAR U+3047
ENCODING 12359
SWIDTH 750 0
DWIDTH 12 0
BBX 10 10 1 0
BITMAP
3800
0700
0000
7E00
0100
0200
0400
0A00
3200
C1C0
ENDCHAR
STARTCHAR U+3048
ENCODING 12360
SWIDTH 750 0
DWIDTH 12 0
BBX 11 11 0 0
BITMAP
1C00
0380
0000
7F00
0080
0100
0200
0600
0900
3100
C0E0
ENDCHAR
STARTCHAR U+3049
ENCODING 12361
SWIDTH 750 0
DWIDTH 12 0
BBX 9 9 1 0
BITMAP
1000
FD00
1080
3E80
5100
9080
9080
9100
6600
ENDCHAR
STARTCHAR U+304A
ENCODING 12362
SWIDTH 750 0
DWIDTH 12 0
BBX 11 11 0 0
BITMAP
0800
FF40
0820
0820
0F80
3840
4820
8820
8820
4840
3180
ENDCHAR
STARTCHAR U+304B
ENCODING 12363
SWIDTH 750 0
DWIDTH 12 0
BBX 11 11 0 0
BITMAP
0880
0840
FF40
10A0
10A0
20A0
2080
4080
4080
8900
8600
ENDCHAR
STARTCHAR U+304C
ENCODING 12364
SWIDTH 750 0
DWIDTH 12 0
BBX 12 12 0 0
BITMAP
00A0
0950
0880
FF40
10A0
10A0
20A0
2080
4080
4080
8900
8600
ENDCHAR
STARTCHAR U+304D
ENCODING 12365
SWIDTH 750 0
DWIDTH 12 0
BBX 11 11 0 0
BITMAP
0400
7FC0
0200
FFE0
0100
3C80
4380
8000
8000
4020
3FC0
ENDCHAR
STARTCHAR U+304E
ENCODING 12366
SWIDTH 750 0
DWIDTH 12 0
BBX 12 12 0 0
BITMAP
00A0
0450
7F80
0200
FFE0
0100
3C80
4380
8000
8000
4020
3FC0
ENDCHAR
STARTCHAR U+304F
ENCODING 12367
SWIDTH 750 0
DWIDTH 12 0
BBX 11 11 0 0
BITMAP
00C0
0300
1C00
6000
8000
8000
6000
1800
0600
0180
0060
ENDCHAR
STARTCHAR U+3050
ENCODING 12368
SWIDTH 750 0
DWIDTH 12 0
BBX 11 11 0 0
BITMAP
01C0
0600
1940
60A0
8000
8000
6000
1800
0600
0180
0060
ENDCHAR
STARTCHAR U+3051
ENCODING 12369
SWIDTH 750 0
DWIDTH 12 0
BBX 11 11 0 0
BITMAP
4040
4040
8FE0
8040
8040
8040
8040
8040
8040
8080
4300
ENDCHAR
STARTCHAR U+3052
ENCODING 12370
SWIDTH 750 0
DWIDTH 12 0
BBX 11 12 1 0
BITMAP
0140
80A0
8080
8FC0
8080
8080
8080
8080
8080
8080
8100
4600
ENDCHAR
STARTCHAR U+3053
ENCODING 12371
SWIDTH 750 0
DWIDTH 12 0
BBX 11 10 0 0
BITMAP
3F80
0040
0040
0080
0000
4000
8000
8000
4000
3FE0
ENDCHAR
STARTCHAR U+3054
ENCODING 12372
SWIDTH 750 0
DWIDTH 12 0
BBX 12 12 0 0
BITMAP
00A0
0050
3F80
0040
0040
0080
0000
4000
8000
8000
4000
3FE0
ENDCHAR
STARTCHAR U+3055
ENCODING 12373
SWIDTH 750 0
DWIDTH 12 0
BBX 11 11 0 0
BITMAP
0200
0200
FFE0
0100
0100
3C80
4380
8000
8000
4020
3FC0
ENDCHAR
STARTCHAR U+3056
ENCODING 12374
SWIDTH 750 0
DWIDTH 12 0
BBX 11 12 0 0
BITMAP
0140
02A0
0200
FFE0
0100
0100
3C80
4380
8000
8000
4020
3FC0
ENDCHAR
STARTCHAR U+3057
ENCODING 12375
SWIDTH 750 0
DWIDTH 12 0
BBX 10 11 1 0
BITMAP
8000
8000
8000
8000
8000
8000
8040
8040
8080
4100
3E00
ENDCHAR
STARTCHAR U+3058
ENCODING 12376
SWIDTH 750 0
DWIDTH 12 0
BBX 10 11 1 0
BITMAP
8500
8280
8000
8000
8000
8000
8040
8040
8080
4100
3E00
ENDCHAR
STARTCHAR U+3059
ENCODING 12377
SWIDTH 750 0
DWIDTH 12 0
BBX 11 11 0 0
BITMAP
0100
FFE0
0100
0F00
1100
1100
1100
0F00
0100
0200
1C00
ENDCHAR
STARTCHAR U+305A
ENCODING 12378
SWIDTH 750 0
DWIDTH 12 0
BBX 12 12 0 0
BITMAP
00A0
0150
FFE0
0100
0F00
1100
1100
1100
0F00
0100
0200
1C00
ENDCHAR
STARTCHAR U+305B
ENCODING 12379
SWIDTH 750 0
DWIDTH 12 0
BBX 11 11 0 0
BITMAP
2080
2080
2080
FFE0
2080
2080
2080
2300
2000
2020
1FC0
ENDCHAR
STARTCHAR U+305C
ENCODING 12380
SWIDTH 750 0
DWIDTH 12 0
BBX 12 12 0 0
BITMAP
00A0
2050
2080
2080
FFE0
2080
2080
2080
2300
2000
2020
1FC0
ENDCHAR
STARTCHAR U+305D
ENCODING 12381
SWIDTH 750 0
DWIDTH 12 0
BBX 11 11 0 0
BITMAP
3F80
0200
0400
0800
FFE0
1000
2000
2000
2000
1000
0FC0
ENDCHAR
STARTCHAR U+305E
ENCODING 12382
SWIDTH 750 0
DWIDTH 12 0
BBX 11 11 0 0
BITMAP
3F80
0200
0540
08A0
FFE0
1000
2000
2000
2000
1000
0FC0
ENDCHAR
STARTCHAR U+305F
ENCODING 12383
SWIDTH 750 0
DWIDTH 12 0
BBX 11 11 0 0
BITMAP
1000
1000
FFE0
2000
27C0
2020
4040
4800
5000
9000
8FE0
ENDCHAR
STARTCHAR U+3060
ENCODING 12384
SWIDTH 750 0
DWIDTH 12 0
BBX 11 12 0 0
BITMAP
0140
10A0
1000
FFE0
2000
27C0
2020
4040
4800
5000
9000
8FE0
ENDCHAR
STARTCHAR U+3061
ENCODING 12385
SWIDTH 750 0
DWIDTH 12 0
BBX 11 11 0 0
BITMAP
0800
0800
FFE0
1000
2F80
3040
4020
0020
0020
2040
1F80
ENDCHAR
STARTCHAR U+3062
ENCODING 12386
SWIDTH 750 0
DWIDTH 12 0
BBX 11 12 0 0
BITMAP
0140
08A0
0800
FFE0
1000
2F80
3040
4020
0020
0020
2040
1F80
ENDCHAR
STARTCHAR U+3063
ENCODING 12387
SWIDTH 750 0
DWIDTH 12 0
BBX 9 8 1 0
BITMAP
1E00
E100
0080
0080
0080
0080
0100
3E00
ENDCHAR
STARTCHAR U+3064
ENCODING 12388
SWIDTH 750 0
DWIDTH 12 0
BBX 11 10 0 0
BITMAP
0F80
F040
0020
0020
0020
0020
0020
0040
0180
1E00
ENDCHAR
STARTCHAR U+3065
ENCODING 12389
SWIDTH 750 0
DWIDTH 12 0
BBX 12 12 0 0
BITMAP
00A0
0050
0F80
F040
0020
0020
0020
0020
0020
0040
0180
1E00
ENDCHAR
STARTCHAR U+3066
ENCODING 12390
SWIDTH 750 0
DWIDTH 12 0
BBX 11 10 0 0
BITMAP
FFE0
0300
0400
0800
1000
1000
1000
0800
0600
01C0
ENDCHAR
STARTCHAR U+3067
ENCODING 12391
SWIDTH 750 0
DWIDTH 12 0
BBX 11 10 0 0
BITMAP
FFE0
0200
0540
08A0
1000
1000
1000
0800
0600
01C0
ENDCHAR
STARTCHAR U+3068
ENCODING 12392
SWIDTH 750 0
DWIDTH 12 0
BBX 11 11 0 0
BITMAP
2000
2000
21C0
2600
1800
2000
4000
8000
8000
4000
3FE0
ENDCHAR
STARTCHAR U+3069
ENCODING 12393
SWIDTH 750 0
DWIDTH 12 0
BBX 11 11 0 0
BITMAP
2140
20A0
2000
2780
1800
2000
4000
8000
8000
4000
3FC0
ENDCHAR
STARTCHAR U+306A
ENCODING 12394
SWIDTH 750 0
DWIDTH 12 0
BBX 11 11 0 0
BITMAP
1000
FD80
2040
2020
4100
4100
9F00
A180
2140
2120
1E00
ENDCHAR
STARTCHAR U+306B
ENCODING 12395
SWIDTH 750 0
DWIDTH 12 0
BBX 11 11 0 0
BITMAP
4000
4FC0
8020
8040
8000
8000
8000
8800
9000
9000
4FE0
ENDCHAR
STARTCHAR U+306C
ENCODING 12396
SWIDTH 750 0
DWIDTH 12 0
BBX 11 11 0 0
BITMAP
0200
2200
2F80
3240
2220
5220
9420
95A0
8A40
9240
61A0
ENDCHAR
STARTCHAR U+306D
ENCODING 12397
SWIDTH 750 0
DWIDTH 12 0
BBX 11 11 0 0
BITMAP
1000
1380
F440
1820
1020
3020
5020
51A0
9240
9240
11A0
ENDCHAR
STARTCHAR U+306E
ENCODING 12398
SWIDTH 750 0
DWIDTH 12 0
BBX 11 10 0 0
BITMAP
1F00
2480
4440
4420
8420
8820
8820
9040
6080
0300
ENDCHAR
STARTCHAR U+306F
ENCODING 12399
SWIDTH 750 0
DWIDTH 12 0
BBX 11 11 0 0
BITMAP
4080
4080
8FE0
8080
8080
8080
8080
8F80
90C0
90A0
4F00
ENDCHAR
STARTCHAR U+3070
ENCODING 12400
SWIDTH 750 0
DWIDTH 12 0
BBX 12 12 0 0
BITMAP
00A0
4050
4080
8FE0
8080
8080
8080
8080
8F80
90C0
90A0
4F00
ENDCHAR
STARTCHAR U+3071
ENCODING 12401
SWIDTH 750 0
DWIDTH 12 0
BBX 12 12 0 0
BITMAP
0060
4090
4090
8FE0
8080
8080
8080
8080
8F80
90C0
90A0
4F00
ENDCHAR
STARTCHAR U+3072
ENCODING 12402
SWIDTH 750 0
DWIDTH 12 0
BBX 11 11 0 0
BITMAP
0C00
F080
1060
2040
2040
4040
4040
4080
4080
2100
1E00
ENDCHAR
STARTCHAR U+3073
ENCODING 12403
SWIDTH 750 0
DWIDTH 12 0
BBX 12 11 0 0
BITMAP
0CA0
F050
1080
2060
2040
4040
4040
4080
4080
2100
1E00
ENDCHAR
STARTCHAR U+3074
ENCODING 12404
SWIDTH 750 0
DWIDTH 12 0
BBX 12 12 0 0
BITMAP
0060
0C90
F090
1060
2080
2060
4040
4040
4080
4080
2100
1E00
ENDCHAR
STARTCHAR U+3075
ENCODING 12405
SWIDTH 750 0
DWIDTH 12 0
BBX 11 11 0 0
BITMAP
1E00
0100
0200
0400
2440
2240
4120
4120
8120
1200
0C00
ENDCHAR
STARTCHAR U+3076
ENCODING 12406
SWIDTH 750 0
DWIDTH 12 0
BBX 12 11 0 0
BITMAP
1EA0
0150
0200
0400
2440
2240
4120
4120
8120
1200
0C00
ENDCHAR
STARTCHAR U+3077
ENCODING 12407
SWIDTH 750 0
DWIDTH 12 0
BBX 12 12 0 0
BITMAP
0060
1E90
0190
0260
0400
2440
2240
4120
4120
8120
1200
0C00
ENDCHAR
STARTCHAR U+3078
ENCODING 12408
SWIDTH 750 0
DWIDTH 12 0
BBX 11 10 0 0
BITMAP
0C00
1200
2100
2100
4080
4080
8040
8040
0020
0020
ENDCHAR
STARTCHAR U+3079
ENCODING 12409
SWIDTH 750 0
DWIDTH 12 0
BBX 11 11 0 0
BITMAP
0140
0CA0
1200
2100
2100
4080
4080
8040
8040
0020
0020
ENDCHAR
STARTCHAR U+307A
ENCODING 12410
SWIDTH 750 0
DWIDTH 12 0
BBX 12 11 0 0
BITMAP
0060
0C90
1290
2160
2100
4080
4080
8040
8040
0020
0020
ENDCHAR
STARTCHAR U+307B
ENCODING 12411
SWIDTH 750 0
DWIDTH 12 0
BBX 11 11 0 0
BITMAP
4000
4FE0
8080
8080
8FE0
8080
8080
8F80
90C0
90A0
4F00
ENDCHAR
STARTCHAR U+307C
ENCODING 12412
SWIDTH 750 0
DWIDTH 12 0
BBX 12 12 0 0
BITMAP
00A0
4050
4FE0
8080
8080
8FE0
8080
8080
8F80
90C0
90A0
4F00
ENDCHAR
STARTCHAR U+307D
ENCODING 12413
SWIDTH 750 0
DWIDTH 12 0
BBX 12 12 0 0
BITMAP
0060
4090
4F90
80E0
8080
8FE0
8080
8080
8F80
90C0
90A0
4F00
ENDCHAR
STARTCHAR U+307E
ENCODING 12414
SWIDTH 750 0
DWIDTH 12 0
BBX 11 11 0 0
BITMAP
0400
7FC0
0400
0400
7FC0
0400
0400
7F00
84C0
8420
7800
ENDCHAR
STARTCHAR U+307F
ENCODING 12415
SWIDTH 750 0
DWIDTH 12 0
BBX 11 11 0 0
BITMAP
3800
0400
0440
0440
3F40
44C0
8860
8840
9040
9080
6300
ENDCHAR
STARTCHAR U+3080
ENCODING 12416
SWIDTH 750 0
DWIDTH 12 0
BBX 11 11 0 0
BITMAP
1080
FE40
1020
1020
7000
9000
9040
9020
6020
2020
1FC0
ENDCHAR
STARTCHAR U+3081
ENCODING 12417
SWIDTH 750 0
DWIDTH 12 0
BBX 11 11 0 0
BITMAP
0200
2200
2F80
3240
2220
5220
9220
9420
9420
8840
7180
ENDCHAR
STARTCHAR U+3082
ENCODING 12418
SWIDTH 750 0
DWIDTH 12 0
BBX 11 11 0 0
BITMAP
1000
1000
FFC0
2000
2000
FF80
2000
2020
2020
1040
0F80
ENDCHAR
STARTCHAR U+3083
ENCODING 12419
SWIDTH 750 0
DWIDTH 12 0
BBX 10 9 1 0
BITMAP
4400
4700
5880
E040
2040
2080
1300
1000
1000
ENDCHAR
STARTCHAR U+3084
ENCODING 12420
SWIDTH 750 0
DWIDTH 12 0
BBX 11 11 0 0
BITMAP
4200
4200
4780
3840
E020
2020
1040
1180
1000
0800
0800
ENDCHAR
STARTCHAR U+3085
ENCODING 12421
SWIDTH 750 0
DWIDTH 12 0
BBX 10 9 1 0
BITMAP
0400
9F00
A480
C440
8440
A480
9F00
0400
1800
ENDCHAR
STARTCHAR U+3086
ENCODING 12422
SWIDTH 750 0
DWIDTH 12 0
BBX 11 11 0 0
BITMAP
0200
8F80
9240
A220
C220
C220
8220
9240
8F80
0200
0C00
ENDCHAR
STARTCHAR U+3087
ENCODING 12423
SWIDTH 750 0
DWIDTH 12 0
BBX 10 9 1 0
BITMAP
0800
0800
0F80
0800
0800
7E00
8980
8840
7000
ENDCHAR
STARTCHAR U+3088
ENCODING 12424
SWIDTH 750 0
DWIDTH 12 0
BBX 11 11 0 0
BITMAP
0400
0400
07C0
0400
0400
0400
7F00
84C0
8420
8400
7800
ENDCHAR
STARTCHAR U+3089
ENCODING 12425
SWIDTH 750 0
DWIDTH 12 0
BBX 11 11 0 0
BITMAP
1C00
4300
4000
4000
8780
9840
E020
0020
0020
4040
3F80
ENDCHAR
STARTCHAR U+308A
ENCODING 12426
SWIDTH 750 0
DWIDTH 12 0
BBX 10 11 1 0
BITMAP
8700
8880
9040
9040
A040
A040
4040
0080
0080
0100
3E00
ENDCHAR
STARTCHAR U+308B
ENCODING 12427
SWIDTH 750 0
DWIDTH 12 0
BBX 11 11 0 0
BITMAP
3F00
0080
0300
0C00
3F80
C040
0020
1C20
2220
2240
1F80
ENDCHAR
STARTCHAR U+308C
ENCODING 12428
SWIDTH 750 0
DWIDTH 12 0
BBX 11 11 0 0
BITMAP
1000
1380
F440
1820
1020
3040
5040
5080
9080
9080
1060
ENDCHAR
STARTCHAR U+308D
ENCODING 12429
SWIDTH 750 0
DWIDTH 12 0
BBX 11 11 0 0
BITMAP
3F00
0080
0300
0C00
3F80
C040
0020
0020
0020
6040
1F80
ENDCHAR
STARTCHAR U+308E
ENCODING 12430
SWIDTH 750 0
DWIDTH 12 0
BBX 9 9 1 0
BITMAP
2000
EE00
3100
2080
6080
A080
A080
2100
2600
ENDCHAR
STARTCHAR U+308F
ENCODING 12431
SWIDTH 750 0
DWIDTH 12 0
BBX 11 11 0 0
BITMAP
1000
1380
F440
1820
1020
3020
5020
5020
9020
9040
1380
ENDCHAR
STARTCHAR U+3090
ENCODING 12432
SWIDTH 750 0
DWIDTH 12 0
BBX 11 11 0 0
BITMAP
3C00
0200
0200
0F80
1440
2420
4820
49A0
9240
9240
61A0
ENDCHAR
STARTCHAR U+3091
ENCODING 12433
SWIDTH 750 0
DWIDTH 12 0
BBX 11 11 0 0
BITMAP
3F00
0200
0F00
3080
CC40
1240
0F80
1000
2180
7240
8C20
ENDCHAR
STARTCHAR U+3092
ENCODING 12434
SWIDTH 750 0
DWIDTH 12 0
BBX 11 11 0 0
BITMAP
0800
0800
7FC0
1000
1E00
21E0
4700
8900
1100
1000
0FC0
ENDCHAR
STARTCHAR U+3093
ENCODING 12435
SWIDTH 750 0
DWIDTH 12 0
BBX 11 11 0 0
BITMAP
0400
0800
0800
1000
1000
2C00
3220
6220
4220
8240
8180
ENDCHAR
STARTCHAR U+3094
ENCODING 12436
SWIDTH 750 0
DWIDTH 12 0
BBX 12 12 0 0
BITMAP
00A0
3C50
0380
0000
1F80
E040
0020
0020
0020
0040
0180
1E00
ENDCHAR
STARTCHAR U+3095
ENCODING 12437
SWIDTH 750 0
DWIDTH 12 0
BBX 10 9 1 0
BITMAP
1000
1100
FE80
2140
2140
4100
4100
9200
8C00
ENDCHAR
STARTCHAR U+3096
ENCODING 12438
SWIDTH 750 0
DWIDTH 12 0
BBX 10 9 1 0
BITMAP
4080
4080
9FC0
8080
8080
8080
8080
8100
4600
ENDCHAR
STARTCHAR U+3099
ENCODING 12441
SWIDTH 0 0
DWIDTH 0 0
BBX 4 2 -4 10
BITMAP
A0
50
ENDCHAR
STARTCHAR U+309A
ENCODING 12442
SWIDTH 0 0
DWIDTH 0 0
BBX 4 4 -4 8
BITMAP
60
90
90
60
ENDCHAR
STARTCHAR U+309B
ENCODING 12443
SWIDTH 750 0
DWIDTH 12 0
BBX 4 2 0 9
BITMAP
A0
50
ENDCHAR
STARTCHAR U+309C
ENCODING 12444
SWIDTH 750 0
DWIDTH 12 0
BBX 4 4 0 7
BITMAP
60
90
90
60
ENDCHAR
STARTCHAR U+309D
ENCODING 12445
SWIDTH 750 0
DWIDTH 12 0
BBX 4 8 4 1
BITMAP
80
80
40
20
10
10
20
40
ENDCHAR
STARTCHAR U+309E
ENCODING 12446
SWIDTH 750 0
DWIDTH 12 0
BBX 7 8 4 1
BITMAP
94
8A
40
20
10
10
20
40
ENDCHAR
STARTCHAR U+309F
ENCODING 12447
SWIDTH 750 0
DWIDTH 12 0
BBX 10 11 0 0
BITMAP
1000
13C0
1C00
1000
2700
2880
3040
4040
4040
9080
8F00
ENDCHAR
STARTCHAR U+30A0
ENCODING 12448
SWIDTH 750 0
DWIDTH 12 0
BBX 7 4 2 4
BITMAP
FE
00
00
FE
ENDCHAR
STARTCHAR U+30A1
ENCODING 12449
SWIDTH 750 0
DWIDTH 12 0
BBX 10 8 1 0
BITMAP
FF80
0040
0840
0880
0B00
0800
1000
6000
ENDCHAR
STARTCHAR U+30A2
ENCODING 12450
SWIDTH 750 0
DWIDTH 12 0
BBX 11 10 0 0
BITMAP
FFC0
0020
0420
0440
0580
0400
0800
0800
1000
6000
ENDCHAR
STARTCHAR U+30A3
ENCODING 12451
SWIDTH 750 0
DWIDTH 12 0
BBX 10 9 1 0
BITMAP
0040
0080
0300
1C00
E400
0400
0400
0400
0400
ENDCHAR
STARTCHAR U+30A4
ENCODING 12452
SWIDTH 750 0
DWIDTH 12 0
BBX 11 11 0 0
BITMAP
0020
0040
0080
0100
0600
1A00
E200
0200
0200
0200
0200
ENDCHAR
STARTCHAR U+30A5
ENCODING 12453
SWIDTH 750 0
DWIDTH 12 0
BBX 10 9 1 0
BITMAP
0800
0800
7F80
8040
8040
0040
0080
0100
1E00
ENDCHAR
STARTCHAR U+30A6
ENCODING 12454
SWIDTH 750 0
DWIDTH 12 0
BBX 11 11 0 0
BITMAP
0400
0400
7FC0
8020
8020
8020
0040
0040
0080
0100
0E00
ENDCHAR
STARTCHAR U+30A7
ENCODING 12455
SWIDTH 750 0
DWIDTH 12 0
BBX 11 8 0 0
BITMAP
7FC0
0400
0400
0400
0400
0400
0400
FFE0
ENDCHAR
STARTCHAR U+30A8
ENCODING 12456
SWIDTH 750 0
DWIDTH 12 0
BBX 11 10 0 0
BITMAP
7FC0
0400
0400
0400
0400
0400
0400
0400
0400
FFE0
ENDCHAR
STARTCHAR U+30A9
ENCODING 12457
SWIDTH 750 0
DWIDTH 12 0
BBX 10 9 1 0
BITMAP
0200
0200
FFC0
0200
0600
0A00
3200
C200
0C00
ENDCHAR
STARTCHAR U+30AA
ENCODING 12458
SWIDTH 750 0
DWIDTH 12 0
BBX 11 11 0 0
BITMAP
0080
0080
FFE0
0080
0180
0280
0480
0880
3080
C080
0300
ENDCHAR
STARTCHAR U+30AB
ENCODING 12459
SWIDTH 750 0
DWIDTH 12 0
BBX 10 11 0 0
BITMAP
0800
0800
FF80
1040
1040
2040
2040
4040
4040
8640
8180
ENDCHAR
STARTCHAR U+30AC
ENCODING 12460
SWIDTH 750 0
DWIDTH 12 0
BBX 11 11 0 0
BITMAP
0940
08A0
FF80
1040
1040
2040
2040
4040
4040
8640
8180
ENDCHAR
STARTCHAR U+30AD
ENCODING 12461
SWIDTH 750 0
DWIDTH 12 0
BBX 11 11 0 0
BITMAP
0800
0800
07C0
7C00
0400
0200
03E0
FE00
0100
0100
0100
ENDCHAR
STARTCHAR U+30AE
ENCODING 12462
SWIDTH 750 0
DWIDTH 12 0
BBX 11 11 0 0
BITMAP
0940
08A0
07C0
7C00
0400
0200
03E0
FE00
0100
0100
0100
ENDCHAR
STARTCHAR U+30AF
ENCODING 12463
SWIDTH 750 0
DWIDTH 12 0
BBX 11 10 0 0
BITMAP
1FC0
2020
2020
4020
8040
0040
0080
0100
0600
3800
ENDCHAR
STARTCHAR U+30B0
ENCODING 12464
SWIDTH 750 0
DWIDTH 12 0
BBX 12 12 0 0
BITMAP
00A0
0050
1FC0
2020
2020
4020
8040
0040
0080
0100
0600
3800
ENDCHAR
STARTCHAR U+30B1
ENCODING 12465
SWIDTH 750 0
DWIDTH 12 0
BBX 11 11 0 0
BITMAP
2000
2000
3FE0
4080
4080
8080
0080
0100
0100
0200
1C00
ENDCHAR
STARTCHAR U+30B2
ENCODING 12466
SWIDTH 750 0
DWIDTH 12 0
BBX 12 11 0 0
BITMAP
20A0
2050
3FE0
4080
4080
8080
0080
0100
0100
0200
1C00
ENDCHAR
STARTCHAR U+30B3
ENCODING 12467
SWIDTH 750 0
DWIDTH 12 0
BBX 11 10 0 0
BITMAP
FFC0
0020
0020
0020
0020
0020
0020
0020
0020
FFC0
ENDCHAR
STARTCHAR U+30B4
ENCODING 12468
SWIDTH 750 0
DWIDTH 12 0
BBX 12 12 0 0
BITMAP
00A0
0050
FFC0
0020
0020
0020
0020
0020
0020
0020
0020
FFC0
ENDCHAR
STARTCHAR U+30B5
ENCODING 12469
SWIDTH 750 0
DWIDTH 12 0
BBX 11 11 0 0
BITMAP
2080
2080
2080
FFE0
2080
2080
2080
0080
0100
0200
1C00
ENDCHAR
STARTCHAR U+30B6
ENCODING 12470
SWIDTH 750 0
DWIDTH 12 0
BBX 12 12 0 0
BITMAP
00A0
2050
2080
2080
FFE0
2080
2080
2080
0080
0100
0200
1C00
ENDCHAR
STARTCHAR U+30B7
ENCODING 12471
SWIDTH 750 0
DWIDTH 12 0
BBX 11 10 0 0
BITMAP
7000
0C20
0020
E020
1840
0040
0080
0100
0600
F800
ENDCHAR
STARTCHAR U+30B8
ENCODING 12472
SWIDTH 750 0
DWIDTH 12 0
BBX 12 11 0 0
BITMAP
00A0
7050
0C20
0020
E020
1840
0040
0080
0100
0600
F800
ENDCHAR
STARTCHAR U+30B9
ENCODING 12473
SWIDTH 750 0
DWIDTH 12 0
BBX 11 10 0 0
BITMAP
7F80
0040
0040
0080
0080
0100
0280
0C40
3020
C020
ENDCHAR
STARTCHAR U+30BA
ENCODING 12474
SWIDTH 750 0
DWIDTH 12 0
BBX 12 12 0 0
BITMAP
00A0
0050
7F80
0040
0040
0080
0080
0100
0280
0C40
3020
C020
ENDCHAR
STARTCHAR U+30BB
ENCODING 12475
SWIDTH 750 0
DWIDTH 12 0
BBX 11 11 0 0
BITMAP
2000
2000
23C0
3C20
E040
2080
2300
2000
2000
2000
1FE0
ENDCHAR
STARTCHAR U+30BC
ENCODING 12476
SWIDTH 750 0
DWIDTH 12 0
BBX 12 11 0 0
BITMAP
20A0
2050
23C0
3C20
E040
2080
2300
2000
2000
2000
1FE0
ENDCHAR
STARTCHAR U+30BD
ENCODING 12477
SWIDTH 750 0
DWIDTH 12 0
BBX 11 10 0 0
BITMAP
8020
4020
4020
2040
2040
0080
0080
0100
0600
3800
ENDCHAR
STARTCHAR U+30BE
ENCODING 12478
SWIDTH 750 0
DWIDTH 12 0
BBX 12 11 0 0
BITMAP
00A0
8050
4020
4020
2040
2040
0080
0080
0100
0600
3800
ENDCHAR
STARTCHAR U+30BF
ENCODING 12479
SWIDTH 750 0
DWIDTH 12 0
BBX 11 10 0 0
BITMAP
1FC0
2020
2020
5820
8640
0140
0080
0100
0600
3800
ENDCHAR
STARTCHAR U+30C0
ENCODING 12480
SWIDTH 750 0
DWIDTH 12 0
BBX 12 12 0 0
BITMAP
00A0
0050
1FC0
2020
2020
5820
8640
0140
0080
0100
0600
3800
ENDCHAR
STARTCHAR U+30C1
ENCODING 12481
SWIDTH 750 0
DWIDTH 12 0
BBX 11 11 0 0
BITMAP
0040
0180
3E00
0200
0200
FFE0
0200
0200
0400
0800
7000
ENDCHAR
STARTCHAR U+30C2
ENCODING 12482
SWIDTH 750 0
DWIDTH 12 0
BBX 12 11 0 0
BITMAP
0040
0180
3EA0
0250
0200
FFE0
0200
0200
0400
0800
7000
ENDCHAR
STARTCHAR U+30C3
ENCODING 12483
SWIDTH 750 0
DWIDTH 12 0
BBX 9 9 1 0
BITMAP
1080
9080
8880
4880
4100
0100
0200
0400
1800
ENDCHAR
STARTCHAR U+30C4
ENCODING 12484
SWIDTH 750 0
DWIDTH 12 0
BBX 11 10 0 0
BITMAP
0820
8820
8420
4420
4040
0040
0080
0100
0600
3800
ENDCHAR
STARTCHAR U+30C5
ENCODING 12485
SWIDTH 750 0
DWIDTH 12 0
BBX 11 12 0 0
BITMAP
0140
00A0
0800
8820
8420
4420
4040
0040
0080
0100
0600
3800
ENDCHAR
STARTCHAR U+30C6
ENCODING 12486
SWIDTH 750 0
DWIDTH 12 0
BBX 11 10 0 0
BITMAP
7FC0
0000
0000
FFE0
0200
0200
0200
0400
0800
7000
ENDCHAR
STARTCHAR U+30C7
ENCODING 12487
SWIDTH 750 0
DWIDTH 12 0
BBX 11 12 0 0
BITMAP
0140
00A0
7FC0
0000
0000
FFE0
0200
0200
0200
0400
0800
7000
ENDCHAR
STARTCHAR U+30C8
ENCODING 12488
SWIDTH 750 0
DWIDTH 12 0
BBX 10 11 1 0
BITMAP
8000
8000
8000
8000
F800
8700
80C0
8000
8000
8000
8000
ENDCHAR
STARTCHAR U+30C9
ENCODING 12489
SWIDTH 750 0
DWIDTH 12 0
BBX 10 11 1 0
BITMAP
8500
8280
8000
8000
F800
8700
80C0
8000
8000
8000
8000
ENDCHAR
STARTCHAR U+30CA
ENCODING 12490
SWIDTH 750 0
DWIDTH 12 0
BBX 11 11 0 0
BITMAP
0100
0100
0100
FFE0
0100
0100
0200
0200
0400
1800
6000
ENDCHAR
STARTCHAR U+30CB
ENCODING 12491
SWIDTH 750 0
DWIDTH 12 0
BBX 11 10 0 0
BITMAP
7FC0
0000
0000
0000
0000
0000
0000
0000
0000
FFE0
ENDCHAR
STARTCHAR U+30CC
ENCODING 12492
SWIDTH 750 0
DWIDTH 12 0
BBX 11 10 0 0
BITMAP
FFC0
0020
0020
0040
1840
0680
0100
0680
1840
E020
ENDCHAR
STARTCHAR U+30CD
ENCODING 12493
SWIDTH 750 0
DWIDTH 12 0
BBX 11 11 0 0
BITMAP
0400
0400
7F80
0040
0080
0100
0600
1D80
E460
0400
0400
ENDCHAR
STARTCHAR U+30CE
ENCODING 12494
SWIDTH 750 0
DWIDTH 12 0
BBX 11 11 0 0
BITMAP
0020
0020
0020
0020
0040
0040
0080
0100
0200
0C00
F000
ENDCHAR
STARTCHAR U+30CF
ENCODING 12495
SWIDTH 750 0
DWIDTH 12 0
BBX 11 10 0 0
BITMAP
1100
1100
1080
2080
2040
2040
4040
4020
8020
8020
ENDCHAR
STARTCHAR U+30D0
ENCODING 12496
SWIDTH 750 0
DWIDTH 12 0
BBX 12 11 0 0
BITMAP
00A0
1150
1100
1080
2080
2040
2040
4040
4020
8020
8020
ENDCHAR
STARTCHAR U+30D1
ENCODING 12497
SWIDTH 750 0
DWIDTH 12 0
BBX 11 11 0 0
BITMAP
00C0
1120
1120
10C0
2080
2040
2040
4040
4020
8020
8020
ENDCHAR
STARTCHAR U+30D2
ENCODING 12498
SWIDTH 750 0
DWIDTH 12 0
BBX 10 11 1 0
BITMAP
8000
8000
80C0
8700
F800
8000
8000
8000
8000
8000
7FC0
ENDCHAR
STARTCHAR U+30D3
ENCODING 12499
SWIDTH 750 0
DWIDTH 12 0
BBX 10 12 1 0
BITMAP
0280
8140
8000
80C0
8700
F800
8000
8000
8000
8000
8000
7FC0
ENDCHAR
STARTCHAR U+30D4
ENCODING 12500
SWIDTH 750 0
DWIDTH 12 0
BBX 11 12 1 0
BITMAP
00C0
8120
8120
80C0
8700
F800
8000
8000
8000
8000
8000
7FC0
ENDCHAR
STARTCHAR U+30D5
ENCODING 12501
SWIDTH 750 0
DWIDTH 12 0
BBX 11 10 0 0
BITMAP
FFC0
0020
0020
0020
0020
0040
0040
0080
0300
3C00
ENDCHAR
STARTCHAR U+30D6
ENCODING 12502
SWIDTH 750 0
DWIDTH 12 0
BBX 12 12 0 0
BITMAP
00A0
0050
FFC0
0020
0020
0020
0020
0040
0040
0080
0300
3C00
ENDCHAR
STARTCHAR U+30D7
ENCODING 12503
SWIDTH 750 0
DWIDTH 12 0
BBX 12 12 0 0
BITMAP
0060
0090
FF90
0060
0020
0020
0020
0040
0040
0080
0300
3C00
ENDCHAR
STARTCHAR U+30D8
ENCODING 12504
SWIDTH 750 0
DWIDTH 12 0
BBX 11 10 0 0
BITMAP
0C00
1200
2100
2100
4080
4080
8040
8040
0020
0020
ENDCHAR
STARTCHAR U+30D9
ENCODING 12505
SWIDTH 750 0
DWIDTH 12 0
BBX 11 11 0 0
BITMAP
0140
0CA0
1200
2100
2100
4080
4080
8040
8040
0020
0020
ENDCHAR
STARTCHAR U+30DA
ENCODING 12506
SWIDTH 750 0
DWIDTH 12 0
BBX 12 11 0 0
BITMAP
0060
0C90
1290
2160
2100
4080
4080
8040
8040
0020
0020
ENDCHAR
STARTCHAR U+30DB
ENCODING 12507
SWIDTH 750 0
DWIDTH 12 0
BBX 11 11 0 0
BITMAP
0400
0400
FFE0
0400
2480
2440
2440
4420
4420
8420
0400
ENDCHAR
STARTCHAR U+30DC
ENCODING 12508
SWIDTH 750 0
DWIDTH 12 0
BBX 11 12 0 0
BITMAP
0140
04A0
0400
FFE0
0400
2480
2440
2440
4420
4420
8420
0400
ENDCHAR
STARTCHAR U+30DD
ENCODING 12509
SWIDTH 750 0
DWIDTH 12 0
BBX 12 12 0 0
BITMAP
0060
0490
0490
FFE0
0400
2480
2440
2440
4420
4420
8420
0400
ENDCHAR
STARTCHAR U+30DE
ENCODING 12510
SWIDTH 750 0
DWIDTH 12 0
BBX 11 10 0 0
BITMAP
FFC0
0020
0020
0040
0080
0100
3200
0C00
0200
0100
ENDCHAR
STARTCHAR U+30DF
ENCODING 12511
SWIDTH 750 0
DWIDTH 12 0
BBX 11 10 0 0
BITMAP
7C00
03C0
0000
0000
7C00
03C0
0000
0000
FC00
03E0
ENDCHAR
STARTCHAR U+30E0
ENCODING 12512
SWIDTH 750 0
DWIDTH 12 0
BBX 11 11 0 0
BITMAP
0800
0800
1000
1000
2080
2080
4040
4040
8020
8020
7FC0
ENDCHAR
STARTCHAR U+30E1
ENCODING 12513
SWIDTH 750 0
DWIDTH 12 0
BBX 10 11 0 0
BITMAP
0040
0040
0040
6080
1880
0500
0200
0500
0880
3040
C000
ENDCHAR
STARTCHAR U+30E2
ENCODING 12514
SWIDTH 750 0
DWIDTH 12 0
BBX 11 10 0 0
BITMAP
7FC0
0800
0800
0800
FFE0
0800
0800
0800
0800
07E0
ENDCHAR
STARTCHAR U+30E3
ENCODING 12515
SWIDTH 750 0
DWIDTH 12 0
BBX 10 9 1 0
BITMAP
2000
2380
3C40
E040
2080
1300
1000
0800
0800
ENDCHAR
STARTCHAR U+30E4
ENCODING 12516
SWIDTH 750 0
DWIDTH 12 0
BBX 11 11 0 0
BITMAP
2000
21C0
2E20
F020
1040
1080
0900
0800
0800
0400
0400
ENDCHAR
STARTCHAR U+30E5
ENCODING 12517
SWIDTH 750 0
DWIDTH 12 0
BBX 10 8 1 0
BITMAP
7E00
0100
0100
0100
0200
0200
0200
FFC0
ENDCHAR
STARTCHAR U+30E6
ENCODING 12518
SWIDTH 750 0
DWIDTH 12 0
BBX 11 10 0 0
BITMAP
7F00
0080
0080
0080
0080
0100
0100
0100
0100
FFE0
ENDCHAR
STARTCHAR U+30E7
ENCODING 12519
SWIDTH 750 0
DWIDTH 12 0
BBX 9 8 1 0
BITMAP
FF00
0080
0080
7F80
0080
0080
0080
FF00
ENDCHAR
STARTCHAR U+30E8
ENCODING 12520
SWIDTH 750 0
DWIDTH 12 0
BBX 11 10 0 0
BITMAP
FFC0
0020
0020
0020
7FE0
0020
0020
0020
0020
FFC0
ENDCHAR
STARTCHAR U+30E9
ENCODING 12521
SWIDTH 750 0
DWIDTH 12 0
BBX 11 10 0 0
BITMAP
7FC0
0000
0000
FFC0
0020
0020
0040
0080
0300
1C00
ENDCHAR
STARTCHAR U+30EA
ENCODING 12522
SWIDTH 750 0
DWIDTH 12 0
BBX 10 10 1 0
BITMAP
8040
8040
8040
8040
8040
8080
0080
0100
0600
3800
ENDCHAR
STARTCHAR U+30EB
ENCODING 12523
SWIDTH 750 0
DWIDTH 12 0
BBX 11 10 0 0
BITMAP
2400
2400
2400
2400
2400
2420
2420
4440
4480
8300
ENDCHAR
STARTCHAR U+30EC
ENCODING 12524
SWIDTH 750 0
DWIDTH 12 0
BBX 10 10 1 0
BITMAP
8000
8000
8000
8000
8000
8040
8080
8100
8600
7800
ENDCHAR
STARTCHAR U+30ED
ENCODING 12525
SWIDTH 750 0
DWIDTH 12 0
BBX 11 10 0 0
BITMAP
7FC0
8020
8020
8020
8020
8020
8020
8020
8020
7FC0
ENDCHAR
STARTCHAR U+30EE
ENCODING 12526
SWIDTH 750 0
DWIDTH 12 0
BBX 9 9 1 0
BITMAP
7F00
8080
8080
8080
0080
0100
0100
0200
3C00
ENDCHAR
STARTCHAR U+30EF
ENCODING 12527
SWIDTH 750 0
DWIDTH 12 0
BBX 11 10 0 0
BITMAP
7FC0
8020
8020
8020
8020
0040
0040
0080
0300
1C00
ENDCHAR
STARTCHAR U+30F0
ENCODING 12528
SWIDTH 750 0
DWIDTH 12 0
BBX 11 11 0 0
BITMAP
0080
0080
7FE0
0080
2080
2080
2080
2080
FFE0
0080
0080
ENDCHAR
STARTCHAR U+30F1
ENCODING 12529
SWIDTH 750 0
DWIDTH 12 0
BBX 11 10 0 0
BITMAP
7FC0
0020
0040
0480
0700
0400
0400
0400
0400
FFE0
ENDCHAR
STARTCHAR U+30F2
ENCODING 12530
SWIDTH 750 0
DWIDTH 12 0
BBX 11 10 0 0
BITMAP
FFC0
0020
0020
FFE0
0020
0040
0040
0080
0300
3C00
ENDCHAR
STARTCHAR U+30F3
ENCODING 12531
SWIDTH 750 0
DWIDTH 12 0
BBX 11 10 0 0
BITMAP
E000
1820
0420
0020
0040
0040
0080
0100
0600
F800
ENDCHAR
STARTCHAR U+30F4
ENCODING 12532
SWIDTH 750 0
DWIDTH 12 0
BBX 12 11 0 0
BITMAP
04A0
0450
7FC0
8020
8020
8020
0040
0040
0080
0100
0E00
ENDCHAR
STARTCHAR U+30F5
ENCODING 12533
SWIDTH 750 0
DWIDTH 12 0
BBX 9 9 1 0
BITMAP
1000
1000
FF00
2080
2080
4080
4080
8C80
8300
ENDCHAR
STARTCHAR U+30F6
ENCODING 12534
SWIDTH 750 0
DWIDTH 12 0
BBX 10 9 0 0
BITMAP
2000
2000
3FC0
4080
4080
8080
0100
0200
1C00
ENDCHAR
STARTCHAR U+30F7
ENCODING 12535
SWIDTH 750 0
DWIDTH 12 0
BBX 12 12 0 0
BITMAP
00A0
0050
7FC0
8020
8020
8020
8020
0040
0040
0080
0300
1C00
ENDCHAR
STARTCHAR U+30F8
ENCODING 12536
SWIDTH 750 0
DWIDTH 12 0
BBX 12 12 0 0
BITMAP
00A0
0050
0080
7FE0
0080
2080
2080
2080
2080
FFE0
0080
0080
ENDCHAR
STARTCHAR U+30F9
ENCODING 12537
SWIDTH 750 0
DWIDTH 12 0
BBX 12 12 0 0
BITMAP
00A0
0050
7FC0
0020
0040
0480
0700
0400
0400
0400
0400
FFE0
ENDCHAR
STARTCHAR U+30FA
ENCODING 12538
SWIDTH 750 0
DWIDTH 12 0
BBX 12 12 0 0
BITMAP
00A0
0050
FFC0
0020
0020
FFE0
0020
0040
0040
0080
0300
3C00
ENDCHAR
STARTCHAR U+30FB
ENCODING 12539
SWIDTH 750 0
DWIDTH 12 0
BBX 2 2 5 5
BITMAP
C0
C0
ENDCHAR
STARTCHAR U+30FC
ENCODING 12540
SWIDTH 750 0
DWIDTH 12 0
BBX 9 2 1 5
BITMAP
8000
7F80
ENDCHAR
STARTCHAR U+30FD
ENCODING 12541
SWIDTH 750 0
DWIDTH 12 0
BBX 4 5 3 3
BITMAP
80
40
20
10
10
ENDCHAR
STARTCHAR U+30FE
ENCODING 12542
SWIDTH 750 0
DWIDTH 12 0
BBX 7 6 3 3
BITMAP
14
8A
40
20
10
10
ENDCHAR
STARTCHAR U+3131
ENCODING 12593
SWIDTH 750 0
DWIDTH 12 0
BBX 9 7 1 2
BITMAP
FF00
0080
0080
0080
0080
0080
0080
ENDCHAR
STARTCHAR U+3132
ENCODING 12594
SWIDTH 750 0
DWIDTH 12 0
BBX 9 7 1 2
BITMAP
E700
1080
1080
1080
1080
1080
1080
ENDCHAR
STARTCHAR U+3133
ENCODING 12595
SWIDTH 750 0
DWIDTH 12 0
BBX 9 7 1 2
BITMAP
E200
1200
1200
1200
1500
1500
1880
ENDCHAR
STARTCHAR U+3134
ENCODING 12596
SWIDTH 750 0
DWIDTH 12 0
BBX 9 7 1 2
BITMAP
8000
8000
8000
8000
8000
8000
7F80
ENDCHAR
STARTCHAR U+3135
ENCODING 12597
SWIDTH 750 0
DWIDTH 12 0
BBX 9 7 1 2
BITMAP
8F80
8200
8200
8200
8500
8500
7880
ENDCHAR
STARTCHAR U+3136
ENCODING 12598
SWIDTH 750 0
DWIDTH 12 0
BBX 9 7 1 2
BITMAP
8700
8000
8F80
8000
8700
8880
7700
ENDCHAR
STARTCHAR U+3137
ENCODING 12599
SWIDTH 750 0
DWIDTH 12 0
BBX 9 7 1 2
BITMAP
7F80
8000
8000
8000
8000
8000
7F80
ENDCHAR
STARTCHAR U+3138
ENCODING 12600
SWIDTH 750 0
DWIDTH 12 0
BBX 9 7 1 2
BITMAP
7380
8400
8400
8400
8400
8400
7380
ENDCHAR
STARTCHAR U+3139
ENCODING 12601
SWIDTH 750 0
DWIDTH 12 0
BBX 9 7 1 2
BITMAP
FF00
0080
0080
7F00
8000
8000
7F80
ENDCHAR
STARTCHAR U+313A
ENCODING 12602
SWIDTH 750 0
DWIDTH 12 0
BBX 9 7 1 2
BITMAP
E700
1080
1080
6080
8080
8080
7080
ENDCHAR
STARTCHAR U+313B
ENCODING 12603
SWIDTH 750 0
DWIDTH 12 0
BBX 9 7 1 2
BITMAP
E780
1480
1480
6480
8480
8480
7300
ENDCHAR
STARTCHAR U+313C
ENCODING 12604
SWIDTH 750 0
DWIDTH 12 0
BBX 9 7 1 2
BITMAP
E480
1480
1480
6780
8480
8480
7300
ENDCHAR
STARTCHAR U+313D
ENCODING 12605
SWIDTH 750 0
DWIDTH 12 0
BBX 9 7 1 2
BITMAP
E200
1200
1200
6200
8500
8500
7880
ENDCHAR
STARTCHAR U+313E
ENCODING 12606
SWIDTH 750 0
DWIDTH 12 0
BBX 9 7 1 2
BITMAP
E380
1400
1400
6780
8400
8400
7380
ENDCHAR
STARTCHAR U+313F
ENCODING 12607
SWIDTH 750 0
DWIDTH 12 0
BBX 9 7 1 2
BITMAP
EF80
1000
1500
6500
8500
8500
7F80
ENDCHAR
STARTCHAR U+3140
ENCODING 12608
SWIDTH 750 0
DWIDTH 12 0
BBX 9 7 1 2
BITMAP
E700
1000
1F80
6000
8700
8880
7700
ENDCHAR
STARTCHAR U+3141
ENCODING 12609
SWIDTH 750 0
DWIDTH 12 0
BBX 9 7 1 2
BITMAP
FF80
8080
8080
8080
8080
8080
7F00
ENDCHAR
STARTCHAR U+3142
ENCODING 12610
SWIDTH 750 0
DWIDTH 12 0
BBX 9 7 1 2
BITMAP
8080
8080
8080
FF80
8080
8080
7F00
ENDCHAR
STARTCHAR U+3143
ENCODING 12611
SWIDTH 750 0
DWIDTH 12 0
BBX 9 7 1 2
BITMAP
9480
9480
9480
F780
9480
9480
6300
ENDCHAR
STARTCHAR U+3144
ENCODING 12612
SWIDTH 750 0
DWIDTH 12 0
BBX 9 7 1 2
BITMAP
9200
9200
9200
F200
9500
9500
6880
ENDCHAR
STARTCHAR U+3145
ENCODING 12613
SWIDTH 750 0
DWIDTH 12 0
BBX 9 7 1 2
BITMAP
0800
0800
0800
1400
1400
2200
C180
ENDCHAR
STARTCHAR U+3146
ENCODING 12614
SWIDTH 750 0
DWIDTH 12 0
BBX 9 7 1 2
BITMAP
2200
2200
2200
2200
5500
5500
8880
ENDCHAR
STARTCHAR U+3147
ENCODING 12615
SWIDTH 750 0
DWIDTH 12 0
BBX 9 7 1 2
BITMAP
3E00
4100
8080
8080
8080
4100
3E00
ENDCHAR
STARTCHAR U+3148
ENCODING 12616
SWIDTH 750 0
DWIDTH 12 0
BBX 9 7 1 2
BITMAP
FF80
0800
0800
0800
1400
2200
C180
ENDCHAR
STARTCHAR U+3149
ENCODING 12617
SWIDTH 750 0
DWIDTH 12 0
BBX 9 7 1 2
BITMAP
FF80
2200
2200
2200
5500
5500
8880
ENDCHAR
STARTCHAR U+314A
ENCODING 12618
SWIDTH 750 0
DWIDTH 12 0
BBX 9 8 1 2
BITMAP
3E00
0000
FF80
0800
0800
1400
2200
C180
ENDCHAR
STARTCHAR U+314B
ENCODING 12619
SWIDTH 750 0
DWIDTH 12 0
BBX 9 7 1 2
BITMAP
FF00
0080
0080
FF80
0080
0080
0080
ENDCHAR
STARTCHAR U+314C
ENCODING 12620
SWIDTH 750 0
DWIDTH 12 0
BBX 9 7 1 2
BITMAP
7F80
8000
8000
FF80
8000
8000
7F80
ENDCHAR
STARTCHAR U+314D
ENCODING 12621
SWIDTH 750 0
DWIDTH 12 0
BBX 9 7 1 2
BITMAP
FF80
0000
2200
2200
2200
2200
FF80
ENDCHAR
STARTCHAR U+314E
ENCODING 12622
SWIDTH 750 0
DWIDTH 12 0
BBX 9 8 1 2
BITMAP
3E00
0000
FF80
0000
3E00
4100
4100
3E00
ENDCHAR
STARTCHAR U+314F
ENCODING 12623
SWIDTH 750 0
DWIDTH 12 0
BBX 4 11 4 0
BITMAP
80
80
80
80
80
F0
80
80
80
80
80
ENDCHAR
STARTCHAR U+3150
ENCODING 12624
SWIDTH 750 0
DWIDTH 12 0
BBX 4 11 4 0
BITMAP
90
90
90
90
90
F0
90
90
90
90
90
ENDCHAR
STARTCHAR U+3151
ENCODING 12625
SWIDTH 750 0
DWIDTH 12 0
BBX 4 11 4 0
BITMAP
80
80
80
F0
80
80
80
F0
80
80
80
ENDCHAR
STARTCHAR U+3152
ENCODING 12626
SWIDTH 750 0
DWIDTH 12 0
BBX 4 11 4 0
BITMAP
90
90
90
F0
90
90
90
F0
90
90
90
ENDCHAR
STARTCHAR U+3153
ENCODING 12627
SWIDTH 750 0
DWIDTH 12 0
BBX 4 11 3 0
BITMAP
10
10
10
10
10
F0
10
10
10
10
10
ENDCHAR
STARTCHAR U+3154
ENCODING 12628
SWIDTH 750 0
DWIDTH 12 0
BBX 6 11 2 0
BITMAP
24
24
24
24
24
E4
24
24
24
24
24
ENDCHAR
STARTCHAR U+3155
ENCODING 12629
SWIDTH 750 0
DWIDTH 12 0
BBX 4 11 3 0
BITMAP
10
10
10
F0
10
10
10
F0
10
10
10
ENDCHAR
STARTCHAR U+3156
ENCODING 12630
SWIDTH 750 0
DWIDTH 12 0
BBX 6 11 2 0
BITMAP
24
24
24
E4
24
24
24
E4
24
24
24
ENDCHAR
STARTCHAR U+3157
ENCODING 12631
SWIDTH 750 0
DWIDTH 12 0
BBX 11 6 0 3
BITMAP
0400
0400
0400
0400
0400
FFE0
ENDCHAR
STARTCHAR U+3158
ENCODING 12632
SWIDTH 750 0
DWIDTH 12 0
BBX 11 11 0 0
BITMAP
0080
0080
0080
0080
0080
10E0
1080
1080
1080
FE80
0080
ENDCHAR
STARTCHAR U+3159
ENCODING 12633
SWIDTH 750 0
DWIDTH 12 0
BBX 10 11 0 0
BITMAP
0140
0140
0140
0140
0140
11C0
1140
1140
1140
FF40
0140
ENDCHAR
STARTCHAR U+315A
ENCODING 12634
SWIDTH 750 0
DWIDTH 12 0
BBX 10 11 0 0
BITMAP
0040
0040
0040
0040
0040
1040
1040
1040
1040
FF40
0040
ENDCHAR
STARTCHAR U+315B
ENCODING 12635
SWIDTH 750 0
DWIDTH 12 0
BBX 11 6 0 3
BITMAP
1100
1100
1100
1100
1100
FFE0
ENDCHAR
STARTCHAR U+315C
ENCODING 12636
SWIDTH 750 0
DWIDTH 12 0
BBX 11 6 0 2
BITMAP
FFE0
0400
0400
0400
0400
0400
ENDCHAR
STARTCHAR U+315D
ENCODING 12637
SWIDTH 750 0
DWIDTH 12 0
BBX 10 11 0 0
BITMAP
0040
0040
0040
0040
0040
FF40
1040
13C0
1040
1040
2040
ENDCHAR
STARTCHAR U+315E
ENCODING 12638
SWIDTH 750 0
DWIDTH 12 0
BBX 10 11 0 0
BITMAP
0140
0140
0140
0140
0140
FF40
1140
1740
1140
1140
2140
ENDCHAR
STARTCHAR U+315F
ENCODING 12639
SWIDTH 750 0
DWIDTH 12 0
BBX 10 11 0 0
BITMAP
0040
0040
0040
0040
0040
FF40
1040
1040
1040
1040
2040
ENDCHAR
STARTCHAR U+3160
ENCODING 12640
SWIDTH 750 0
DWIDTH 12 0
BBX 11 6 0 2
BITMAP
FFE0
1100
1100
1100
1100
1100
ENDCHAR
STARTCHAR U+3161
ENCODING 12641
SWIDTH 750 0
DWIDTH 12 0
BBX 11 1 0 4
BITMAP
FFE0
ENDCHAR
STARTCHAR U+3162
ENCODING 12642
SWIDTH 750 0
DWIDTH 12 0
BBX 10 11 0 0
BITMAP
0040
0040
0040
0040
0040
0040
0040
0040
0040
FF40
0040
ENDCHAR
STARTCHAR U+3163
ENCODING 12643
SWIDTH 750 0
DWIDTH 12 0
BBX 1 11 6 0
BITMAP
80
80
80
80
80
80
80
80
80
80
80
ENDCHAR
STARTCHAR U+3164
ENCODING 12644
SWIDTH 0 0
DWIDTH 0 0
BBX 0 0 0 0
BITMAP
ENDCHAR
STARTCHAR U+3165
ENCODING 12645
SWIDTH 750 0
DWIDTH 12 0
BBX 9 7 1 2
BITMAP
8400
8400
8400
8400
8400
8400
7380
ENDCHAR
STARTCHAR U+3166
ENCODING 12646
SWIDTH 750 0
DWIDTH 12 0
BBX 9 7 1 2
BITMAP
8380
8400
8400
8400
8400
8400
7380
ENDCHAR
STARTCHAR U+3167
ENCODING 12647
SWIDTH 750 0
DWIDTH 12 0
BBX 9 7 1 2
BITMAP
8200
8200
8200
8200
8500
8500
7880
ENDCHAR
STARTCHAR U+3168
ENCODING 12648
SWIDTH 750 0
DWIDTH 12 0
BBX 9 7 1 2
BITMAP
8200
8200
8200
8500
8500
8880
7F80
ENDCHAR
STARTCHAR U+3169
ENCODING 12649
SWIDTH 750 0
DWIDTH 12 0
BBX 11 7 0 2
BITMAP
D880
2480
2480
4480
8540
8540
6620
ENDCHAR
STARTCHAR U+316A
ENCODING 12650
SWIDTH 750 0
DWIDTH 12 0
BBX 9 7 1 2
BITMAP
E380
1400
1400
6400
8400
8400
7380
ENDCHAR
STARTCHAR U+316B
ENCODING 12651
SWIDTH 750 0
DWIDTH 12 0
BBX 11 7 0 2
BITMAP
D280
3280
3280
5E80
9340
9340
6E20
ENDCHAR
STARTCHAR U+316C
ENCODING 12652
SWIDTH 750 0
DWIDTH 12 0
BBX 9 7 1 2
BITMAP
E200
1200
1200
6500
8500
8880
7F80
ENDCHAR
STARTCHAR U+316D
ENCODING 12653
SWIDTH 750 0
DWIDTH 12 0
BBX 9 7 1 2
BITMAP
EF80
1000
1700
6880
8880
8880
7700
ENDCHAR
STARTCHAR U+316E
ENCODING 12654
SWIDTH 750 0
DWIDTH 12 0
BBX 9 7 1 2
BITMAP
F480
9480
9480
9780
9480
9480
6300
ENDCHAR
STARTCHAR U+316F
ENCODING 12655
SWIDTH 750 0
DWIDTH 12 0
BBX 9 7 1 2
BITMAP
F200
9200
9200
9200
9500
9500
6880
ENDCHAR
STARTCHAR U+3170
ENCODING 12656
SWIDTH 750 0
DWIDTH 12 0
BBX 9 7 1 2
BITMAP
F200
9200
9200
9500
9500
9880
6F80
ENDCHAR
STARTCHAR U+3171
ENCODING 12657
SWIDTH 750 0
DWIDTH 12 0
BBX 9 9 1 1
BITMAP
FF80
8080
8080
7F00
0000
7F00
8080
8080
7F00
ENDCHAR
STARTCHAR U+3172
ENCODING 12658
SWIDTH 750 0
DWIDTH 12 0
BBX 9 7 1 2
BITMAP
9700
9080
9080
F080
9080
9080
6080
ENDCHAR
STARTCHAR U+3173
ENCODING 12659
SWIDTH 750 0
DWIDTH 12 0
BBX 9 7 1 2
BITMAP
9380
9400
9400
F400
9400
9400
6380
ENDCHAR
STARTCHAR U+3174
ENCODING 12660
SWIDTH 750 0
DWIDTH 12 0
BBX 11 7 0 2
BITMAP
92C0
9220
9220
F220
9520
9520
68A0
ENDCHAR
STARTCHAR U+3175
ENCODING 12661
SWIDTH 750 0
DWIDTH 12 0
BBX 11 7 0 2
BITMAP
9460
9480
9480
F480
9A80
9A80
7160
ENDCHAR
STARTCHAR U+3176
ENCODING 12662
SWIDTH 750 0
DWIDTH 12 0
BBX 9 7 1 2
BITMAP
9F80
9200
9200
F200
9500
9500
6880
ENDCHAR
STARTCHAR U+3177
ENCODING 12663
SWIDTH 750 0
DWIDTH 12 0
BBX 9 7 1 2
BITMAP
9380
9400
9400
F780
9400
9400
6380
ENDCHAR
STARTCHAR U+3178
ENCODING 12664
SWIDTH 750 0
DWIDTH 12 0
BBX 9 9 1 1
BITMAP
8080
FF80
8080
7F00
0000
7F00
8080
8080
7F00
ENDCHAR
STARTCHAR U+3179
ENCODING 12665
SWIDTH 750 0
DWIDTH 12 0
BBX 9 9 1 1
BITMAP
9480
F780
9480
6300
0000
7F00
8080
8080
7F00
ENDCHAR
STARTCHAR U+317A
ENCODING 12666
SWIDTH 750 0
DWIDTH 12 0
BBX 9 7 1 2
BITMAP
2700
2080
2080
2080
5080
5080
8880
ENDCHAR
STARTCHAR U+317B
ENCODING 12667
SWIDTH 750 0
DWIDTH 12 0
BBX 9 7 1 2
BITMAP
2400
2400
2400
2400
5400
5400
8B80
ENDCHAR
STARTCHAR U+317C
ENCODING 12668
SWIDTH 750 0
DWIDTH 12 0
BBX 9 7 1 2
BITMAP
2380
2400
2400
2400
5400
5400
8B80
ENDCHAR
STARTCHAR U+317D
ENCODING 12669
SWIDTH 750 0
DWIDTH 12 0
BBX 9 7 1 2
BITMAP
2480
2480
2480
2780
5480
5480
8B00
ENDCHAR
STARTCHAR U+317E
ENCODING 12670
SWIDTH 750 0
DWIDTH 12 0
BBX 9 7 1 2
BITMAP
2F80
2200
2200
2200
5500
5500
8880
ENDCHAR
STARTCHAR U+317F
ENCODING 12671
SWIDTH 750 0
DWIDTH 12 0
BBX 9 7 1 2
BITMAP
0800
0800
1400
2200
4100
8080
FF80
ENDCHAR
STARTCHAR U+3180
ENCODING 12672
SWIDTH 750 0
DWIDTH 12 0
BBX 9 7 1 2
BITMAP
6300
9480
9480
9480
9480
9480
6300
ENDCHAR
STARTCHAR U+3181
ENCODING 12673
SWIDTH 750 0
DWIDTH 12 0
BBX 9 7 1 2
BITMAP
0800
0800
7F00
8080
8080
8080
7F00
ENDCHAR
STARTCHAR U+3182
ENCODING 12674
SWIDTH 750 0
DWIDTH 12 0
BBX 10 7 1 2
BITMAP
2100
2100
7100
8900
8A80
8A80
7440
ENDCHAR
STARTCHAR U+3183
ENCODING 12675
SWIDTH 750 0
DWIDTH 12 0
BBX 10 7 1 2
BITMAP
2100
2100
7100
8A80
8A80
8C40
77C0
ENDCHAR
STARTCHAR U+3184
ENCODING 12676
SWIDTH 750 0
DWIDTH 12 0
BBX 9 9 1 1
BITMAP
FF80
2200
2200
FF80
0000
7F00
8080
8080
7F00
ENDCHAR
STARTCHAR U+3185
ENCODING 12677
SWIDTH 750 0
DWIDTH 12 0
BBX 9 7 1 2
BITMAP
7700
0000
FF80
0000
7700
8880
7700
ENDCHAR
STARTCHAR U+3186
ENCODING 12678
SWIDTH 750 0
DWIDTH 12 0
BBX 9 7 1 2
BITMAP
FF80
0000
7F00
8080
8080
8080
7F00
ENDCHAR
STARTCHAR U+3187
ENCODING 12679
SWIDTH 750 0
DWIDTH 12 0
BBX 11 11 0 0
BITMAP
0080
0080
0080
00E0
0080
2880
28E0
2880
2880
FE80
0080
ENDCHAR
STARTCHAR U+3188
ENCODING 12680
SWIDTH 750 0
DWIDTH 12 0
BBX 10 11 0 0
BITMAP
0140
0140
0140
01C0
0140
2940
29C0
2940
2940
FF40
0140
ENDCHAR
STARTCHAR U+3189
ENCODING 12681
SWIDTH 750 0
DWIDTH 12 0
BBX 10 11 0 0
BITMAP
0040
0040
0040
0040
0040
2440
2440
2440
2440
FF40
0040
ENDCHAR
STARTCHAR U+318A
ENCODING 12682
SWIDTH 750 0
DWIDTH 12 0
BBX 10 11 0 0
BITMAP
0040
0040
0040
0040
0040
FF40
2840
2BC0
2840
2BC0
4840
ENDCHAR
STARTCHAR U+318B
ENCODING 12683
SWIDTH 750 0
DWIDTH 12 0
BBX 10 11 0 0
BITMAP
0140
0140
0140
0140
0140
FF40
5140
5740
5140
5740
9140
ENDCHAR
STARTCHAR U+318C
ENCODING 12684
SWIDTH 750 0
DWIDTH 12 0
BBX 10 11 0 0
BITMAP
0040
0040
0040
0040
0040
FF40
2440
2440
2440
2440
4440
ENDCHAR
STARTCHAR U+318D
ENCODING 12685
SWIDTH 750 0
DWIDTH 12 0
BBX 1 1 5 5
BITMAP
80
ENDCHAR
STARTCHAR U+318E
ENCODING 12686
SWIDTH 750 0
DWIDTH 12 0
BBX 4 11 3 0
BITMAP
10
10
10
10
10
90
10
10
10
10
10
ENDCHAR
STARTCHAR U+3200
ENCODING 12800
SWIDTH 750 0
DWIDTH 12 0
BBX 11 11 0 0
BITMAP
2080
4040
8020
BF20
80A0
80A0
80A0
80A0
8020
4040
2080
ENDCHAR
STARTCHAR U+3201
ENCODING 12801
SWIDTH 750 0
DWIDTH 12 0
BBX 11 11 0 0
BITMAP
2080
4040
8020
A020
A020
A020
A020
9FA0
8020
4040
2080
ENDCHAR
STARTCHAR U+3202
ENCODING 12802
SWIDTH 750 0
DWIDTH 12 0
BBX 11 11 0 0
BITMAP
2080
4040
8020
9FA0
A020
A020
A020
9FA0
8020
4040
2080
ENDCHAR
STARTCHAR U+3203
ENCODING 12803
SWIDTH 750 0
DWIDTH 12 0
BBX 11 11 0 0
BITMAP
2080
4040
8020
BF20
80A0
9F20
A020
9FA0
8020
4040
2080
ENDCHAR
STARTCHAR U+3204
ENCODING 12804
SWIDTH 750 0
DWIDTH 12 0
BBX 11 11 0 0
BITMAP
2080
4040
8020
BFA0
A0A0
A0A0
A0A0
9F20
8020
4040
2080
ENDCHAR
STARTCHAR U+3205
ENCODING 12805
SWIDTH 750 0
DWIDTH 12 0
BBX 11 11 0 0
BITMAP
2080
4040
8020
A0A0
A0A0
BFA0
A0A0
9F20
8020
4040
2080
ENDCHAR
STARTCHAR U+3206
ENCODING 12806
SWIDTH 750 0
DWIDTH 12 0
BBX 11 11 0 0
BITMAP
2080
4040
8020
8420
8420
8A20
9120
A0A0
8020
4040
2080
ENDCHAR
STARTCHAR U+3207
ENCODING 12807
SWIDTH 750 0
DWIDTH 12 0
BBX 11 11 0 0
BITMAP
2080
4040
8020
9F20
A0A0
A0A0
A0A0
9F20
8020
4040
2080
ENDCHAR
STARTCHAR U+3208
ENCODING 12808
SWIDTH 750 0
DWIDTH 12 0
BBX 11 11 0 0
BITMAP
2080
4040
8020
BFA0
8420
8420
8A20
B1A0
8020
4040
2080
ENDCHAR
STARTCHAR U+3209
ENCODING 12809
SWIDTH 750 0
DWIDTH 12 0
BBX 11 11 0 0
BITMAP
2080
4040
8E20
8020
BFA0
8420
8A20
B1A0
8020
4040
2080
ENDCHAR
STARTCHAR U+320A
ENCODING 12810
SWIDTH 750 0
DWIDTH 12 0
BBX 11 11 0 0
BITMAP
2080
4040
8020
BF20
80A0
BFA0
80A0
80A0
8020
4040
2080
ENDCHAR
STARTCHAR U+320B
ENCODING 12811
SWIDTH 750 0
DWIDTH 12 0
BBX 11 11 0 0
BITMAP
2080
4040
8020
9FA0
A020
BFA0
A020
9FA0
8020
4040
2080
ENDCHAR
STARTCHAR U+320C
ENCODING 12812
SWIDTH 750 0
DWIDTH 12 0
BBX 11 11 0 0
BITMAP
2080
4040
8020
BFA0
8020
9120
9120
BFA0
8020
4040
2080
ENDCHAR
STARTCHAR U+320D
ENCODING 12813
SWIDTH 750 0
DWIDTH 12 0
BBX 11 11 0 0
BITMAP
2080
4040
8E20
8020
BFA0
8E20
9120
8E20
8020
4040
2080
ENDCHAR
STARTCHAR U+320E
ENCODING 12814
SWIDTH 750 0
DWIDTH 12 0
BBX 11 11 0 0
BITMAP
2080
4040
B920
8520
8520
85A0
8920
B120
8120
4040
2080
ENDCHAR
STARTCHAR U+320F
ENCODING 12815
SWIDTH 750 0
DWIDTH 12 0
BBX 11 11 0 0
BITMAP
2080
4040
A120
A120
A120
A1A0
A120
9D20
8120
4040
2080
ENDCHAR
STARTCHAR U+3210
ENCODING 12816
SWIDTH 750 0
DWIDTH 12 0
BBX 11 11 0 0
BITMAP
2080
4040
9D20
A120
A120
A1A0
A120
9D20
8120
4040
2080
ENDCHAR
STARTCHAR U+3211
ENCODING 12817
SWIDTH 750 0
DWIDTH 12 0
BBX 11 11 0 0
BITMAP
2080
4040
B920
8520
9920
A1A0
A120
9D20
8120
4040
2080
ENDCHAR
STARTCHAR U+3212
ENCODING 12818
SWIDTH 750 0
DWIDTH 12 0
BBX 11 11 0 0
BITMAP
2080
4040
BD20
A520
A520
A5A0
A520
9920
8120
4040
2080
ENDCHAR
STARTCHAR U+3213
ENCODING 12819
SWIDTH 750 0
DWIDTH 12 0
BBX 11 11 0 0
BITMAP
2080
4040
A520
A520
BD20
A5A0
A520
9920
8120
4040
2080
ENDCHAR
STARTCHAR U+3214
ENCODING 12820
SWIDTH 750 0
DWIDTH 12 0
BBX 11 11 0 0
BITMAP
2080
4040
8920
8920
8920
95A0
9520
A320
8120
4040
2080
ENDCHAR
STARTCHAR U+3215
ENCODING 12821
SWIDTH 750 0
DWIDTH 12 0
BBX 11 11 0 0
BITMAP
2080
4040
9920
A520
A520
A5A0
A520
9920
8120
4040
2080
ENDCHAR
STARTCHAR U+3216
ENCODING 12822
SWIDTH 750 0
DWIDTH 12 0
BBX 11 11 0 0
BITMAP
2080
4040
BD20
8920
8920
95A0
9520
A320
8120
4040
2080
ENDCHAR
STARTCHAR U+3217
ENCODING 12823
SWIDTH 750 0
DWIDTH 12 0
BBX 11 11 0 0
BITMAP
2080
4040
9920
8120
BD20
89A0
9520
A320
8120
4040
2080
ENDCHAR
STARTCHAR U+3218
ENCODING 12824
SWIDTH 750 0
DWIDTH 12 0
BBX 11 11 0 0
BITMAP
2080
4040
B920
8520
BD20
85A0
8920
B120
8120
4040
2080
ENDCHAR
STARTCHAR U+3219
ENCODING 12825
SWIDTH 750 0
DWIDTH 12 0
BBX 11 11 0 0
BITMAP
2080
4040
9D20
A120
BD20
A1A0
A120
9D20
8120
4040
2080
ENDCHAR
STARTCHAR U+321A
ENCODING 12826
SWIDTH 750 0
DWIDTH 12 0
BBX 11 11 0 0
BITMAP
2080
4040
BF20
8120
9520
95A0
9520
BF20
8120
4040
2080
ENDCHAR
STARTCHAR U+321B
ENCODING 12827
SWIDTH 750 0
DWIDTH 12 0
BBX 11 11 0 0
BITMAP
2080
4040
9920
8120
BD20
99A0
A520
9920
8120
4040
2080
ENDCHAR
STARTCHAR U+321C
ENCODING 12828
SWIDTH 750 0
DWIDTH 12 0
BBX 11 11 0 0
BITMAP
2080
4040
9F20
8A20
9120
8020
BFA0
8420
8420
4440
2080
ENDCHAR
STARTCHAR U+3260
ENCODING 12896
SWIDTH 750 0
DWIDTH 12 0
BBX 11 11 0 0
BITMAP
3F80
4040
8020
BF20
80A0
80A0
80A0
80A0
8020
4040
3F80
ENDCHAR
STARTCHAR U+3261
ENCODING 12897
SWIDTH 750 0
DWIDTH 12 0
BBX 11 11 0 0
BITMAP
3F80
4040
8020
A020
A020
A020
A020
9FA0
8020
4040
3F80
ENDCHAR
STARTCHAR U+3262
ENCODING 12898
SWIDTH 750 0
DWIDTH 12 0
BBX 11 11 0 0
BITMAP
3F80
4040
8020
9FA0
A020
A020
A020
9FA0
8020
4040
3F80
ENDCHAR
STARTCHAR U+3263
ENCODING 12899
SWIDTH 750 0
DWIDTH 12 0
BBX 11 11 0 0
BITMAP
3F80
4040
8020
BF20
80A0
9F20
A020
9FA0
8020
4040
3F80
ENDCHAR
STARTCHAR U+3264
ENCODING 12900
SWIDTH 750 0
DWIDTH 12 0
BBX 11 11 0 0
BITMAP
3F80
4040
8020
BFA0
A0A0
A0A0
A0A0
9F20
8020
4040
3F80
ENDCHAR
STARTCHAR U+3265
ENCODING 12901
SWIDTH 750 0
DWIDTH 12 0
BBX 11 11 0 0
BITMAP
3F80
4040
8020
A0A0
A0A0
BFA0
A0A0
9F20
8020
4040
3F80
ENDCHAR
STARTCHAR U+3266
ENCODING 12902
SWIDTH 750 0
DWIDTH 12 0
BBX 11 11 0 0
BITMAP
3F80
4040
8020
8420
8420
8A20
9120
A0A0
8020
4040
3F80
ENDCHAR
STARTCHAR U+3267
ENCODING 12903
SWIDTH 750 0
DWIDTH 12 0
BBX 11 11 0 0
BITMAP
3F80
4040
8020
9F20
A0A0
A0A0
A0A0
9F20
8020
4040
3F80
ENDCHAR
STARTCHAR U+3268
ENCODING 12904
SWIDTH 750 0
DWIDTH 12 0
BBX 11 11 0 0
BITMAP
3F80
4040
8020
BFA0
8420
8420
8A20
B1A0
8020
4040
3F80
ENDCHAR
STARTCHAR U+3269
ENCODING 12905
SWIDTH 750 0
DWIDTH 12 0
BBX 11 11 0 0
BITMAP
3F80
4040
8E20
8020
BFA0
8420
8A20
B1A0
8020
4040
3F80
ENDCHAR
STARTCHAR U+326A
ENCODING 12906
SWIDTH 750 0
DWIDTH 12 0
BBX 11 11 0 0
BITMAP
3F80
4040
8020
BF20
80A0
BFA0
80A0
80A0
8020
4040
3F80
ENDCHAR
STARTCHAR U+326B
ENCODING 12907
SWIDTH 750 0
DWIDTH 12 0
BBX 11 11 0 0
BITMAP
3F80
4040
8020
9FA0
A020
BFA0
A020
9FA0
8020
4040
3F80
ENDCHAR
STARTCHAR U+326C
ENCODING 12908
SWIDTH 750 0
DWIDTH 12 0
BBX 11 11 0 0
BITMAP
3F80
4040
8020
BFA0
8020
9120
9120
BFA0
8020
4040
3F80
ENDCHAR
STARTCHAR U+326D
ENCODING 12909
SWIDTH 750 0
DWIDTH 12 0
BBX 11 11 0 0
BITMAP
3F80
4040
8E20
8020
BFA0
8E20
9120
8E20
8020
4040
3F80
ENDCHAR
STARTCHAR U+326E
ENCODING 12910
SWIDTH 750 0
DWIDTH 12 0
BBX 11 11 0 0
BITMAP
3F80
4040
B920
8520
8520
85A0
8920
B120
8120
4040
3F80
ENDCHAR
STARTCHAR U+326F
ENCODING 12911
SWIDTH 750 0
DWIDTH 12 0
BBX 11 11 0 0
BITMAP
3F80
4040
A120
A120
A120
A1A0
A120
9D20
8120
4040
3F80
ENDCHAR
STARTCHAR U+3270
ENCODING 12912
SWIDTH 750 0
DWIDTH 12 0
BBX 11 11 0 0
BITMAP
3F80
4040
9D20
A120
A120
A1A0
A120
9D20
8120
4040
3F80
ENDCHAR
STARTCHAR U+3271
ENCODING 12913
SWIDTH 750 0
DWIDTH 12 0
BBX 11 11 0 0
BITMAP
3F80
4040
B920
8520
9920
A1A0
A120
9D20
8120
4040
3F80
ENDCHAR
STARTCHAR U+3272
ENCODING 12914
SWIDTH 750 0
DWIDTH 12 0
BBX 11 11 0 0
BITMAP
3F80
4040
BD20
A520
A520
A5A0
A520
9920
8120
4040
3F80
ENDCHAR
STARTCHAR U+3273
ENCODING 12915
SWIDTH 750 0
DWIDTH 12 0
BBX 11 11 0 0
BITMAP
3F80
4040
A520
A520
BD20
A5A0
A520
9920
8120
4040
3F80
ENDCHAR
STARTCHAR U+3274
ENCODING 12916
SWIDTH 750 0
DWIDTH 12 0
BBX 11 11 0 0
BITMAP
3F80
4040
8920
8920
8920
95A0
9520
A320
8120
4040
3F80
ENDCHAR
STARTCHAR U+3275
ENCODING 12917
SWIDTH 750 0
DWIDTH 12 0
BBX 11 11 0 0
BITMAP
3F80
4040
9920
A520
A520
A5A0
A520
9920
8120
4040
3F80
ENDCHAR
STARTCHAR U+3276
ENCODING 12918
SWIDTH 750 0
DWIDTH 12 0
BBX 11 11 0 0
BITMAP
3F80
4040
BD20
8920
8920
95A0
9520
A320
8120
4040
3F80
ENDCHAR
STARTCHAR U+3277
ENCODING 12919
SWIDTH 750 0
DWIDTH 12 0
BBX 11 11 0 0
BITMAP
3F80
4040
9920
8120
BD20
89A0
9520
A320
8120
4040
3F80
ENDCHAR
STARTCHAR U+3278
ENCODING 12920
SWIDTH 750 0
DWIDTH 12 0
BBX 11 11 0 0
BITMAP
3F80
4040
B920
8520
BD20
85A0
8920
B120
8120
4040
3F80
ENDCHAR
STARTCHAR U+3279
ENCODING 12921
SWIDTH 750 0
DWIDTH 12 0
BBX 11 11 0 0
BITMAP
3F80
4040
9D20
A120
BD20
A1A0
A120
9D20
8120
4040
3F80
ENDCHAR
STARTCHAR U+327A
ENCODING 12922
SWIDTH 750 0
DWIDTH 12 0
BBX 11 11 0 0
BITMAP
3F80
4040
BF20
8120
9520
95A0
9520
BF20
8120
4040
3F80
ENDCHAR
STARTCHAR U+327B
ENCODING 12923
SWIDTH 750 0
DWIDTH 12 0
BBX 11 11 0 0
BITMAP
3F80
4040
9920
8120
BD20
99A0
A520
9920
8120
4040
3F80
ENDCHAR
STARTCHAR U+327E
ENCODING 12926
SWIDTH 750 0
DWIDTH 12 0
BBX 11 11 0 0
BITMAP
3F80
4040
8E20
9120
8E20
8020
BFA0
8420
8420
4040
3F80
ENDCHAR
STARTCHAR U+327F
ENCODING 12927
SWIDTH 750 0
DWIDTH 12 0
BBX 11 11 0 0
BITMAP
3F80
4040
8020
9120
9200
DCE0
1220
9120
8020
4040
3F80
ENDCHAR
STARTCHAR U+3380
ENCODING 13184
SWIDTH 750 0
DWIDTH 12 0
BBX 11 10 0 0
BITMAP
01C0
0220
F220
8A20
8A20
8BE0
8A20
F220
8220
8000
ENDCHAR
STARTCHAR U+3381
ENCODING 13185
SWIDTH 750 0
DWIDTH 12 0
BBX 11 9 0 1
BITMAP
01C0
0220
B220
CA20
8A20
8BE0
8A20
8A20
8A20
ENDCHAR
STARTCHAR U+3382
ENCODING 13186
SWIDTH 750 0
DWIDTH 12 0
BBX 11 10 0 0
BITMAP
01C0
0220
8A20
8A20
8A20
8BE0
8A20
9A20
EA20
8000
ENDCHAR
STARTCHAR U+3383
ENCODING 13187
SWIDTH 750 0
DWIDTH 12 0
BBX 11 9 0 1
BITMAP
01C0
0220
D220
AA20
AA20
ABE0
AA20
AA20
AA20
ENDCHAR
STARTCHAR U+3384
ENCODING 13188
SWIDTH 750 0
DWIDTH 12 0
BBX 11 9 0 1
BITMAP
81C0
8220
9A20
A220
C220
A3E0
9220
8A20
8A20
ENDCHAR
STARTCHAR U+3388
ENCODING 13192
SWIDTH 750 0
DWIDTH 12 0
BBX 11 9 0 1
BITMAP
0080
0040
6C40
8240
8640
8A40
8A40
8A40
66E0
ENDCHAR
STARTCHAR U+3389
ENCODING 13193
SWIDTH 750 0
DWIDTH 12 0
BBX 11 9 0 1
BITMAP
8080
8040
AA40
B140
D340
D540
B540
B540
ABE0
ENDCHAR
STARTCHAR U+338A
ENCODING 13194
SWIDTH 750 0
DWIDTH 12 0
BBX 11 10 0 0
BITMAP
01E0
0200
F200
8A00
8BE0
8A00
8A00
F200
8200
8000
ENDCHAR
STARTCHAR U+338B
ENCODING 13195
SWIDTH 750 0
DWIDTH 12 0
BBX 11 9 0 1
BITMAP
01E0
0200
B200
CA00
8BE0
8A00
8A00
8A00
8A00
ENDCHAR
STARTCHAR U+338C
ENCODING 13196
SWIDTH 750 0
DWIDTH 12 0
BBX 11 10 0 0
BITMAP
01E0
0200
8A00
8A00
8BE0
8A00
8A00
9A00
EA00
8000
ENDCHAR
STARTCHAR U+338D
ENCODING 13197
SWIDTH 750 0
DWIDTH 12 0
BBX 11 8 0 0
BITMAP
89E0
8A20
8A20
8A20
8A20
99E0
E820
81C0
ENDCHAR
STARTCHAR U+338E
ENCODING 13198
SWIDTH 750 0
DWIDTH 12 0
BBX 11 8 0 0
BITMAP
D1E0
AA20
AA20
AA20
AA20
A9E0
A820
01C0
ENDCHAR
STARTCHAR U+338F
ENCODING 13199
SWIDTH 750 0
DWIDTH 12 0
BBX 11 10 0 0
BITMAP
8000
8000
99E0
A220
C220
A220
9220
89E0
8820
01C0
ENDCHAR
STARTCHAR U+3390
ENCODING 13200
SWIDTH 750 0
DWIDTH 12 0
BBX 11 9 0 1
BITMAP
8800
8800
8BE0
8820
F840
8880
8900
8A00
8BE0
ENDCHAR
STARTCHAR U+3391
ENCODING 13201
SWIDTH 750 0
DWIDTH 12 0
BBX 11 9 0 1
BITMAP
8A00
8A00
AAE0
AA20
CE40
CA40
AA80
AA80
AAE0
ENDCHAR
STARTCHAR U+3392
ENCODING 13202
SWIDTH 750 0
DWIDTH 12 0
BBX 11 9 0 1
BITMAP
AA00
AA00
EAE0
EA20
EE40
AA40
AA80
AA80
AAE0
ENDCHAR
STARTCHAR U+3393
ENCODING 13203
SWIDTH 750 0
DWIDTH 12 0
BBX 11 9 0 1
BITMAP
6A00
8A00
8AE0
8A20
AE40
AA40
AA80
AA80
6AE0
ENDCHAR
STARTCHAR U+3394
ENCODING 13204
SWIDTH 750 0
DWIDTH 12 0
BBX 11 9 0 1
BITMAP
EA00
4A00
4AE0
4A20
4E40
4A40
4A80
4A80
4AE0
ENDCHAR
STARTCHAR U+3395
ENCODING 13205
SWIDTH 750 0
DWIDTH 12 0
BBX 11 10 0 0
BITMAP
0180
0240
8A40
8A40
8A40
8A80
8980
9920
EAC0
8000
ENDCHAR
STARTCHAR U+3396
ENCODING 13206
SWIDTH 750 0
DWIDTH 12 0
BBX 11 9 0 1
BITMAP
0180
0240
D240
AA40
AA40
AA80
A980
A920
AAC0
ENDCHAR
STARTCHAR U+3397
ENCODING 13207
SWIDTH 750 0
DWIDTH 12 0
BBX 11 9 0 1
BITMAP
0980
0A40
7A40
8A40
8A40
8A80
8980
8920
7AC0
ENDCHAR
STARTCHAR U+3398
ENCODING 13208
SWIDTH 750 0
DWIDTH 12 0
BBX 11 9 0 1
BITMAP
8180
8240
9A40
A240
C240
A280
9180
8920
8AC0
ENDCHAR
STARTCHAR U+3399
ENCODING 13209
SWIDTH 750 0
DWIDTH 12 0
BBX 11 9 0 1
BITMAP
3800
4000
4340
FAA0
42A0
42A0
42A0
42A0
42A0
ENDCHAR
STARTCHAR U+339A
ENCODING 13210
SWIDTH 750 0
DWIDTH 12 0
BBX 11 7 0 1
BITMAP
B340
CAA0
8AA0
8AA0
8AA0
8AA0
8AA0
ENDCHAR
STARTCHAR U+339B
ENCODING 13211
SWIDTH 750 0
DWIDTH 12 0
BBX 11 8 0 0
BITMAP
8B40
8AA0
8AA0
8AA0
8AA0
9AA0
EAA0
8000
ENDCHAR
STARTCHAR U+339C
ENCODING 13212
SWIDTH 750 0
DWIDTH 12 0
BBX 11 7 0 1
BITMAP
D340
AAA0
AAA0
AAA0
AAA0
AAA0
AAA0
ENDCHAR
STARTCHAR U+339D
ENCODING 13213
SWIDTH 750 0
DWIDTH 12 0
BBX 11 7 0 1
BITMAP
7340
8AA0
82A0
82A0
82A0
8AA0
72A0
ENDCHAR
STARTCHAR U+339E
ENCODING 13214
SWIDTH 750 0
DWIDTH 12 0
BBX 11 9 0 1
BITMAP
8000
8000
9B40
A2A0
C2A0
A2A0
92A0
8AA0
8AA0
ENDCHAR
STARTCHAR U+339F
ENCODING 13215
SWIDTH 750 0
DWIDTH 12 0
BBX 11 9 0 1
BITMAP
00C0
0020
CC40
EE80
EEE0
EE00
EE00
AA00
AA00
ENDCHAR
STARTCHAR U+33A0
ENCODING 13216
SWIDTH 750 0
DWIDTH 12 0
BBX 11 9 0 1
BITMAP
00C0
0020
6C40
8E80
8EE0
8E00
8E00
8A00
6A00
ENDCHAR
STARTCHAR U+33A1
ENCODING 13217
SWIDTH 750 0
DWIDTH 12 0
BBX 10 9 0 1
BITMAP
0180
0240
D080
A900
ABC0
A800
A800
A800
A800
ENDCHAR
STARTCHAR U+33A2
ENCODING 13218
SWIDTH 750 0
DWIDTH 12 0
BBX 11 9 0 1
BITMAP
80C0
8020
AC40
AE80
CEE0
CE00
AE00
AA00
AA00
ENDCHAR
STARTCHAR U+33A3
ENCODING 13219
SWIDTH 750 0
DWIDTH 12 0
BBX 11 9 0 1
BITMAP
00C0
0020
CC40
EE20
EEC0
EE00
EE00
AA00
AA00
ENDCHAR
STARTCHAR U+33A4
ENCODING 13220
SWIDTH 750 0
DWIDTH 12 0
BBX 11 9 0 1
BITMAP
00C0
0020
6C40
8E20
8EC0
8E00
8E00
8A00
6A00
ENDCHAR
STARTCHAR U+33A5
ENCODING 13221
SWIDTH 750 0
DWIDTH 12 0
BBX 10 9 0 1
BITMAP
0380
0040
D180
A840
AB80
A800
A800
A800
A800
ENDCHAR
STARTCHAR U+33A6
ENCODING 13222
SWIDTH 750 0
DWIDTH 12 0
BBX 11 9 0 1
BITMAP
80C0
8020
AC40
AE20
CEC0
CE00
AE00
AA00
AA00
ENDCHAR
STARTCHAR U+33A7
ENCODING 13223
SWIDTH 750 0
DWIDTH 12 0
BBX 11 9 0 1
BITMAP
0200
0200
C260
E480
E480
E440
E820
A820
A8C0
ENDCHAR
STARTCHAR U+33A8
ENCODING 13224
SWIDTH 750 0
DWIDTH 12 0
BBX 11 9 0 1
BITMAP
0440
0420
C540
EA20
EA40
E900
F080
B080
B300
ENDCHAR
STARTCHAR U+33A9
ENCODING 13225
SWIDTH 750 0
DWIDTH 12 0
BBX 11 9 0 1
BITMAP
F000
8800
89C0
8820
89E0
F220
8220
8220
81E0
ENDCHAR
STARTCHAR U+33AA
ENCODING 13226
SWIDTH 750 0
DWIDTH 12 0
BBX 11 9 0 1
BITMAP
8C00
8A00
AAC0
AA20
CA60
CCA0
A8A0
A8A0
A860
ENDCHAR
STARTCHAR U+33AB
ENCODING 13227
SWIDTH 750 0
DWIDTH 12 0
BBX 11 9 0 1
BITMAP
AC00
AA00
EAC0
EA20
EA60
ACA0
A8A0
A8A0
A860
ENDCHAR
STARTCHAR U+33AC
ENCODING 13228
SWIDTH 750 0
DWIDTH 12 0
BBX 11 9 0 1
BITMAP
6C00
8A00
8AC0
8A20
AA60
ACA0
A8A0
A8A0
6860
ENDCHAR
STARTCHAR U+33AD
ENCODING 13229
SWIDTH 750 0
DWIDTH 12 0
BBX 11 9 0 1
BITMAP
0020
0020
AC60
C2A0
86A0
8AA0
8AA0
8AA0
8660
ENDCHAR
STARTCHAR U+33AE
ENCODING 13230
SWIDTH 750 0
DWIDTH 12 0
BBX 11 9 0 1
BITMAP
0280
0280
B680
CB60
9B80
AB40
AA20
AA20
9EC0
ENDCHAR
STARTCHAR U+33AF
ENCODING 13231
SWIDTH 750 0
DWIDTH 12 0
BBX 12 11 0 1
BITMAP
0020
0010
02A0
02B0
B680
CB60
9B80
AB40
AA20
AA20
9EC0
ENDCHAR
STARTCHAR U+33B0
ENCODING 13232
SWIDTH 750 0
DWIDTH 12 0
BBX 11 8 0 0
BITMAP
F1E0
8A00
8A00
89C0
8820
F020
83C0
8000
ENDCHAR
STARTCHAR U+33B1
ENCODING 13233
SWIDTH 750 0
DWIDTH 12 0
BBX 11 7 0 1
BITMAP
B1E0
CA00
8A00
89C0
8820
8820
8BC0
ENDCHAR
STARTCHAR U+33B2
ENCODING 13234
SWIDTH 750 0
DWIDTH 12 0
BBX 11 8 0 0
BITMAP
89E0
8A00
8A00
89C0
8820
9820
EBC0
8000
ENDCHAR
STARTCHAR U+33B3
ENCODING 13235
SWIDTH 750 0
DWIDTH 12 0
BBX 11 7 0 1
BITMAP
D1E0
AA00
AA00
A9C0
A820
A820
ABC0
ENDCHAR
STARTCHAR U+33B4
ENCODING 13236
SWIDTH 750 0
DWIDTH 12 0
BBX 11 10 0 0
BITMAP
0220
0220
F220
8A20
8940
8940
8940
F080
8080
8000
ENDCHAR
STARTCHAR U+33B5
ENCODING 13237
SWIDTH 750 0
DWIDTH 12 0
BBX 11 9 0 1
BITMAP
0220
0220
B220
CA20
8940
8940
8940
8880
8880
ENDCHAR
STARTCHAR U+33B6
ENCODING 13238
SWIDTH 750 0
DWIDTH 12 0
BBX 11 10 0 0
BITMAP
0220
0220
8A20
8A20
8940
8940
8940
9880
E880
8000
ENDCHAR
STARTCHAR U+33B7
ENCODING 13239
SWIDTH 750 0
DWIDTH 12 0
BBX 11 9 0 1
BITMAP
0220
0220
D220
AA20
A940
A940
A940
A880
A880
ENDCHAR
STARTCHAR U+33B8
ENCODING 13240
SWIDTH 750 0
DWIDTH 12 0
BBX 11 9 0 1
BITMAP
8220
8220
9A20
A220
C140
A140
9140
8880
8880
ENDCHAR
STARTCHAR U+33B9
ENCODING 13241
SWIDTH 750 0
DWIDTH 12 0
BBX 11 9 0 1
BITMAP
8A20
8A20
DA20
AA20
8940
8940
8940
8880
8880
ENDCHAR
STARTCHAR U+33BA
ENCODING 13242
SWIDTH 750 0
DWIDTH 12 0
BBX 11 10 0 0
BITMAP
0220
0220
F2A0
8AA0
8AA0
8AA0
8940
F140
8140
8000
ENDCHAR
STARTCHAR U+33BB
ENCODING 13243
SWIDTH 750 0
DWIDTH 12 0
BBX 11 9 0 1
BITMAP
0220
0220
B2A0
CAA0
8AA0
8AA0
8940
8940
8940
ENDCHAR
STARTCHAR U+33BC
ENCODING 13244
SWIDTH 750 0
DWIDTH 12 0
BBX 11 10 0 0
BITMAP
0220
0220
8AA0
8AA0
8AA0
8AA0
8940
9940
E940
8000
ENDCHAR
STARTCHAR U+33BD
ENCODING 13245
SWIDTH 750 0
DWIDTH 12 0
BBX 11 9 0 1
BITMAP
0220
0220
D2A0
AAA0
AAA0
AAA0
A940
A940
A940
ENDCHAR
STARTCHAR U+33BE
ENCODING 13246
SWIDTH 750 0
DWIDTH 12 0
BBX 11 9 0 1
BITMAP
8220
8220
9AA0
A2A0
C2A0
A2A0
9140
8940
8940
ENDCHAR
STARTCHAR U+33BF
ENCODING 13247
SWIDTH 750 0
DWIDTH 12 0
BBX 11 9 0 1
BITMAP
8A20
8A20
DAA0
AAA0
8AA0
8AA0
8940
8940
8940
ENDCHAR
STARTCHAR U+33C0
ENCODING 13248
SWIDTH 750 0
DWIDTH 12 0
BBX 11 9 0 1
BITMAP
81C0
8220
9A20
A220
C220
A220
9220
8940
8B60
ENDCHAR
STARTCHAR U+33C1
ENCODING 13249
SWIDTH 750 0
DWIDTH 12 0
BBX 11 9 0 1
BITMAP
89C0
8A20
DA20
AA20
8A20
8A20
8A20
8940
8B60
ENDCHAR
STARTCHAR U+33C2
ENCODING 13250
SWIDTH 750 0
DWIDTH 12 0
BBX 11 7 0 1
BITMAP
6680
1540
7540
9540
9540
9540
7D60
ENDCHAR
STARTCHAR U+33C3
ENCODING 13251
SWIDTH 750 0
DWIDTH 12 0
BBX 11 10 0 0
BITMAP
F000
8800
89E0
8A20
F220
8A20
8A20
89E0
F020
0020
ENDCHAR
STARTCHAR U+33C4
ENCODING 13252
SWIDTH 750 0
DWIDTH 12 0
BBX 11 7 0 1
BITMAP
71C0
8A20
8200
8200
8200
8A20
71C0
ENDCHAR
STARTCHAR U+33C5
ENCODING 13253
SWIDTH 750 0
DWIDTH 12 0
BBX 11 9 0 1
BITMAP
0020
0020
71E0
8A20
8220
8220
8220
8A20
71E0
ENDCHAR
STARTCHAR U+33C6
ENCODING 13254
SWIDTH 750 0
DWIDTH 12 0
BBX 11 10 0 0
BITMAP
6C00
8C00
8D60
75A0
16A0
16A0
25A0
2560
2520
00C0
ENDCHAR
STARTCHAR U+33C7
ENCODING 13255
SWIDTH 750 0
DWIDTH 12 0
BBX 11 9 0 1
BITMAP
6000
9000
9300
8480
8480
8480
9480
9480
6320
ENDCHAR
STARTCHAR U+33C8
ENCODING 13256
SWIDTH 750 0
DWIDTH 12 0
BBX 11 9 0 1
BITMAP
0BC0
0A20
7A20
8A20
8BC0
8A20
8A20
8A20
7BC0
ENDCHAR
STARTCHAR U+33C9
ENCODING 13257
SWIDTH 750 0
DWIDTH 12 0
BBX 11 10 0 0
BITMAP
7800
8000
8220
8220
BA20
8A20
89E0
8820
7820
03C0
ENDCHAR
STARTCHAR U+33CA
ENCODING 13258
SWIDTH 750 0
DWIDTH 12 0
BBX 11 9 0 1
BITMAP
8000
8000
B1C0
C820
89E0
8A20
8A20
8A20
89E0
ENDCHAR
STARTCHAR U+33CB
ENCODING 13259
SWIDTH 750 0
DWIDTH 12 0
BBX 9 9 1 1
BITMAP
8F00
8880
8880
8880
F880
8F00
8800
8800
8800
ENDCHAR
STARTCHAR U+33CF
ENCODING 13263
SWIDTH 750 0
DWIDTH 12 0
BBX 11 9 0 1
BITMAP
8100
8100
9BE0
A100
C100
A100
9100
8900
88E0
ENDCHAR
STARTCHAR U+33D0
ENCODING 13264
SWIDTH 750 0
DWIDTH 12 0
BBX 11 9 0 1
BITMAP
C000
2000
2340
22A0
22A0
22A0
22A0
22A0
FAA0
ENDCHAR
STARTCHAR U+33D3
ENCODING 13267
SWIDTH 750 0
DWIDTH 12 0
BBX 11 9 0 1
BITMAP
C000
2000
2220
2220
2140
2080
2140
2220
FA20
ENDCHAR
STARTCHAR U+33D6
ENCODING 13270
SWIDTH 750 0
DWIDTH 12 0
BBX 11 9 0 1
BITMAP
0080
0040
C440
EA40
EA40
EA40
EA40
AA40
A4E0
ENDCHAR
STARTCHAR U+33D8
ENCODING 13272
SWIDTH 750 0
DWIDTH 12 0
BBX 11 8 0 0
BITMAP
E680
9540
9540
9540
9540
E540
9560
8000
ENDCHAR
STARTCHAR U+33DB
ENCODING 13275
SWIDTH 750 0
DWIDTH 12 0
BBX 11 7 0 1
BITMAP
7AE0
8300
8200
7200
0A00
0A00
F200
ENDCHAR
STARTCHAR U+33DC
ENCODING 13276
SWIDTH 750 0
DWIDTH 12 0
BBX 11 9 0 1
BITMAP
7800
8000
8220
8220
7220
0A20
0940
0940
F080
ENDCHAR
STARTCHAR U+33DD
ENCODING 13277
SWIDTH 750 0
DWIDTH 12 0
BBX 11 9 0 1
BITMAP
8A00
8A00
ABC0
AA20
AA20
AA20
5220
5220
53C0
ENDCHAR
STARTCHAR U+3427
ENCODING 13351
SWIDTH 750 0
DWIDTH 12 0
BBX 11 11 0 0
BITMAP
3100
0900
0100
FFC0
0120
0320
0540
0900
3100
C100
0E00
ENDCHAR
STARTCHAR U+4E00
ENCODING 19968
SWIDTH 750 0
DWIDTH 12 0
BBX 11 1 0 5
BITMAP
FFE0
ENDCHAR
STARTCHAR U+4E01
ENCODING 19969
SWIDTH 750 0
DWIDTH 12 0
BBX 11 11 0 0
BITMAP
FFE0
0400
0400
0400
0400
0400
0400
0400
0400
0400
3800
ENDCHAR
STARTCHAR U+4E03
ENCODING 19971
SWIDTH 750 0
DWIDTH 12 0
BBX 11 11 0 0
BITMAP
1000
11E0
1E00
F000
1000
1000
1000
1020
1020
1020
0FC0
ENDCHAR
STARTCHAR U+4E07
ENCODING 19975
SWIDTH 750 0
DWIDTH 12 0
BBX 11 11 0 0
BITMAP
FFE0
1000
1000
1000
1FC0
2020
2020
2020
4020
4020
83C0
ENDCHAR
STARTCHAR U+4E08
ENCODING 19976
SWIDTH 750 0
DWIDTH 12 0
BBX 11 11 0 0
BITMAP
0100
FFE0
0100
2100
2100
1100
1200
0A00
0400
1B00
E0E0
ENDCHAR
STARTCHAR U+4E09
ENCODING 19977
SWIDTH 750 0
DWIDTH 12 0
BBX 11 11 0 0
BITMAP
7FC0
0000
0000
0000
0000
3F80
0000
0000
0000
0000
FFE0
ENDCHAR
STARTCHAR U+4E0A
ENCODING 19978
SWIDTH 750 0
DWIDTH 12 0
BBX 11 11 0 0
BITMAP
0800
0800
0800
0FC0
0800
0800
0800
0800
0800
0800
FFE0
ENDCHAR
STARTCHAR U+4E0B
ENCODING 19979
SWIDTH 750 0
DWIDTH 12 0
BBX 11 11 0 0
BITMAP
FFE0
0400
0400
0400
0700
04C0
0420
0400
0400
0400
0400
ENDCHAR
STARTCHAR U+4E0D
ENCODING 19981
SWIDTH 750 0
DWIDTH 12 0
BBX 11 11 0 0
BITMAP
FFE0
0200
0200
0400
0C80
3440
C420
0420
0400
0400
0400
ENDCHAR
STARTCHAR U+4E0E
ENCODING 19982
SWIDTH 750 0
DWIDTH 12 0
BBX 11 11 0 0
BITMAP
2000
3FC0
2000
4000
7F80
4040
0040
FFE0
0040
2080
1F00
ENDCHAR
STARTCHAR U+4E10
ENCODING 19984
SWIDTH 750 0
DWIDTH 12 0
BBX 11 11 0 0
BITMAP
7FC0
0400
47C0
4400
4400
FFC0
0020
0020
0040
4040
3F80
ENDCHAR
STARTCHAR U+4E11
ENCODING 19985
SWIDTH 750 0
DWIDTH 12 0
BBX 11 11 0 0
BITMAP
7F00
1080
1080
1080
1080
FFE0
2080
2080
2080
2080
FFE0
ENDCHAR
STARTCHAR U+4E14
ENCODING 19988
SWIDTH 750 0
DWIDTH 12 0
BBX 11 11 0 0
BITMAP
3F80
4040
4040
7FC0
4040
4040
7FC0
4040
4040
4040
FFE0
ENDCHAR
STARTCHAR U+4E15
ENCODING 19989
SWIDTH 750 0
DWIDTH 12 0
BBX 11 11 0 0
BITMAP
FFE0
0200
0400
0C80
3440
C420
0420
0400
0400
0000
FFE0
ENDCHAR
STARTCHAR U+4E16
ENCODING 19990
SWIDTH 750 0
DWIDTH 12 0
BBX 11 11 0 0
BITMAP
4440
4440
FFE0
4440
4440
4440
4380
4000
4000
4000
3FE0
ENDCHAR
STARTCHAR U+4E17
ENCODING 19991
SWIDTH 750 0
DWIDTH 12 0
BBX 11 11 0 0
BITMAP
4440
4440
4440
FFE0
4440
4440
4440
4440
4440
4440
3F80
ENDCHAR
STARTCHAR U+4E18
ENCODING 19992
SWIDTH 750 0
DWIDTH 12 0
BBX 11 11 0 0
BITMAP
0380
1C00
2000
3FC0
2080
2080
2080
2080
2080
2080
FFE0
ENDCHAR
STARTCHAR U+4E19
ENCODING 19993
SWIDTH 750 0
DWIDTH 12 0
BBX 11 11 0 0
BITMAP
FFE0
0400
0400
7FC0
8420
8420
8A20
B1A0
8020
8020
81C0
ENDCHAR
STARTCHAR U+4E1E
ENCODING 19998
SWIDTH 750 0
DWIDTH 12 0
BBX 11 11 0 0
BITMAP
1E00
0100
E220
1440
1680
2500
4480
8460
1800
0000
FFE0
ENDCHAR
STARTCHAR U+4E21
ENCODING 20001
SWIDTH 750 0
DWIDTH 12 0
BBX 11 11 0 0
BITMAP
FFE0
0400
0400
7FC0
8420
A4A0
A4A0
A4A0
9F20
8020
81C0
ENDCHAR
STARTCHAR U+4E26
ENCODING 20006
SWIDTH 750 0
DWIDTH 12 0
BBX 11 11 0 0
BITMAP
2080
1100
7FC0
1100
1100
9120
5120
5140
1100
1100
FFE0
ENDCHAR
STARTCHAR U+4E2A
ENCODING 20010
SWIDTH 750 0
DWIDTH 12 0
BBX 11 11 0 0
BITMAP
0400
0A00
3180
C460
0400
0400
0400
0400
0400
0400
0400
ENDCHAR
STARTCHAR U+4E2D
ENCODING 20013
SWIDTH 750 0
DWIDTH 12 0
BBX 11 11 0 0
BITMAP
0400
7FC0
8420
8420
8420
8420
7FC0
0400
0400
0400
0400
ENDCHAR
STARTCHAR U+4E31
ENCODING 20017
SWIDTH 750 0
DWIDTH 12 0
BBX 11 11 0 0
BITMAP
0A00
0A00
8A20
8A20
8A20
8A20
7BC0
0A00
0A00
1200
6200
ENDCHAR
STARTCHAR U+4E32
ENCODING 20018
SWIDTH 750 0
DWIDTH 12 0
BBX 11 11 0 0
BITMAP
0400
3F80
4440
4440
3F80
0400
7FC0
8420
8420
7FC0
0400
ENDCHAR
STARTCHAR U+4E36
ENCODING 20022
SWIDTH 750 0
DWIDTH 12 0
BBX 4 7 4 2
BITMAP
80
40
20
20
10
10
10
ENDCHAR
STARTCHAR U+4E38
ENCODING 20024
SWIDTH 750 0
DWIDTH 12 0
BBX 11 11 0 0
BITMAP
0800
FF80
0840
0840
4840
2840
1080
1080
2880
4480
8460
ENDCHAR
STARTCHAR U+4E39
ENCODING 20025
SWIDTH 750 0
DWIDTH 12 0
BBX 11 11 0 0
BITMAP
1F80
2040
2440
2240
2240
2040
FFE0
2040
4040
4040
8380
ENDCHAR
STARTCHAR U+4E3B
ENCODING 20027
SWIDTH 750 0
DWIDTH 12 0
BBX 11 11 0 0
BITMAP
0800
0400
7FC0
0400
0400
0400
7FC0
0400
0400
0400
FFE0
ENDCHAR
STARTCHAR U+4E3C
ENCODING 20028
SWIDTH 750 0
DWIDTH 12 0
BBX 11 11 0 0
BITMAP
2080
FFE0
2080
2880
2480
2480
2080
FFE0
2080
4080
8080
ENDCHAR
STARTCHAR U+4E3F
ENCODING 20031
SWIDTH 750 0
DWIDTH 12 0
BBX 5 11 2 0
BITMAP
08
08
08
08
08
08
08
10
10
20
C0
ENDCHAR
STARTCHAR U+4E42
ENCODING 20034
SWIDTH 750 0
DWIDTH 12 0
BBX 11 11 0 0
BITMAP
4040
4040
2080
2080
1100
0A00
0400
0A00
1100
2080
C060
ENDCHAR
STARTCHAR U+4E43
ENCODING 20035
SWIDTH 750 0
DWIDTH 12 0
BBX 11 11 0 0
BITMAP
7F80
0840
0840
0880
0880
1040
1020
2020
2020
4240
8180
ENDCHAR
STARTCHAR U+4E45
ENCODING 20037
SWIDTH 750 0
DWIDTH 12 0
BBX 11 11 0 0
BITMAP
1000
1F00
1080
2080
2080
4100
8200
0500
0880
3040
C020
ENDCHAR
STARTCHAR U+4E4B
ENCODING 20043
SWIDTH 750 0
DWIDTH 12 0
BBX 11 11 0 0
BITMAP
0400
0400
7F80
0040
0080
0100
0200
0C00
3000
4C00
83E0
ENDCHAR
STARTCHAR U+4E4D
ENCODING 20045
SWIDTH 750 0
DWIDTH 12 0
BBX 11 11 0 0
BITMAP
2000
2000
3FE0
4400
4400
87E0
0400
0400
07E0
0400
0400
ENDCHAR
STARTCHAR U+4E4E
ENCODING 20046
SWIDTH 750 0
DWIDTH 12 0
BBX 11 11 0 0
BITMAP
03C0
7C00
0440
4440
2480
0400
FFE0
0400
0400
0400
3800
ENDCHAR
STARTCHAR U+4E4F
ENCODING 20047
SWIDTH 750 0
DWIDTH 12 0
BBX 11 11 0 0
BITMAP
03C0
7C00
0400
0400
7F80
0040
0180
0E00
3000
4C00
83E0
ENDCHAR
STARTCHAR U+4E55
ENCODING 20053
SWIDTH 750 0
DWIDTH 12 0
BBX 11 11 0 0
BITMAP
01E0
3E00
4200
5FC0
4200
7FE0
4200
4F80
5240
9240
8280
ENDCHAR
STARTCHAR U+4E56
ENCODING 20054
SWIDTH 750 0
DWIDTH 12 0
BBX 11 11 0 0
BITMAP
03C0
7C00
0400
FFE0
0400
1520
F5C0
1500
3520
D4C0
0400
ENDCHAR
STARTCHAR U+4E57
ENCODING 20055
SWIDTH 750 0
DWIDTH 12 0
BBX 11 11 0 0
BITMAP
03C0
7C00
0400
FFE0
2480
FFE0
2480
FFE0
1500
2480
C460
ENDCHAR
STARTCHAR U+4E58
ENCODING 20056
SWIDTH 750 0
DWIDTH 12 0
BBX 11 11 0 0
BITMAP
7FC0
0400
FFE0
1500
F5C0
1500
3520
D4C0
0E00
3580
C460
ENDCHAR
STARTCHAR U+4E59
ENCODING 20057
SWIDTH 750 0
DWIDTH 12 0
BBX 11 11 0 0
BITMAP
7F80
0040
0180
0600
1800
2000
4020
8020
8020
8020
7FC0
ENDCHAR
STARTCHAR U+4E5D
ENCODING 20061
SWIDTH 750 0
DWIDTH 12 0
BBX 11 11 0 0
BITMAP
0800
0800
FF80
0840
0840
0840
1040
1080
2080
4080
8060
ENDCHAR
STARTCHAR U+4E5E
ENCODING 20062
SWIDTH 750 0
DWIDTH 12 0
BBX 11 11 0 0
BITMAP
4000
7FE0
4000
BF80
0040
0180
0E00
3000
4020
8020
7FC0
ENDCHAR
STARTCHAR U+4E5F
ENCODING 20063
SWIDTH 750 0
DWIDTH 12 0
BBX 11 11 0 0
BITMAP
2200
23C0
3E20
E220
2220
2220
22C0
2200
2020
2020
1FC0
ENDCHAR
STARTCHAR U+4E62
ENCODING 20066
SWIDTH 750 0
DWIDTH 12 0
BBX 11 11 0 0
BITMAP
2200
2200
AA00
AA00
AA00
AA00
AA20
AA20
AA20
AA20
71C0
ENDCHAR
STARTCHAR U+4E71
ENCODING 20081
SWIDTH 750 0
DWIDTH 12 0
BBX 11 11 0 0
BITMAP
1A00
E200
2200
FA00
2200
2200
7220
8A20
8A20
8A20
71C0
ENDCHAR
STARTCHAR U+4E73
ENCODING 20083
SWIDTH 750 0
DWIDTH 12 0
BBX 11 11 0 0
BITMAP
1A00
E200
0A00
AA00
1200
7200
0A20
1220
FA20
1220
61C0
ENDCHAR
STARTCHAR U+4E7E
ENCODING 20094
SWIDTH 750 0
DWIDTH 12 0
BBX 11 11 0 0
BITMAP
2200
FBE0
2400
73C0
8820
F840
8980
7200
2420
FC20
23C0
ENDCHAR
STARTCHAR U+4E80
ENCODING 20096
SWIDTH 750 0
DWIDTH 12 0
BBX 11 11 0 0
BITMAP
3E00
C100
3F80
4440
7FC0
8420
FFE0
8420
7FC0
0420
03C0
ENDCHAR
STARTCHAR U+4E82
ENCODING 20098
SWIDTH 750 0
DWIDTH 12 0
BBX 11 11 0 0
BITMAP
3D00
4100
5500
8100
7900
0500
7920
9520
A520
D520
88C0
ENDCHAR
STARTCHAR U+4E85
ENCODING 20101
SWIDTH 750 0
DWIDTH 12 0
BBX 4 11 2 0
BITMAP
10
10
10
10
10
10
10
10
10
10
E0
ENDCHAR
STARTCHAR U+4E86
ENCODING 20102
SWIDTH 750 0
DWIDTH 12 0
BBX 11 11 0 0
BITMAP
FFC0
0020
00C0
0300
0400
0400
0400
0400
0400
0400
3800
ENDCHAR
STARTCHAR U+4E88
ENCODING 20104
SWIDTH 750 0
DWIDTH 12 0
BBX 11 11 0 0
BITMAP
7F80
0040
1080
0900
FFC0
0420
0420
0440
0480
0400
3800
ENDCHAR
STARTCHAR U+4E89
ENCODING 20105
SWIDTH 750 0
DWIDTH 12 0
BBX 11 11 0 0
BITMAP
1E00
2100
C200
3F80
0440
FFE0
0440
7F80
0400
0400
3800
ENDCHAR
STARTCHAR U+4E8A
ENCODING 20106
SWIDTH 750 0
DWIDTH 12 0
BBX 11 11 0 0
BITMAP
0400
FFE0
2480
1500
7F80
0440
FFE0
0440
7F80
0400
3800
ENDCHAR
STARTCHAR U+4E8B
ENCODING 20107
SWIDTH 750 0
DWIDTH 12 0
BBX 11 11 0 0
BITMAP
0400
FFE0
4440
4440
3F80
0440
FFE0
0440
7F80
0400
3800
ENDCHAR
STARTCHAR U+4E8C
ENCODING 20108
SWIDTH 750 0
DWIDTH 12 0
BBX 11 9 0 1
BITMAP
7FC0
0000
0000
0000
0000
0000
0000
0000
FFE0
ENDCHAR
STARTCHAR U+4E8E
ENCODING 20110
SWIDTH 750 0
DWIDTH 12 0
BBX 11 11 0 0
BITMAP
7FC0
0400
0400
0400
FFE0
0400
0400
0400
0400
0400
3800
ENDCHAR
STARTCHAR U+4E91
ENCODING 20113
SWIDTH 750 0
DWIDTH 12 0
BBX 11 11 0 0
BITMAP
7FC0
0000
0000
0000
FFE0
0800
1080
1040
2040
23A0
FC20
ENDCHAR
STARTCHAR U+4E92
ENCODING 20114
SWIDTH 750 0
DWIDTH 12 0
BBX 11 11 0 0
BITMAP
7FC0
0800
1000
1F00
2080
2080
2080
1F00
0100
0200
FFE0
ENDCHAR
STARTCHAR U+4E94
ENCODING 20116
SWIDTH 750 0
DWIDTH 12 0
BBX 11 11 0 0
BITMAP
7FC0
0400
0400
0400
7F00
0880
0880
1080
1080
1080
FFE0
ENDCHAR
STARTCHAR U+4E95
ENCODING 20117
SWIDTH 750 0
DWIDTH 12 0
BBX 11 11 0 0
BITMAP
2080
2080
FFE0
2080
2080
2080
2080
FFE0
2080
4080
8080
ENDCHAR
STARTCHAR U+4E98
ENCODING 20120
SWIDTH 750 0
DWIDTH 12 0
BBX 11 11 0 0
BITMAP
FFE0
0000
3F80
4040
4040
7FC0
4040
4040
3F80
0000
FFE0
ENDCHAR
STARTCHAR U+4E99
ENCODING 20121
SWIDTH 750 0
DWIDTH 12 0
BBX 11 11 0 0
BITMAP
FFE0
1000
1000
1F80
2040
2C40
4240
5880
0480
0100
FFE0
ENDCHAR
STARTCHAR U+4E9B
ENCODING 20123
SWIDTH 750 0
DWIDTH 12 0
BBX 11 11 0 0
BITMAP
1240
5B80
5200
5220
5A20
E1C0
0000
7FC0
0000
0000
FFE0
ENDCHAR
STARTCHAR U+4E9C
ENCODING 20124
SWIDTH 750 0
DWIDTH 12 0
BBX 11 11 0 0
BITMAP
FFE0
1100
1100
7FC0
9120
9120
9120
7FC0
1100
1100
FFE0
ENDCHAR
STARTCHAR U+4E9E
ENCODING 20126
SWIDTH 750 0
DWIDTH 12 0
BBX 11 11 0 0
BITMAP
FFE0
1100
1100
71C0
8020
8020
8020
71C0
1100
1100
FFE0
ENDCHAR
STARTCHAR U+4E9F
ENCODING 20127
SWIDTH 750 0
DWIDTH 12 0
BBX 11 11 0 0
BITMAP
FFE0
0800
13C0
6820
9520
9540
9480
6540
1A20
0000
FFE0
ENDCHAR
STARTCHAR U+4EA0
ENCODING 20128
SWIDTH 750 0
DWIDTH 12 0
BBX 11 4 0 5
BITMAP
0400
0400
0400
FFE0
ENDCHAR
STARTCHAR U+4EA1
ENCODING 20129
SWIDTH 750 0
DWIDTH 12 0
BBX 11 11 0 0
BITMAP
0400
FFE0
4000
4000
4000
4000
4000
4000
4000
4000
3FE0
ENDCHAR
STARTCHAR U+4EA2
ENCODING 20130
SWIDTH 750 0
DWIDTH 12 0
BBX 11 11 0 0
BITMAP
0400
FFE0
0000
1F00
2080
2080
2080
2080
20A0
40A0
8040
ENDCHAR
STARTCHAR U+4EA4
ENCODING 20132
SWIDTH 750 0
DWIDTH 12 0
BBX 11 11 0 0
BITMAP
0400
FFE0
1100
2080
D160
1100
0A00
0400
0A00
3180
C060
ENDCHAR
STARTCHAR U+4EA5
ENCODING 20133
SWIDTH 750 0
DWIDTH 12 0
BBX 11 11 0 0
BITMAP
0400
FFE0
1000
2080
2100
1240
0C80
7100
0680
1840
E020
ENDCHAR
STARTCHAR U+4EA6
ENCODING 20134
SWIDTH 750 0
DWIDTH 12 0
BBX 11 11 0 0
BITMAP
0400
0400
FFE0
1100
1100
5140
5120
9120
2100
2100
4E00
ENDCHAR
STARTCHAR U+4EA8
ENCODING 20136
SWIDTH 750 0
DWIDTH 12 0
BBX 11 11 0 0
BITMAP
0400
FFE0
4040
3F80
0000
FFC0
0020
03C0
0400
0400
3800
ENDCHAR
STARTCHAR U+4EAB
ENCODING 20139
SWIDTH 750 0
DWIDTH 12 0
BBX 11 11 0 0
BITMAP
0400
FFE0
4040
3F80
0000
3F00
0080
0700
FFE0
0400
3800
ENDCHAR
STARTCHAR U+4EAC
ENCODING 20140
SWIDTH 750 0
DWIDTH 12 0
BBX 11 11 0 0
BITMAP
0400
FFE0
0000
3F80
4040
4040
3F80
0400
24C0
C420
1800
ENDCHAR
STARTCHAR U+4EAD
ENCODING 20141
SWIDTH 750 0
DWIDTH 12 0
BBX 11 11 0 0
BITMAP
0400
FFE0
4040
3F80
0000
7FC0
8020
BFA0
0400
0400
3800
ENDCHAR
STARTCHAR U+4EAE
ENCODING 20142
SWIDTH 750 0
DWIDTH 12 0
BBX 11 11 0 0
BITMAP
0400
FFE0
4040
3F80
0000
7FC0
8020
9120
1100
2120
C0C0
ENDCHAR
STARTCHAR U+4EB0
ENCODING 20144
SWIDTH 750 0
DWIDTH 12 0
BBX 11 11 0 0
BITMAP
0400
FFE0
0000
3F80
4040
7FC0
4040
3F80
0400
24C0
D820
ENDCHAR
STARTCHAR U+4EB3
ENCODING 20147
SWIDTH 750 0
DWIDTH 12 0
BBX 11 11 0 0
BITMAP
0400
FFE0
2080
7FC0
8020
87A0
3800
0800
7FA0
0820
07C0
ENDCHAR
STARTCHAR U+4EB6
ENCODING 20150
SWIDTH 750 0
DWIDTH 12 0
BBX 11 11 0 0
BITMAP
0400
FFE0
5140
5140
5F40
4040
3F80
2080
3F80
2080
FFE0
ENDCHAR
STARTCHAR U+4EBA
ENCODING 20154
SWIDTH 750 0
DWIDTH 12 0
BBX 11 11 0 0
BITMAP
0400
0400
0400
0400
0A00
0A00
1100
1100
2080
4040
8020
ENDCHAR
STARTCHAR U+4EC0
ENCODING 20160
SWIDTH 750 0
DWIDTH 12 0
BBX 11 11 0 0
BITMAP
2100
2100
4100
5FE0
C100
4100
4100
4100
4100
4100
4100
ENDCHAR
STARTCHAR U+4EC1
ENCODING 20161
SWIDTH 750 0
DWIDTH 12 0
BBX 11 11 0 0
BITMAP
2000
2FC0
4000
4000
C000
4000
4000
4000
4000
4000
5FE0
ENDCHAR
STARTCHAR U+4EC2
ENCODING 20162
SWIDTH 750 0
DWIDTH 12 0
BBX 11 11 0 0
BITMAP
2200
2200
5FC0
4220
C220
4420
4420
4420
4820
4820
51C0
ENDCHAR
STARTCHAR U+4EC4
ENCODING 20164
SWIDTH 750 0
DWIDTH 12 0
BBX 11 11 0 0
BITMAP
3FE0
4000
4200
4200
4200
4500
4500
4880
4880
9040
A020
ENDCHAR
STARTCHAR U+4EC6
ENCODING 20166
SWIDTH 750 0
DWIDTH 12 0
BBX 11 11 0 0
BITMAP
1200
1200
2200
6200
A380
2260
2200
2200
2200
2200
2200
ENDCHAR
STARTCHAR U+4EC7
ENCODING 20167
SWIDTH 750 0
DWIDTH 12 0
BBX 11 11 0 0
BITMAP
2400
2400
5F80
4440
C440
4440
4440
4480
4880
4880
5060
ENDCHAR
STARTCHAR U+4ECA
ENCODING 20170
SWIDTH 750 0
DWIDTH 12 0
BBX 11 11 0 0
BITMAP
0E00
1100
2080
DF60
0000
7FC0
0020
0040
0080
0300
1C00
ENDCHAR
STARTCHAR U+4ECB
ENCODING 20171
SWIDTH 750 0
DWIDTH 12 0
BBX 11 11 0 0
BITMAP
0E00
1100
2080
C060
2080
2080
2080
2080
4080
4080
8080
ENDCHAR
STARTCHAR U+4ECD
ENCODING 20173
SWIDTH 750 0
DWIDTH 12 0
BBX 11 11 0 0
BITMAP
2F80
2440
4440
4480
C480
4440
4420
4420
4820
4820
51C0
ENDCHAR
STARTCHAR U+4ECE
ENCODING 20174
SWIDTH 750 0
DWIDTH 12 0
BBX 11 11 0 0
BITMAP
1100
1100
1100
1100
1100
2A80
2A80
2280
4440
4440
8820
ENDCHAR
STARTCHAR U+4ECF
ENCODING 20175
SWIDTH 750 0
DWIDTH 12 0
BBX 11 11 0 0
BITMAP
1100
1100
2100
6200
A200
2200
2440
2440
2440
29A0
2E20
ENDCHAR
STARTCHAR U+4ED4
ENCODING 20180
SWIDTH 750 0
DWIDTH 12 0
BBX 11 11 0 0
BITMAP
27C0
2020
4040
4080
C080
5FE0
4080
4080
4080
4080
4700
ENDCHAR
STARTCHAR U+4ED5
ENCODING 20181
SWIDTH 750 0
DWIDTH 12 0
BBX 11 11 0 0
BITMAP
2100
2100
4100
5FE0
C100
4100
4100
4100
4100
4100
4FE0
ENDCHAR
STARTCHAR U+4ED6
ENCODING 20182
SWIDTH 750 0
DWIDTH 12 0
BBX 11 11 0 0
BITMAP
2900
29C0
4F20
5920
C920
4920
4940
4900
4820
4820
47C0
ENDCHAR
STARTCHAR U+4ED7
ENCODING 20183
SWIDTH 750 0
DWIDTH 12 0
BBX 11 11 0 0
BITMAP
2080
2080
5FE0
4080
C880
4500
4500
4200
4500
4880
5060
ENDCHAR
STARTCHAR U+4ED8
ENCODING 20184
SWIDTH 750 0
DWIDTH 12 0
BBX 11 11 0 0
BITMAP
2040
2040
5FE0
4040
C040
4840
4440
4440
4040
4040
4380
ENDCHAR
STARTCHAR U+4ED9
ENCODING 20185
SWIDTH 750 0
DWIDTH 12 0
BBX 11 11 0 0
BITMAP
2100
2100
4920
4920
C920
4920
4920
4920
4920
4920
47C0
ENDCHAR
STARTCHAR U+4EDD
ENCODING 20189
SWIDTH 750 0
DWIDTH 12 0
BBX 11 11 0 0
BITMAP
0E00
1100
2080
C060
3F80
0400
0400
0400
0400
0400
FFE0
ENDCHAR
STARTCHAR U+4EDE
ENCODING 20190
SWIDTH 750 0
DWIDTH 12 0
BBX 11 11 0 0
BITMAP
2FC0
2220
4220
5220
CA20
4A20
4220
4420
4420
4820
51C0
ENDCHAR
STARTCHAR U+4EDF
ENCODING 20191
SWIDTH 750 0
DWIDTH 12 0
BBX 11 11 0 0
BITMAP
20E0
2F00
4100
4100
C100
5FE0
4100
4100
4100
4100
4100
ENDCHAR
STARTCHAR U+4EE3
ENCODING 20195
SWIDTH 750 0
DWIDTH 12 0
BBX 11 11 0 0
BITMAP
2240
2220
5FC0
4200
C200
4100
4100
4100
40A0
40A0
4040
ENDCHAR
STARTCHAR U+4EE4
ENCODING 20196
SWIDTH 750 0
DWIDTH 12 0
BBX 11 11 0 0
BITMAP
0E00
1100
2080
DF60
0000
7FC0
0420
0420
0440
0580
0400
ENDCHAR
STARTCHAR U+4EE5
ENCODING 20197
SWIDTH 750 0
DWIDTH 12 0
BBX 11 11 0 0
BITMAP
4840
4440
4240
4240
4040
4040
4480
5880
E140
0620
3820
ENDCHAR
STARTCHAR U+4EED
ENCODING 20205
SWIDTH 750 0
DWIDTH 12 0
BBX 11 11 0 0
BITMAP
2F80
2440
4440
5440
CC40
4640
45E0
4440
4840
4840
5180
ENDCHAR
STARTCHAR U+4EEE
ENCODING 20206
SWIDTH 750 0
DWIDTH 12 0
BBX 11 11 0 0
BITMAP
27E0
2800
4800
4FC0
C820
4A20
4A20
4940
4880
5140
5620
ENDCHAR
STARTCHAR U+4EF0
ENCODING 20208
SWIDTH 750 0
DWIDTH 12 0
BBX 11 11 0 0
BITMAP
24C0
2920
5120
5120
D120
5120
5120
5120
5520
5940
4100
ENDCHAR
STARTCHAR U+4EF2
ENCODING 20210
SWIDTH 750 0
DWIDTH 12 0
BBX 11 11 0 0
BITMAP
2100
2FC0
5120
5120
D120
5120
4FC0
4100
4100
4100
4100
ENDCHAR
STARTCHAR U+4EF6
ENCODING 20214
SWIDTH 750 0
DWIDTH 12 0
BBX 11 11 0 0
BITMAP
2900
2900
4FE0
5100
D100
4100
5FE0
4100
4100
4100
4100
ENDCHAR
STARTCHAR U+4EF7
ENCODING 20215
SWIDTH 750 0
DWIDTH 12 0
BBX 11 11 0 0
BITMAP
2380
2440
5820
4440
C440
4440
4440
4440
4840
4840
5040
ENDCHAR
STARTCHAR U+4EFB
ENCODING 20219
SWIDTH 750 0
DWIDTH 12 0
BBX 11 11 0 0
BITMAP
20E0
2F00
4100
4100
C100
5FE0
4100
4100
4100
4100
4FE0
ENDCHAR
STARTCHAR U+4F01
ENCODING 20225
SWIDTH 750 0
DWIDTH 12 0
BBX 11 11 0 0
BITMAP
0E00
1100
2080
C460
0400
2400
27C0
2400
2400
2400
FFE0
ENDCHAR
STARTCHAR U+4F09
ENCODING 20233
SWIDTH 750 0
DWIDTH 12 0
BBX 11 11 0 0
BITMAP
2200
2200
5FE0
4000
C700
4880
4880
48A0
48A0
50A0
5040
ENDCHAR
STARTCHAR U+4F0A
ENCODING 20234
SWIDTH 750 0
DWIDTH 12 0
BBX 11 11 0 0
BITMAP
2F80
2240
4240
5FE0
C240
4240
4F80
4200
4200
4400
4800
ENDCHAR
STARTCHAR U+4F0D
ENCODING 20237
SWIDTH 750 0
DWIDTH 12 0
BBX 11 11 0 0
BITMAP
2FE0
2100
4100
4100
CF80
4240
4240
4440
4440
4440
5FE0
ENDCHAR
STARTCHAR U+4F0E
ENCODING 20238
SWIDTH 750 0
DWIDTH 12 0
BBX 11 11 0 0
BITMAP
2100
2FE0
4100
4100
CFC0
4020
4840
4480
4300
4480
5860
ENDCHAR
STARTCHAR U+4F0F
ENCODING 20239
SWIDTH 750 0
DWIDTH 12 0
BBX 11 11 0 0
BITMAP
2240
2220
5FC0
4200
C200
4500
4500
4880
4880
5040
6020
ENDCHAR
STARTCHAR U+4F10
ENCODING 20240
SWIDTH 750 0
DWIDTH 12 0
BBX 11 11 0 0
BITMAP
2240
2220
5FC0
4200
C240
4240
4280
4100
4120
42A0
4C40
ENDCHAR
STARTCHAR U+4F11
ENCODING 20241
SWIDTH 750 0
DWIDTH 12 0
BBX 11 11 0 0
BITMAP
2100
2100
5FE0
4100
C100
4380
4540
5920
4100
4100
4100
ENDCHAR
STARTCHAR U+4F1A
ENCODING 20250
SWIDTH 750 0
DWIDTH 12 0
BBX 11 11 0 0
BITMAP
0E00
1100
2080
DF60
0000
0000
7FC0
0800
1080
2340
7C40
ENDCHAR
STARTCHAR U+4F1C
ENCODING 20252
SWIDTH 750 0
DWIDTH 12 0
BBX 11 11 0 0
BITMAP
2200
2FC0
4220
4240
C440
5920
4100
5FE0
4100
4100
4100
ENDCHAR
STARTCHAR U+4F1D
ENCODING 20253
SWIDTH 750 0
DWIDTH 12 0
BBX 11 11 0 0
BITMAP
2FC0
2000
4000
4000
DFE0
4200
4400
4440
4840
49A0
5E20
ENDCHAR
STARTCHAR U+4F2F
ENCODING 20271
SWIDTH 750 0
DWIDTH 12 0
BBX 11 11 0 0
BITMAP
2100
2200
4FC0
5020
D020
5020
5FE0
5020
5020
5020
4FC0
ENDCHAR
STARTCHAR U+4F30
ENCODING 20272
SWIDTH 750 0
DWIDTH 12 0
BBX 11 11 0 0
BITMAP
2100
2100
5FE0
4100
C100
47C0
4820
4820
4820
4820
47C0
ENDCHAR
STARTCHAR U+4F34
ENCODING 20276
SWIDTH 750 0
DWIDTH 12 0
BBX 11 11 0 0
BITMAP
2100
2920
4540
4100
CFE0
4100
4100
5FE0
4100
4100
4100
ENDCHAR
STARTCHAR U+4F36
ENCODING 20278
SWIDTH 750 0
DWIDTH 12 0
BBX 11 11 0 0
BITMAP
2300
2480
4840
57A0
C000
5FC0
4220
4220
42C0
4200
4200
ENDCHAR
STARTCHAR U+4F38
ENCODING 20280
SWIDTH 750 0
DWIDTH 12 0
BBX 11 11 0 0
BITMAP
2100
2FC0
5120
5120
DFE0
5120
5120
4FC0
4100
4100
4100
ENDCHAR
STARTCHAR U+4F3A
ENCODING 20282
SWIDTH 750 0
DWIDTH 12 0
BBX 11 11 0 0
BITMAP
2FC0
2020
4FA0
4020
C720
48A0
48A0
48A0
4720
4020
41C0
ENDCHAR
STARTCHAR U+4F3C
ENCODING 20284
SWIDTH 750 0
DWIDTH 12 0
BBX 11 11 0 0
BITMAP
2020
2A20
4920
4920
C820
4920
4A40
5C40
40A0
4320
5C20
ENDCHAR
STARTCHAR U+4F3D
ENCODING 20285
SWIDTH 750 0
DWIDTH 12 0
BBX 11 11 0 0
BITMAP
28C0
2920
5F20
4920
C920
4920
4920
4920
5120
5120
66C0
ENDCHAR
STARTCHAR U+4F43
ENCODING 20291
SWIDTH 750 0
DWIDTH 12 0
BBX 11 11 0 0
BITMAP
27C0
2920
4920
4920
C920
4FE0
4920
4920
4920
4920
47C0
ENDCHAR
STARTCHAR U+4F46
ENCODING 20294
SWIDTH 750 0
DWIDTH 12 0
BBX 11 11 0 0
BITMAP
27C0
2820
4820
4820
CFE0
4820
4820
4820
47C0
4000
5FE0
ENDCHAR
STARTCHAR U+4F47
ENCODING 20295
SWIDTH 750 0
DWIDTH 12 0
BBX 11 11 0 0
BITMAP
2100
2FC0
5020
5020
C000
5FE0
4100
4100
4100
4100
4E00
ENDCHAR
STARTCHAR U+4F4D
ENCODING 20301
SWIDTH 750 0
DWIDTH 12 0
BBX 11 11 0 0
BITMAP
2100
2FE0
4000
4820
C820
4420
4440
4440
4480
4080
5FE0
ENDCHAR
STARTCHAR U+4F4E
ENCODING 20302
SWIDTH 750 0
DWIDTH 12 0
BBX 11 11 0 0
BITMAP
20E0
2F00
5100
5100
DFE0
5100
5100
5080
5CA0
60A0
5F40
ENDCHAR
STARTCHAR U+4F4F
ENCODING 20303
SWIDTH 750 0
DWIDTH 12 0
BBX 11 11 0 0
BITMAP
2200
2100
4FE0
4100
C100
4100
4FE0
4100
4100
4100
5FE0
ENDCHAR
STARTCHAR U+4F50
ENCODING 20304
SWIDTH 750 0
DWIDTH 12 0
BBX 11 11 0 0
BITMAP
2200
2200
5FE0
4400
C400
47C0
4900
4900
5100
4100
5FE0
ENDCHAR
STARTCHAR U+4F51
ENCODING 20305
SWIDTH 750 0
DWIDTH 12 0
BBX 11 11 0 0
BITMAP
2200
2200
5FE0
4400
C400
47C0
4820
5820
6820
4820
47C0
ENDCHAR
STARTCHAR U+4F53
ENCODING 20307
SWIDTH 750 0
DWIDTH 12 0
BBX 11 11 0 0
BITMAP
2100
2100
4FE0
4100
C380
4540
4920
5100
47C0
4100
4100
ENDCHAR
STARTCHAR U+4F55
ENCODING 20309
SWIDTH 750 0
DWIDTH 12 0
BBX 11 11 0 0
BITMAP
2000
2FE0
4040
4E40
D140
5140
5140
5140
4E40
4040
4380
ENDCHAR
STARTCHAR U+4F57
ENCODING 20311
SWIDTH 750 0
DWIDTH 12 0
BBX 11 11 0 0
BITMAP
2100
2FC0
5020
5000
C860
4980
4E00
4820
4820
4820
47C0
ENDCHAR
STARTCHAR U+4F59
ENCODING 20313
SWIDTH 750 0
DWIDTH 12 0
BBX 11 11 0 0
BITMAP
0E00
1100
2080
DF60
0400
0400
7FC0
0400
24C0
C420
1800
ENDCHAR
STARTCHAR U+4F5A
ENCODING 20314
SWIDTH 750 0
DWIDTH 12 0
BBX 11 11 0 0
BITMAP
2900
2900
4FE0
5100
C100
4100
5FE0
4100
4280
4440
5820
ENDCHAR
STARTCHAR U+4F5B
ENCODING 20315
SWIDTH 750 0
DWIDTH 12 0
BBX 11 11 0 0
BITMAP
2480
2FC0
44A0
44A0
CFC0
5480
5480
4FC0
44A0
48A0
50C0
ENDCHAR
STARTCHAR U+4F5C
ENCODING 20316
SWIDTH 750 0
DWIDTH 12 0
BBX 11 11 0 0
BITMAP
2400
27E0
4900
4900
D1E0
4100
4100
41E0
4100
4100
4100
ENDCHAR
STARTCHAR U+4F5D
ENCODING 20317
SWIDTH 750 0
DWIDTH 12 0
BBX 11 11 0 0
BITMAP
2800
2FC0
4820
5720
C8A0
48A0
48A0
48A0
4720
4040
4380
ENDCHAR
STARTCHAR U+4F5E
ENCODING 20318
SWIDTH 750 0
DWIDTH 12 0
BBX 11 11 0 0
BITMAP
2FC0
2000
4000
5FE0
C200
4400
5FE0
4840
4880
4700
58E0
ENDCHAR
STARTCHAR U+4F69
ENCODING 20329
SWIDTH 750 0
DWIDTH 12 0
BBX 11 11 0 0
BITMAP
2F80
3040
5740
5240
D740
5AC0
5AC0
5AC0
5340
5240
6220
ENDCHAR
STARTCHAR U+4F6F
ENCODING 20335
SWIDTH 750 0
DWIDTH 12 0
BBX 11 11 0 0
BITMAP
2840
2480
5FE0
4100
C100
4FC0
4100
4100
5FE0
4100
4100
ENDCHAR
STARTCHAR U+4F70
ENCODING 20336
SWIDTH 750 0
DWIDTH 12 0
BBX 11 11 0 0
BITMAP
2FE0
2100
4200
4FC0
D020
5020
5FE0
5020
5020
5020
4FC0
ENDCHAR
STARTCHAR U+4F73
ENCODING 20339
SWIDTH 750 0
DWIDTH 12 0
BBX 11 11 0 0
BITMAP
2100
2FC0
4100
4100
DFE0
4100
4100
4FC0
4100
4100
5FE0
ENDCHAR
STARTCHAR U+4F75
ENCODING 20341
SWIDTH 750 0
DWIDTH 12 0
BBX 11 11 0 0
BITMAP
2820
2440
4FE0
4440
C440
4440
5FE0
4440
4440
4840
5040
ENDCHAR
STARTCHAR U+4F76
ENCODING 20342
SWIDTH 750 0
DWIDTH 12 0
BBX 11 11 0 0
BITMAP
2100
2FE0
4100
4100
CFE0
4000
47C0
4820
4820
4820
47C0
ENDCHAR
STARTCHAR U+4F7B
ENCODING 20347
SWIDTH 750 0
DWIDTH 12 0
BBX 11 11 0 0
BITMAP
2520
3540
4D80
4500
C500
4D80
5560
4500
4920
4920
50C0
ENDCHAR
STARTCHAR U+4F7C
ENCODING 20348
SWIDTH 750 0
DWIDTH 12 0
BBX 11 11 0 0
BITMAP
2100
2FE0
4000
4480
D860
4000
4840
4480
4300
4480
5860
ENDCHAR
STARTCHAR U+4F7F
ENCODING 20351
SWIDTH 750 0
DWIDTH 12 0
BBX 11 11 0 0
BITMAP
2100
2FE0
4100
4FC0
D120
5120
4FC0
5100
4A00
4600
59E0
ENDCHAR
STARTCHAR U+4F83
ENCODING 20355
SWIDTH 750 0
DWIDTH 12 0
BBX 12 11 0 0
BITMAP
27C0
2820
4820
4820
C7C0
4000
4540
4540
4540
4950
5120
ENDCHAR
STARTCHAR U+4F86
ENCODING 20358
SWIDTH 750 0
DWIDTH 12 0
BBX 11 11 0 0
BITMAP
0400
FFE0
0400
2480
2480
5540
8E20
1500
2480
C460
0400
ENDCHAR
STARTCHAR U+4F88
ENCODING 20360
SWIDTH 750 0
DWIDTH 12 0
BBX 11 11 0 0
BITMAP
23C0
2C20
4320
40C0
DF00
4000
43C0
5C20
4320
40C0
5F00
ENDCHAR
STARTCHAR U+4F8B
ENCODING 20363
SWIDTH 750 0
DWIDTH 12 0
BBX 11 11 0 0
BITMAP
2E20
28A0
48A0
4CA0
D2A0
52A0
6AA0
4A20
4420
4820
50C0
ENDCHAR
STARTCHAR U+4F8D
ENCODING 20365
SWIDTH 750 0
DWIDTH 12 0
BBX 11 11 0 0
BITMAP
2100
2FE0
4100
4100
DFE0
4040
5FE0
4840
4440
4040
4380
ENDCHAR
STARTCHAR U+4F8F
ENCODING 20367
SWIDTH 750 0
DWIDTH 12 0
BBX 11 11 0 0
BITMAP
2900
2FE0
4900
5100
C100
5FE0
4100
4380
4540
5920
4100
ENDCHAR
STARTCHAR U+4F91
ENCODING 20369
SWIDTH 750 0
DWIDTH 12 0
BBX 11 11 0 0
BITMAP
2400
3FE0
4400
47C0
C820
4FE0
5820
6FE0
4820
4820
48C0
ENDCHAR
STARTCHAR U+4F96
ENCODING 20374
SWIDTH 750 0
DWIDTH 12 0
BBX 11 11 0 0
BITMAP
0E00
1100
2080
DF60
0000
7FC0
9120
FFE0
9120
9120
91C0
ENDCHAR
STARTCHAR U+4F98
ENCODING 20376
SWIDTH 750 0
DWIDTH 12 0
BBX 11 11 0 0
BITMAP
2100
2FC0
5020
51A0
CE00
4260
4380
5E00
4220
4220
41C0
ENDCHAR
STARTCHAR U+4F9B
ENCODING 20379
SWIDTH 750 0
DWIDTH 12 0
BBX 11 11 0 0
BITMAP
2440
2440
5FE0
4440
C440
4440
4440
5FE0
4000
4440
5820
ENDCHAR
STARTCHAR U+4F9D
ENCODING 20381
SWIDTH 750 0
DWIDTH 12 0
BBX 11 11 0 0
BITMAP
2100
2FE0
4200
4520
C920
5940
4880
4880
4840
4E40
7020
ENDCHAR
STARTCHAR U+4FA0
ENCODING 20384
SWIDTH 750 0
DWIDTH 12 0
BBX 11 11 0 0
BITMAP
2100
2FE0
4100
4920
C540
4100
5FE0
4100
4280
4440
5820
ENDCHAR
STARTCHAR U+4FA1
ENCODING 20385
SWIDTH 750 0
DWIDTH 12 0
BBX 11 11 0 0
BITMAP
2FE0
2480
4480
4FC0
D4A0
54A0
54A0
54A0
54A0
54A0
4FC0
ENDCHAR
STARTCHAR U+4FAB
ENCODING 20395
SWIDTH 750 0
DWIDTH 12 0
BBX 11 11 0 0
BITMAP
2100
2FE0
4800
4800
C7C0
4200
5FE0
4840
4880
4700
58E0
ENDCHAR
STARTCHAR U+4FAD
ENCODING 20397
SWIDTH 750 0
DWIDTH 12 0
BBX 11 11 0 0
BITMAP
27C0
2820
4820
4FC0
C840
4840
5320
50A0
4600
4180
4060
ENDCHAR
STARTCHAR U+4FAE
ENCODING 20398
SWIDTH 750 0
DWIDTH 12 0
BBX 11 11 0 0
BITMAP
2800
2FE0
5000
4F80
D240
7FE0
5240
5240
4FE0
4080
4700
ENDCHAR
STARTCHAR U+4FAF
ENCODING 20399
SWIDTH 750 0
DWIDTH 12 0
BBX 11 11 0 0
BITMAP
2F80
2040
4040
5FE0
C800
4FE0
5100
4FE0
4100
4280
5C60
ENDCHAR
STARTCHAR U+4FB5
ENCODING 20405
SWIDTH 750 0
DWIDTH 12 0
BBX 11 11 0 0
BITMAP
2F80
2040
4FC0
4040
CFC0
5020
57A0
4040
4480
4300
5CE0
ENDCHAR
STARTCHAR U+4FB6
ENCODING 20406
SWIDTH 750 0
DWIDTH 12 0
BBX 11 11 0 0
BITMAP
2780
2840
4840
4840
C780
4200
4FC0
5020
5020
5020
4FC0
ENDCHAR
STARTCHAR U+4FBF
ENCODING 20415
SWIDTH 750 0
DWIDTH 12 0
BBX 11 11 0 0
BITMAP
2FE0
2100
47C0
4920
CFE0
4920
4920
47C0
4900
4600
59E0
ENDCHAR
STARTCHAR U+4FC2
ENCODING 20418
SWIDTH 750 0
DWIDTH 12 0
BBX 11 11 0 0
BITMAP
20E0
2F00
4440
4980
C600
44C0
5F20
4100
4940
4920
5120
ENDCHAR
STARTCHAR U+4FC3
ENCODING 20419
SWIDTH 750 0
DWIDTH 12 0
BBX 11 11 0 0
BITMAP
27C0
2820
4820
4820
C7C0
4100
4900
49E0
4900
5700
50E0
ENDCHAR
STARTCHAR U+4FC4
ENCODING 20420
SWIDTH 750 0
DWIDTH 12 0
BBX 11 11 0 0
BITMAP
2540
3920
4900
5FE0
C900
4940
4D40
5880
49A0
4AA0
5440
ENDCHAR
STARTCHAR U+4FCA
ENCODING 20426
SWIDTH 750 0
DWIDTH 12 0
BBX 11 11 0 0
BITMAP
2300
2400
48C0
5F20
C480
5860
4780
5840
4480
4300
5CE0
ENDCHAR
STARTCHAR U+4FCE
ENCODING 20430
SWIDTH 750 0
DWIDTH 12 0
BBX 11 11 0 0
BITMAP
2380
2440
2440
57C0
8C40
2440
27C0
2440
5440
8440
1FE0
ENDCHAR
STARTCHAR U+4FD0
ENCODING 20432
SWIDTH 750 0
DWIDTH 12 0
BBX 11 11 0 0
BITMAP
2320
2CA0
44A0
44A0
DEA0
44A0
44A0
4E20
5520
4420
44C0
ENDCHAR
STARTCHAR U+4FD1
ENCODING 20433
SWIDTH 750 0
DWIDTH 12 0
BBX 11 11 0 0
BITMAP
2FC0
2020
4440
4FC0
D120
5FE0
5120
5FE0
5120
5120
51C0
ENDCHAR
STARTCHAR U+4FD4
ENCODING 20436
SWIDTH 750 0
DWIDTH 12 0
BBX 11 11 0 0
BITMAP
27C0
2820
4FE0
4820
C820
4FE0
4820
4820
47C0
4280
5C60
ENDCHAR
STARTCHAR U+4FD7
ENCODING 20439
SWIDTH 750 0
DWIDTH 12 0
BBX 11 11 0 0
BITMAP
2480
2860
4300
4480
D860
4000
4FC0
5020
5020
5020
4FC0
ENDCHAR
STARTCHAR U+4FD8
ENCODING 20440
SWIDTH 750 0
DWIDTH 12 0
BBX 11 11 0 0
BITMAP
2FE0
2A40
5120
4FC0
C020
40C0
4100
5FE0
4100
4100
4E00
ENDCHAR
STARTCHAR U+4FDA
ENCODING 20442
SWIDTH 750 0
DWIDTH 12 0
BBX 11 11 0 0
BITMAP
27C0
2920
4FE0
4920
C920
47C0
4100
4FE0
4100
4100
5FE0
ENDCHAR
STARTCHAR U+4FDB
ENCODING 20443
SWIDTH 750 0
DWIDTH 12 0
BBX 11 11 0 0
BITMAP
2780
2840
5080
4FC0
D120
5120
4FC0
4280
42A0
44A0
5840
ENDCHAR
STARTCHAR U+4FDD
ENCODING 20445
SWIDTH 750 0
DWIDTH 12 0
BBX 11 11 0 0
BITMAP
27C0
2820
4820
4820
C7C0
4100
5FE0
4100
4380
4540
5920
ENDCHAR
STARTCHAR U+4FDF
ENCODING 20447
SWIDTH 750 0
DWIDTH 12 0
BBX 11 11 0 0
BITMAP
2300
2400
48C0
5F20
C800
4FC0
5100
4FE0
4100
4280
5C60
ENDCHAR
STARTCHAR U+4FE0
ENCODING 20448
SWIDTH 750 0
DWIDTH 12 0
BBX 11 11 0 0
BITMAP
2200
3FE0
4200
5240
D240
6AA0
4500
4500
4880
5040
6020
ENDCHAR
STARTCHAR U+4FE1
ENCODING 20449
SWIDTH 750 0
DWIDTH 12 0
BBX 11 11 0 0
BITMAP
2FC0
2000
5FE0
4000
CFC0
4000
4FC0
5020
5020
5020
4FC0
ENDCHAR
STARTCHAR U+4FE3
ENCODING 20451
SWIDTH 750 0
DWIDTH 12 0
BBX 11 11 0 0
BITMAP
27C0
2820
4820
47C0
C000
4FC0
4100
5FE0
4100
4280
5C60
ENDCHAR
STARTCHAR U+4FE4
ENCODING 20452
SWIDTH 750 0
DWIDTH 12 0
BBX 11 11 0 0
BITMAP
2440
2FC0
4120
4120
CFC0
5100
5100
4FC0
4520
4920
5140
ENDCHAR
STARTCHAR U+4FE5
ENCODING 20453
SWIDTH 750 0
DWIDTH 12 0
BBX 11 11 0 0
BITMAP
2100
3FE0
4100
4FC0
D120
5FE0
5120
4FC0
4100
5FE0
4100
ENDCHAR
STARTCHAR U+4FEE
ENCODING 20462
SWIDTH 750 0
DWIDTH 12 0
BBX 11 11 0 0
BITMAP
2400
27E0
4A40
5180
D660
5080
5720
50C0
5720
40C0
4F00
ENDCHAR
STARTCHAR U+4FEF
ENCODING 20463
SWIDTH 750 0
DWIDTH 12 0
BBX 11 11 0 0
BITMAP
2100
2FE0
5000
5220
D5E0
5C20
5520
54A0
54A0
5420
64C0
ENDCHAR
STARTCHAR U+4FF1
ENCODING 20465
SWIDTH 750 0
DWIDTH 12 0
BBX 11 11 0 0
BITMAP
2780
2840
4FC0
4840
CFC0
4840
4840
5FE0
4000
4480
5860
ENDCHAR
STARTCHAR U+4FF3
ENCODING 20467
SWIDTH 750 0
DWIDTH 12 0
BBX 11 11 0 0
BITMAP
2280
2EE0
4280
4280
CEE0
4280
4280
5EE0
4280
4480
5880
ENDCHAR
STARTCHAR U+4FF5
ENCODING 20469
SWIDTH 750 0
DWIDTH 12 0
BBX 11 11 0 0
BITMAP
2100
2FE0
4100
4FE0
C100
5FE0
4200
5D20
4940
4C80
7060
ENDCHAR
STARTCHAR U+4FF6
ENCODING 20470
SWIDTH 750 0
DWIDTH 12 0
BBX 11 11 0 0
BITMAP
29C0
2E20
48A0
48A0
DEA0
4840
4A40
5AA0
6AA0
4920
5220
ENDCHAR
STARTCHAR U+4FF8
ENCODING 20472
SWIDTH 750 0
DWIDTH 12 0
BBX 11 11 0 0
BITMAP
2100
2FE0
4200
4FE0
C480
5FE0
4940
57A0
4100
5FE0
4100
ENDCHAR
STARTCHAR U+4FFA
ENCODING 20474
SWIDTH 750 0
DWIDTH 12 0
BBX 11 11 0 0
BITMAP
2200
3FC0
4880
5260
CF80
5240
5FC0
5240
4FA0
4220
41C0
ENDCHAR
STARTCHAR U+4FFE
ENCODING 20478
SWIDTH 750 0
DWIDTH 12 0
BBX 11 11 0 0
BITMAP
2200
2FC0
5120
5FE0
D120
4FC0
4480
4880
5FE0
4080
4080
ENDCHAR
STARTCHAR U+5005
ENCODING 20485
SWIDTH 750 0
DWIDTH 12 0
BBX 11 11 0 0
BITMAP
2100
2FE0
4000
4440
C440
4AA0
4100
5FE0
4100
4100
4100
ENDCHAR
STARTCHAR U+5006
ENCODING 20486
SWIDTH 750 0
DWIDTH 12 0
BBX 11 11 0 0
BITMAP
2FE0
2200
4FC0
5220
DB20
56A0
56A0
5B60
5220
5220
52C0
ENDCHAR
STARTCHAR U+5009
ENCODING 20489
SWIDTH 750 0
DWIDTH 12 0
BBX 11 11 0 0
BITMAP
0E00
1100
2E80
C060
1F80
2040
3F80
2000
5FC0
5040
8F80
ENDCHAR
STARTCHAR U+500B
ENCODING 20491
SWIDTH 750 0
DWIDTH 12 0
BBX 11 11 0 0
BITMAP
2FC0
3020
5120
57A0
D120
5320
54A0
54A0
5320
5020
4FC0
ENDCHAR
STARTCHAR U+500D
ENCODING 20493
SWIDTH 750 0
DWIDTH 12 0
BBX 11 11 0 0
BITMAP
2100
2FE0
4840
4480
DFE0
4000
47C0
4820
4820
4820
47C0
ENDCHAR
STARTCHAR U+500F
ENCODING 20495
SWIDTH 750 0
DWIDTH 12 0
BBX 11 11 0 0
BITMAP
2200
23C0
4C20
5240
D180
5660
5140
57E0
5100
4280
4C60
ENDCHAR
STARTCHAR U+5011
ENCODING 20497
SWIDTH 750 0
DWIDTH 12 0
BBX 11 11 0 0
BITMAP
2CC0
3320
5320
5FE0
D320
5320
5CE0
5020
5020
5020
51C0
ENDCHAR
STARTCHAR U+5012
ENCODING 20498
SWIDTH 750 0
DWIDTH 12 0
BBX 11 11 0 0
BITMAP
2F20
24A0
48A0
52A0
CDA0
44A0
5EA0
44A0
4420
4620
58C0
ENDCHAR
STARTCHAR U+5014
ENCODING 20500
SWIDTH 750 0
DWIDTH 12 0
BBX 11 11 0 0
BITMAP
2FC0
3020
5020
5FC0
D100
5540
5540
5380
6920
4920
47C0
ENDCHAR
STARTCHAR U+5016
ENCODING 20502
SWIDTH 750 0
DWIDTH 12 0
BBX 11 11 0 0
BITMAP
2100
2FE0
4100
5FE0
C840
4480
4FE0
4100
5FE0
4100
4100
ENDCHAR
STARTCHAR U+5019
ENCODING 20505
SWIDTH 750 0
DWIDTH 12 0
BBX 11 11 0 0
BITMAP
2780
2040
5040
5FE0
D400
57E0
5900
57E0
5100
4280
4C60
ENDCHAR
STARTCHAR U+501A
ENCODING 20506
SWIDTH 750 0
DWIDTH 12 0
BBX 11 11 0 0
BITMAP
2100
2FE0
4100
4280
DC60
4000
5FE0
48A0
48A0
4720
40C0
ENDCHAR
STARTCHAR U+501F
ENCODING 20511
SWIDTH 750 0
DWIDTH 12 0
BBX 11 11 0 0
BITMAP
2440
2FE0
4440
4440
DFE0
4000
47C0
4820
4FE0
4820
47C0
ENDCHAR
STARTCHAR U+5021
ENCODING 20513
SWIDTH 750 0
DWIDTH 12 0
BBX 11 11 0 0
BITMAP
2780
2840
4FC0
4840
C780
4000
4FC0
5020
5FE0
5020
4FC0
ENDCHAR
STARTCHAR U+5023
ENCODING 20515
SWIDTH 750 0
DWIDTH 12 0
BBX 11 11 0 0
BITMAP
2900
3DE0
4940
4E40
C940
4940
5280
5280
6540
4940
4220
ENDCHAR
STARTCHAR U+5024
ENCODING 20516
SWIDTH 750 0
DWIDTH 12 0
BBX 11 11 0 0
BITMAP
2100
2FE0
4100
53C0
D420
57E0
5420
5420
53C0
5000
4FE0
ENDCHAR
STARTCHAR U+5025
ENCODING 20517
SWIDTH 750 0
DWIDTH 12 0
BBX 11 11 0 0
BITMAP
2100
2FC0
5020
52A0
C480
5860
4000
4FE0
4100
4100
5FE0
ENDCHAR
STARTCHAR U+5026
ENCODING 20518
SWIDTH 750 0
DWIDTH 12 0
BBX 11 11 0 0
BITMAP
2540
2920
47C0
4480
DFE0
4840
57A0
4840
4980
4820
47C0
ENDCHAR
STARTCHAR U+5028
ENCODING 20520
SWIDTH 750 0
DWIDTH 12 0
BBX 11 11 0 0
BITMAP
27C0
2820
4820
4FC0
C880
4FE0
4880
4BC0
5420
5420
63C0
ENDCHAR
STARTCHAR U+5029
ENCODING 20521
SWIDTH 750 0
DWIDTH 12 0
BBX 11 11 0 0
BITMAP
2100
2FE0
4100
4FE0
C100
5FE0
4920
4920
4FE0
4820
48C0
ENDCHAR
STARTCHAR U+502A
ENCODING 20522
SWIDTH 750 0
DWIDTH 12 0
BBX 11 11 0 0
BITMAP
25C0
2820
5020
5DE0
D020
5020
4FC0
4500
4520
4920
50C0
ENDCHAR
STARTCHAR U+502B
ENCODING 20523
SWIDTH 750 0
DWIDTH 12 0
BBX 11 11 0 0
BITMAP
2780
2840
57A0
4000
CFC0
5520
5520
5FE0
5520
5520
55C0
ENDCHAR
STARTCHAR U+502C
ENCODING 20524
SWIDTH 750 0
DWIDTH 12 0
BBX 11 11 0 0
BITMAP
2200
23E0
4200
4FC0
D020
5FE0
5020
4FC0
4200
5FE0
4200
ENDCHAR
STARTCHAR U+502D
ENCODING 20525
SWIDTH 750 0
DWIDTH 12 0
BBX 11 11 0 0
BITMAP
2FE0
2100
4FE0
4540
D920
4400
5FE0
4840
4880
4700
58E0
ENDCHAR
STARTCHAR U+5036
ENCODING 20534
SWIDTH 750 0
DWIDTH 12 0
BBX 11 11 0 0
BITMAP
2780
2840
4FC0
4840
CFC0
4840
4780
4000
5FE0
4480
5860
ENDCHAR
STARTCHAR U+5039
ENCODING 20537
SWIDTH 750 0
DWIDTH 12 0
BBX 11 11 0 0
BITMAP
2380
2440
5BA0
4100
C7C0
4920
4920
47C0
4100
4280
5C60
ENDCHAR
STARTCHAR U+5043
ENCODING 20547
SWIDTH 750 0
DWIDTH 12 0
BBX 11 11 0 0
BITMAP
2FE0
3440
57C0
5440
D380
5200
5FE0
5440
5380
5440
4FE0
ENDCHAR
STARTCHAR U+5047
ENCODING 20551
SWIDTH 750 0
DWIDTH 12 0
BBX 11 11 0 0
BITMAP
2DC0
3220
5220
52C0
DC00
51C0
5E20
50A0
5E40
50A0
5320
ENDCHAR
STARTCHAR U+5048
ENCODING 20552
SWIDTH 750 0
DWIDTH 12 0
BBX 11 11 0 0
BITMAP
27C0
2820
4FE0
4820
C7C0
4800
4FC0
5120
4AA0
4820
4740
ENDCHAR
STARTCHAR U+5049
ENCODING 20553
SWIDTH 750 0
DWIDTH 12 0
BBX 11 11 0 0
BITMAP
2200
2F80
4440
5FE0
C840
4780
4080
5FE0
4880
5FE0
4080
ENDCHAR
STARTCHAR U+504F
ENCODING 20559
SWIDTH 750 0
DWIDTH 12 0
BBX 11 11 0 0
BITMAP
2FE0
2000
4FC0
5020
DFC0
5000
57C0
5AA0
6FE0
4AA0
4AC0
ENDCHAR
STARTCHAR U+5050
ENCODING 20560
SWIDTH 750 0
DWIDTH 12 0
BBX 11 11 0 0
BITMAP
2100
2FE0
4440
4380
CFE0
5080
5720
50C0
5720
60C0
4F00
ENDCHAR
STARTCHAR U+5055
ENCODING 20565
SWIDTH 750 0
DWIDTH 12 0
BBX 11 11 0 0
BITMAP
2920
2DC0
4900
4D20
D2C0
4400
4FC0
5020
5FE0
5020
4FC0
ENDCHAR
STARTCHAR U+5056
ENCODING 20566
SWIDTH 750 0
DWIDTH 12 0
BBX 11 11 0 0
BITMAP
2220
2FA0
4240
4280
DFE0
4220
47C0
5820
4FE0
4820
47C0
ENDCHAR
STARTCHAR U+505A
ENCODING 20570
SWIDTH 750 0
DWIDTH 12 0
BBX 11 11 0 0
BITMAP
2900
29E0
5D20
4A20
C940
5540
5480
5480
5540
5520
4A20
ENDCHAR
STARTCHAR U+505C
ENCODING 20572
SWIDTH 750 0
DWIDTH 12 0
BBX 11 11 0 0
BITMAP
2100
2FE0
4000
4780
C840
4FC0
5020
57A0
4100
4100
4E00
ENDCHAR
STARTCHAR U+5065
ENCODING 20581
SWIDTH 750 0
DWIDTH 12 0
BBX 11 11 0 0
BITMAP
2080
3BC0
44A0
4BE0
C8A0
45C0
5480
4BE0
4880
5480
63E0
ENDCHAR
STARTCHAR U+506C
ENCODING 20588
SWIDTH 750 0
DWIDTH 12 0
BBX 11 11 0 0
BITMAP
2800
2FC0
5520
4FA0
C520
4920
52C0
4000
4940
48A0
5720
ENDCHAR
STARTCHAR U+5072
ENCODING 20594
SWIDTH 750 0
DWIDTH 12 0
BBX 11 11 0 0
BITMAP
27C0
2920
4920
4FE0
C920
4920
47C0
4000
4940
48A0
5720
ENDCHAR
STARTCHAR U+5074
ENCODING 20596
SWIDTH 750 0
DWIDTH 12 0
BBX 11 11 0 0
BITMAP
2C20
32A0
52A0
5EA0
D2A0
52A0
5EA0
52A0
5220
4C20
52C0
ENDCHAR
STARTCHAR U+5075
ENCODING 20597
SWIDTH 750 0
DWIDTH 12 0
BBX 11 11 0 0
BITMAP
2400
27C0
4400
4F80
D040
5FC0
5040
5FC0
5040
4F80
5060
ENDCHAR
STARTCHAR U+5076
ENCODING 20598
SWIDTH 750 0
DWIDTH 12 0
BBX 11 11 0 0
BITMAP
2F80
3240
5FC0
5240
CF80
4200
4FC0
5220
52A0
5720
50C0
ENDCHAR
STARTCHAR U+5078
ENCODING 20600
SWIDTH 750 0
DWIDTH 12 0
BBX 11 11 0 0
BITMAP
2F80
2440
5BA0
4000
CCA0
52A0
5F40
5340
5F40
52A0
54A0
ENDCHAR
STARTCHAR U+507D
ENCODING 20605
SWIDTH 750 0
DWIDTH 12 0
BBX 11 11 0 0
BITMAP
2840
2480
2F80
4440
C7C0
4820
4FC0
5020
4AA0
5520
40C0
ENDCHAR
STARTCHAR U+5080
ENCODING 20608
SWIDTH 750 0
DWIDTH 12 0
BBX 11 11 0 0
BITMAP
2400
2FC0
5220
5FE0
D220
5220
4FC0
4540
45A0
4900
50E0
ENDCHAR
STARTCHAR U+5085
ENCODING 20613
SWIDTH 750 0
DWIDTH 12 0
BBX 11 11 0 0
BITMAP
2140
3FE0
4920
4FE0
C920
4FE0
4920
4040
5FE0
4840
4580
ENDCHAR
STARTCHAR U+508D
ENCODING 20621
SWIDTH 750 0
DWIDTH 12 0
BBX 11 11 0 0
BITMAP
2100
2FE0
4440
4FC0
D020
4100
5FE0
4200
43C0
4420
58C0
ENDCHAR
STARTCHAR U+5091
ENCODING 20625
SWIDTH 750 0
DWIDTH 12 0
BBX 11 11 0 0
BITMAP
2840
2DE0
5240
6A40
C5E0
5840
4100
5FE0
4100
4380
5D60
ENDCHAR
STARTCHAR U+5098
ENCODING 20632
SWIDTH 750 0
DWIDTH 12 0
BBX 11 11 0 0
BITMAP
0E00
1100
2480
C460
2480
5540
2480
5540
0400
FFE0
0400
ENDCHAR
STARTCHAR U+5099
ENCODING 20633
SWIDTH 750 0
DWIDTH 12 0
BBX 11 11 0 0
BITMAP
2440
2FE0
4440
4FE0
D000
57C0
6920
4FE0
4920
4FE0
4920
ENDCHAR
STARTCHAR U+509A
ENCODING 20634
SWIDTH 750 0
DWIDTH 12 0
BBX 11 11 0 0
BITMAP
2900
3DE0
5520
6220
D540
5540
4880
4880
5540
5220
6420
ENDCHAR
STARTCHAR U+50AC
ENCODING 20652
SWIDTH 750 0
DWIDTH 12 0
BBX 11 11 0 0
BITMAP
2920
2920
47C0
4880
CFE0
5100
7FE0
5100
5FE0
5100
4FE0
ENDCHAR
STARTCHAR U+50AD
ENCODING 20653
SWIDTH 750 0
DWIDTH 12 0
BBX 11 11 0 0
BITMAP
2100
2FE0
5140
5FE0
D140
57C0
6920
4FE0
4920
4FE0
4920
ENDCHAR
STARTCHAR U+50B2
ENCODING 20658
SWIDTH 750 0
DWIDTH 12 0
BBX 11 11 0 0
BITMAP
2900
3DE0
4920
5E20
C920
7F40
4940
4E80
5140
6120
4620
ENDCHAR
STARTCHAR U+50B3
ENCODING 20659
SWIDTH 750 0
DWIDTH 12 0
BBX 11 11 0 0
BITMAP
2200
3FE0
5240
5FC0
D240
7FE0
4040
5FE0
4840
4440
4180
ENDCHAR
STARTCHAR U+50B4
ENCODING 20660
SWIDTH 750 0
DWIDTH 12 0
BBX 11 11 0 0
BITMAP
2FE0
3000
5380
5440
D440
57C0
5920
5920
56C0
5000
4FE0
ENDCHAR
STARTCHAR U+50B5
ENCODING 20661
SWIDTH 750 0
DWIDTH 12 0
BBX 11 11 0 0
BITMAP
2100
2FE0
4100
4FE0
C100
5FE0
4820
4FE0
4820
47C0
5820
ENDCHAR
STARTCHAR U+50B7
ENCODING 20663
SWIDTH 750 0
DWIDTH 12 0
BBX 11 11 0 0
BITMAP
2800
2FE0
5840
4FC0
C840
5FE0
4800
5FC0
64A0
4920
56C0
ENDCHAR
STARTCHAR U+50BE
ENCODING 20670
SWIDTH 750 0
DWIDTH 12 0
BBX 11 11 0 0
BITMAP
27E0
2100
55C0
5A20
D3E0
5220
53E0
5220
4DC0
4220
4C20
ENDCHAR
STARTCHAR U+50C2
ENCODING 20674
SWIDTH 750 0
DWIDTH 12 0
BBX 11 11 0 0
BITMAP
2100
27C0
4920
5FE0
C920
47C0
4920
5FE0
4840
4780
5860
ENDCHAR
STARTCHAR U+50C5
ENCODING 20677
SWIDTH 750 0
DWIDTH 12 0
BBX 11 11 0 0
BITMAP
2440
2FE0
4440
4FC0
D120
5120
4FC0
4100
4FE0
4100
5FE0
ENDCHAR
STARTCHAR U+50C9
ENCODING 20681
SWIDTH 750 0
DWIDTH 12 0
BBX 11 11 0 0
BITMAP
0E00
1100
2E80
C060
3180
4A40
4A40
3180
2080
5140
8A20
ENDCHAR
STARTCHAR U+50CA
ENCODING 20682
SWIDTH 750 0
DWIDTH 12 0
BBX 11 11 0 0
BITMAP
2FE0
2480
4FC0
54A0
DFE0
4840
57A0
4840
4F80
4820
47C0
ENDCHAR
STARTCHAR U+50CD
ENCODING 20685
SWIDTH 750 0
DWIDTH 12 0
BBX 11 11 0 0
BITMAP
3E80
29C0
5EA0
6AA0
FEA0
6AA0
5CA0
4920
5D20
4A20
7CC0
ENDCHAR
STARTCHAR U+50CF
ENCODING 20687
SWIDTH 750 0
DWIDTH 12 0
BBX 11 11 0 0
BITMAP
2780
3840
47C0
4920
C920
47C0
5900
46A0
59C0
46A0
5920
ENDCHAR
STARTCHAR U+50D1
ENCODING 20689
SWIDTH 750 0
DWIDTH 12 0
BBX 11 11 0 0
BITMAP
2FE0
2200
5FE0
4840
D7A0
4840
4FC0
54A0
54A0
5320
50C0
ENDCHAR
STARTCHAR U+50D5
ENCODING 20693
SWIDTH 750 0
DWIDTH 12 0
BBX 11 11 0 0
BITMAP
2AA0
3FE0
4840
4480
DFE0
4100
4FE0
4100
5FE0
4480
5860
ENDCHAR
STARTCHAR U+50D6
ENCODING 20694
SWIDTH 750 0
DWIDTH 12 0
BBX 11 11 0 0
BITMAP
2100
2FE0
4100
5FE0
C840
4780
4840
5FE0
4840
4840
4780
ENDCHAR
STARTCHAR U+50DA
ENCODING 20698
SWIDTH 750 0
DWIDTH 12 0
BBX 11 11 0 0
BITMAP
2200
3FE0
5540
4F80
F060
5FC0
5040
4F80
4A80
7260
4C00
ENDCHAR
STARTCHAR U+50DE
ENCODING 20702
SWIDTH 750 0
DWIDTH 12 0
BBX 11 11 0 0
BITMAP
2FE0
2A40
5120
4F80
D040
5FC0
5020
5FC0
6020
5520
6AC0
ENDCHAR
STARTCHAR U+50E3
ENCODING 20707
SWIDTH 750 0
DWIDTH 12 0
BBX 11 11 0 0
BITMAP
2440
2EE0
4440
4EE0
C440
5AA0
47C0
4820
4FE0
4820
47C0
ENDCHAR
STARTCHAR U+50E5
ENCODING 20709
SWIDTH 750 0
DWIDTH 12 0
BBX 11 11 0 0
BITMAP
2100
2FE0
4100
5FE0
C440
5EE0
4440
5FE0
4280
44A0
5840
ENDCHAR
STARTCHAR U+50E7
ENCODING 20711
SWIDTH 750 0
DWIDTH 12 0
BBX 11 11 0 0
BITMAP
2440
2FC0
5120
5FE0
D120
4FC0
5020
5FE0
5020
5020
4FC0
ENDCHAR
STARTCHAR U+50ED
ENCODING 20717
SWIDTH 750 0
DWIDTH 12 0
BBX 11 11 0 0
BITMAP
2440
2EE0
5540
5EE0
CAA0
5120
4FC0
5020
5FE0
5020
4FC0
ENDCHAR
STARTCHAR U+50EE
ENCODING 20718
SWIDTH 750 0
DWIDTH 12 0
BBX 11 11 0 0
BITMAP
2100
2FE0
4840
4480
DFE0
4920
4FE0
4920
5FE0
4100
5FE0
ENDCHAR
STARTCHAR U+50F5
ENCODING 20725
SWIDTH 750 0
DWIDTH 12 0
BBX 11 11 0 0
BITMAP
3FE0
2920
4FE0
4920
C7C0
4000
5FE0
4920
4FE0
4920
5FE0
ENDCHAR
STARTCHAR U+50F9
ENCODING 20729
SWIDTH 750 0
DWIDTH 12 0
BBX 11 11 0 0
BITMAP
2FE0
2480
4FC0
54A0
D4A0
4FC0
4840
4FC0
4840
4780
5860
ENDCHAR
STARTCHAR U+50FB
ENCODING 20731
SWIDTH 750 0
DWIDTH 12 0
BBX 11 11 0 0
BITMAP
2880
37E0
5540
5540
D940
53E0
6880
5480
57E0
5480
4880
ENDCHAR
STARTCHAR U+5100
ENCODING 20736
SWIDTH 750 0
DWIDTH 12 0
BBX 11 11 0 0
BITMAP
2440
2FE0
4100
4FE0
C100
5FE0
4520
5FC0
44A0
5E40
49A0
ENDCHAR
STARTCHAR U+5101
ENCODING 20737
SWIDTH 750 0
DWIDTH 12 0
BBX 11 11 0 0
BITMAP
2480
27E0
5900
4FE0
C900
47E0
4000
4DC0
5720
5020
51C0
ENDCHAR
STARTCHAR U+5102
ENCODING 20738
SWIDTH 750 0
DWIDTH 12 0
BBX 11 11 0 0
BITMAP
2480
2FC0
54A0
5FE0
D4A0
4FC0
5000
5FE0
5540
6480
4E60
ENDCHAR
STARTCHAR U+5104
ENCODING 20740
SWIDTH 750 0
DWIDTH 12 0
BBX 11 11 0 0
BITMAP
2100
2FE0
4480
5FE0
C840
4FC0
4840
4780
4940
48A0
5720
ENDCHAR
STARTCHAR U+5109
ENCODING 20745
SWIDTH 750 0
DWIDTH 12 0
BBX 11 11 0 0
BITMAP
2380
2440
5BA0
4000
C6C0
4920
4920
46C0
4440
4AA0
5120
ENDCHAR
STARTCHAR U+5112
ENCODING 20754
SWIDTH 750 0
DWIDTH 12 0
BBX 11 11 0 0
BITMAP
2FE0
2100
4FC0
5120
D760
4000
5FE0
4200
4FC0
5520
5540
ENDCHAR
STARTCHAR U+5114
ENCODING 20756
SWIDTH 750 0
DWIDTH 12 0
BBX 11 11 0 0
BITMAP
2100
2FE0
4100
5FC0
C020
4F80
4220
5FE0
52A0
5220
4CC0
ENDCHAR
STARTCHAR U+5115
ENCODING 20757
SWIDTH 750 0
DWIDTH 12 0
BBX 11 11 0 0
BITMAP
2200
3FE0
4880
7560
CA80
6AA0
5040
5FC0
5040
5FC0
6040
ENDCHAR
STARTCHAR U+5116
ENCODING 20758
SWIDTH 750 0
DWIDTH 12 0
BBX 11 11 0 0
BITMAP
2E80
34E0
5E80
5300
DEE0
5400
4F80
5540
5540
5540
7FE0
ENDCHAR
STARTCHAR U+5118
ENCODING 20760
SWIDTH 750 0
DWIDTH 12 0
BBX 11 11 0 0
BITMAP
2200
2F80
4240
5FE0
C240
5FE0
5540
4FA0
5540
5540
7FE0
ENDCHAR
STARTCHAR U+511A
ENCODING 20762
SWIDTH 750 0
DWIDTH 12 0
BBX 11 11 0 0
BITMAP
2480
2FE0
4480
4FC0
D4A0
4FC0
5020
47C0
5A20
4140
4F80
ENDCHAR
STARTCHAR U+511F
ENCODING 20767
SWIDTH 750 0
DWIDTH 12 0
BBX 11 11 0 0
BITMAP
2920
2FC0
5020
57A0
C840
4780
4840
4FC0
4840
4780
5860
ENDCHAR
STARTCHAR U+5121
ENCODING 20769
SWIDTH 750 0
DWIDTH 12 0
BBX 11 11 0 0
BITMAP
2F80
3240
5FC0
5240
CF80
4000
5DC0
6AA0
7FE0
6AA0
5DC0
ENDCHAR
STARTCHAR U+512A
ENCODING 20778
SWIDTH 750 0
DWIDTH 12 0
BBX 11 11 0 0
BITMAP
3FE0
2840
4FC0
4840
CFC0
52A0
6840
4780
5840
4780
5860
ENDCHAR
STARTCHAR U+5132
ENCODING 20786
SWIDTH 750 0
DWIDTH 12 0
BBX 11 11 0 0
BITMAP
2D20
23A0
5D40
43E0
CCA0
41C0
4E20
53E0
5220
5220
4DC0
ENDCHAR
ENDFONT
